<?xml version="1.0" standalone="no"?>
<!DOCTYPE svg PUBLIC "-//W3C//DTD SVG 20010904//EN"
 "http://www.w3.org/TR/2001/REC-SVG-20010904/DTD/svg10.dtd">
<svg version="1.0" xmlns="http://www.w3.org/2000/svg"
 width="591.000000pt" height="591.000000pt" viewBox="0 0 591.000000 591.000000"
 preserveAspectRatio="xMidYMid meet">

<g transform="translate(0.000000,591.000000) scale(0.100000,-0.100000)"
fill="#000000" stroke="none">
<path d="M2929 5634 c-46 -49 -168 -140 -254 -189 -86 -49 -189 -149 -215
-208 -11 -24 -23 -68 -27 -97 l-8 -52 -95 -32 c-197 -67 -365 -155 -530 -276
-112 -82 -279 -252 -363 -370 -86 -121 -195 -337 -232 -461 l-29 -96 -75 0
c-137 1 -239 -70 -302 -211 -34 -76 -144 -245 -183 -281 -14 -14 -26 -29 -26
-34 0 -5 32 -43 70 -84 39 -41 95 -117 125 -169 103 -175 234 -284 340 -284
l41 0 28 -87 c127 -392 395 -744 737 -966 88 -57 262 -147 286 -147 10 0 13
23 13 93 l0 93 -102 51 c-123 62 -292 179 -284 198 10 27 27 97 24 100 -2 1
-37 23 -78 49 l-74 46 -26 -25 -27 -26 -46 50 c-57 61 -141 188 -195 297 -48
97 -122 271 -122 289 0 7 14 25 32 40 l31 26 24 -82 c29 -100 100 -241 166
-327 26 -35 56 -80 66 -101 34 -66 158 -164 269 -213 43 -18 61 -20 199 -15
133 5 157 8 187 26 49 31 140 132 165 184 20 42 21 48 7 86 -8 23 -26 60 -42
82 -34 49 -138 129 -169 129 -54 0 -135 -111 -135 -186 0 -50 21 -72 78 -82
32 -5 39 -10 33 -21 -20 -32 -113 -5 -136 39 -8 15 -16 59 -17 97 -3 63 0 73
24 105 15 20 48 49 73 65 l45 28 -3 105 -2 105 -60 -3 c-183 -10 -327 -95
-369 -219 -22 -64 -20 -158 3 -210 22 -48 88 -123 145 -165 51 -36 35 -36 -30
2 -108 61 -184 180 -184 286 0 88 33 148 123 224 110 91 220 139 323 140 48 0
54 9 54 75 0 26 -7 51 -17 64 -17 21 -21 21 -93 10 -97 -15 -215 -58 -284
-104 -106 -70 -196 -190 -232 -308 -10 -31 -21 -57 -26 -57 -15 0 -70 134 -98
242 -97 375 -92 616 20 951 117 348 305 589 628 804 374 250 818 316 1288 194
242 -64 423 -168 631 -365 160 -151 262 -290 353 -479 103 -214 143 -400 143
-657 -1 -121 -6 -196 -22 -280 -24 -137 -60 -260 -75 -260 -6 0 -32 13 -57 29
l-46 29 18 104 c62 354 43 646 -57 871 -61 140 -82 181 -125 248 -211 327
-584 573 -961 634 -119 19 -347 19 -463 0 -362 -59 -674 -234 -887 -495 -42
-52 -155 -234 -199 -322 -49 -96 -97 -254 -115 -378 -26 -182 -5 -441 44 -524
17 -29 22 -31 70 -30 101 3 201 74 257 184 21 42 65 170 65 191 0 15 -79 10
-105 -7 -32 -21 -59 -11 -85 30 -23 38 -25 85 -10 221 37 322 234 642 509 823
86 56 237 129 247 119 3 -2 -18 -19 -45 -36 -75 -49 -173 -158 -214 -240 -53
-106 -71 -199 -64 -340 6 -133 27 -214 76 -285 60 -86 144 -124 236 -106 95
19 245 134 245 187 0 8 -23 13 -67 15 -61 3 -68 5 -71 24 -8 55 80 75 117 28
l21 -27 53 17 c72 22 151 36 207 36 57 0 56 -1 189 153 l102 117 85 0 c46 0
84 -2 84 -5 0 -21 -39 -71 -99 -128 -98 -92 -112 -100 -182 -101 -53 -1 -60
-3 -66 -23 -27 -109 119 -225 390 -314 l99 -31 -7 -202 -7 -201 130 -83 c180
-114 248 -184 306 -319 l19 -43 -39 -45 c-21 -26 -52 -62 -68 -81 -25 -29 -30
-44 -30 -88 -1 -44 4 -59 23 -80 22 -23 26 -24 50 -11 63 33 157 157 231 305
23 47 44 87 46 89 2 2 13 -4 24 -14 16 -15 20 -31 20 -86 l0 -67 72 -44 c105
-62 122 -96 126 -251 5 -134 -3 -162 -55 -207 -71 -63 -313 -165 -313 -132 0
4 34 20 75 36 41 16 108 48 148 72 66 38 77 49 97 96 55 125 15 306 -76 344
-48 20 -80 4 -150 -76 -65 -74 -113 -98 -208 -106 -84 -7 -122 13 -158 85 -16
30 -28 69 -28 86 0 48 38 97 97 124 81 38 78 87 -10 162 -278 238 -295 251
-316 239 -16 -8 -21 -20 -21 -55 l0 -44 130 -110 c86 -74 127 -116 124 -126
-4 -10 -39 8 -135 72 -71 47 -131 84 -133 82 -2 -2 -11 -121 -19 -264 -16
-258 -16 -259 5 -273 27 -20 48 -72 48 -124 0 -63 -47 -153 -109 -211 -44 -41
-51 -53 -51 -86 0 -25 7 -44 20 -56 11 -10 20 -25 20 -34 0 -29 -47 -87 -96
-120 -50 -33 -54 -32 -69 17 -6 22 -5 23 30 16 61 -11 106 48 85 112 -21 63
-83 82 -145 44 -61 -38 -127 -146 -118 -193 6 -29 31 -4 -336 -347 -230 -215
-162 -121 102 141 178 178 217 221 217 244 0 94 78 194 167 213 51 11 150 70
190 114 28 29 53 89 53 124 0 15 -12 53 -27 86 l-26 60 11 416 c7 229 15 498
19 597 l6 180 -57 18 c-151 48 -305 140 -406 242 -54 54 -70 65 -98 65 -47 0
-66 -12 -162 -104 -63 -60 -108 -94 -175 -128 -95 -49 -218 -91 -299 -103
l-48 -8 6 -101 c3 -55 9 -229 12 -386 l6 -285 62 -60 c66 -63 96 -124 96 -192
0 -48 -35 -111 -75 -134 -39 -23 -50 -52 -60 -152 l-7 -68 -31 6 c-18 4 -57
20 -87 37 -54 29 -56 29 -92 14 -26 -11 -36 -21 -31 -31 9 -25 91 -76 167
-106 60 -23 71 -31 74 -53 l3 -26 -43 16 c-59 21 -133 63 -266 151 l-112 75
-19 -23 c-14 -17 -17 -29 -10 -41 17 -32 145 -113 301 -193 84 -43 154 -78
155 -79 1 -1 7 -125 13 -276 7 -151 16 -283 21 -292 8 -15 25 -18 109 -18 55
0 100 -2 100 -5 0 -3 -12 -24 -27 -48 -65 -102 -102 -207 -149 -415 -62 -278
-40 -381 99 -454 132 -70 330 20 373 168 24 82 7 139 -57 201 -27 26 -49 51
-49 56 0 21 67 92 144 151 113 89 230 158 461 274 222 110 327 170 490 278
187 124 222 156 240 216 8 28 15 68 16 87 0 50 40 80 130 97 145 28 285 127
351 250 87 162 43 448 -97 631 l-33 43 24 57 c13 32 24 64 24 71 0 17 3 16 53
-16 l44 -27 -24 -70 c-12 -38 -23 -74 -23 -80 0 -6 19 -22 41 -34 49 -28 48
-30 84 85 l26 81 49 6 c114 14 212 94 302 248 61 102 117 179 181 246 l40 42
-35 39 c-50 55 -108 143 -159 240 -96 183 -236 279 -360 244 l-35 -9 -33 98
c-170 502 -606 933 -1132 1119 l-67 24 5 57 c6 66 -8 116 -49 177 -36 52 -149
138 -200 152 -49 14 -172 97 -228 154 -24 25 -47 46 -50 46 -3 0 -22 -16 -41
-36z m81 -543 c14 -10 31 -36 39 -59 23 -62 9 -72 -100 -72 l-89 0 0 48 c1 94
75 136 150 83z m-537 -155 c1 -5 -34 -21 -78 -36 -157 -53 -292 -125 -434
-230 -45 -33 -83 -60 -86 -60 -3 0 -5 6 -5 14 0 44 252 195 480 287 93 38 119
43 123 25z m1052 -6 c87 -30 292 -140 421 -226 112 -74 145 -106 124 -119 -12
-7 -19 -3 -92 52 -132 100 -353 221 -483 263 -81 26 -79 25 -70 39 9 16 35 14
100 -9z m-1832 -477 c4 -3 -15 -29 -41 -57 -100 -106 -210 -308 -282 -516 -18
-52 -36 -98 -40 -103 -3 -4 -15 2 -25 13 -18 20 -18 22 15 108 70 184 180 372
295 500 56 61 65 68 78 55z m2734 -245 c108 -164 199 -382 173 -413 -20 -25
-28 -18 -45 41 -51 177 -168 394 -273 506 -32 34 -42 53 -37 65 5 15 16 8 63
-42 30 -33 84 -103 119 -157z m-1472 -101 c4 -65 5 -121 2 -123 -2 -3 -41 38
-87 90 l-82 96 11 69 c6 39 11 73 11 76 0 3 31 -15 69 -42 l69 -48 7 -118z
m305 125 l0 -68 -75 -74 -75 -74 0 101 0 101 33 28 c33 28 82 53 105 54 8 0
12 -20 12 -68z m-482 -249 c32 -43 62 -83 66 -90 9 -16 -192 -6 -213 11 -8 6
-33 40 -57 76 l-44 65 92 6 c51 3 94 6 95 7 1 1 28 -33 61 -75z m214 -375 c8
-7 25 -30 37 -50 44 -73 180 -178 324 -249 61 -30 67 -36 67 -64 1 -168 -33
-1205 -40 -1223 -13 -30 -68 -62 -109 -62 -49 0 -114 -42 -150 -97 -28 -42
-81 -184 -81 -217 0 -7 -55 -63 -122 -124 l-122 -112 -122 0 -122 0 -6 83 c-3
45 -8 202 -11 349 l-6 266 30 42 c99 137 95 313 -12 463 l-44 62 8 255 c4 140
8 275 8 300 1 45 2 46 54 72 75 37 207 138 306 234 47 46 89 84 92 84 3 0 12
-6 21 -12z m-1700 -205 c14 -13 18 -31 18 -95 0 -76 -1 -79 -27 -89 -39 -15
-78 -2 -113 37 -48 55 -34 114 35 145 50 23 64 23 87 2z m3429 -22 c60 -60 19
-148 -74 -158 l-47 -6 0 90 c0 49 3 93 7 96 3 4 24 7 45 7 30 0 46 -7 69 -29z
m-665 -1295 c45 -45 44 -67 -1 -27 -58 51 -108 53 -161 8 -20 -18 -28 -35 -31
-73 -7 -65 10 -98 77 -154 133 -112 104 -192 -120 -332 -30 -19 -161 -87 -290
-151 -369 -182 -578 -316 -736 -472 -69 -69 -98 -106 -122 -158 -18 -37 -32
-74 -32 -82 0 -8 16 -25 36 -38 47 -33 84 -85 84 -119 0 -19 -13 -42 -43 -73
-36 -37 -50 -45 -79 -45 -38 0 -50 14 -41 49 6 25 11 26 34 5 37 -34 79 8 79
79 0 24 -11 41 -50 78 l-50 47 20 54 c42 113 122 214 256 327 128 107 298 206
720 420 121 61 249 133 285 160 117 86 126 167 24 218 -39 20 -83 61 -101 95
-21 41 -18 110 7 142 30 39 106 75 158 76 36 0 49 -6 77 -34z"/>
<path d="M2915 3396 c-101 -32 -175 -94 -217 -181 -35 -74 -37 -131 -6 -170
24 -30 74 -55 112 -55 20 0 25 6 31 37 9 51 50 128 77 147 33 24 84 20 102 -6
32 -45 7 -86 -35 -60 -27 17 -33 15 -53 -18 -24 -41 -23 -85 1 -118 l21 -28
-60 15 c-163 39 -294 -72 -292 -249 1 -112 55 -187 145 -201 131 -21 197 30
187 143 -6 58 -28 82 -68 74 -63 -12 -65 -12 -68 13 -10 70 127 41 163 -35 29
-62 14 -118 -65 -234 -72 -106 -88 -194 -51 -276 32 -70 129 -132 193 -122 33
5 31 19 -12 77 -64 86 -56 138 46 288 70 102 98 179 92 251 -3 43 -1 49 33 79
20 19 40 45 43 59 9 32 -15 71 -51 85 l-26 10 35 24 c66 44 104 176 78 268
-18 67 -76 138 -139 170 -61 30 -144 36 -216 13z m176 -491 l26 6 -11 -45 -10
-46 -21 25 c-11 14 -33 37 -50 50 l-30 24 35 -10 c19 -5 47 -7 61 -4z"/>
<path d="M2585 3038 c-4 -18 -21 -52 -38 -75 -33 -46 -32 -74 4 -125 26 -36
35 -35 43 3 3 17 25 51 51 77 56 56 57 80 8 121 -48 39 -60 39 -68 -1z"/>
<path d="M2780 4811 c-294 -32 -546 -137 -766 -321 -253 -211 -388 -389 -477
-630 -90 -243 -121 -620 -71 -881 17 -90 71 -249 85 -249 4 0 13 17 20 38 10
34 8 50 -19 133 -127 400 -42 893 215 1251 130 180 302 334 473 422 270 140
502 195 770 183 223 -11 367 -49 585 -157 427 -211 681 -550 775 -1035 11 -60
24 -154 27 -207 l6 -98 29 0 28 0 0 68 c0 71 -21 243 -40 327 -35 162 -115
353 -204 490 -94 144 -303 342 -474 449 -137 86 -327 162 -490 196 -109 23
-350 34 -472 21z"/>
</g>
</svg>
