<?xml version="1.0" standalone="no"?>
<!DOCTYPE svg PUBLIC "-//W3C//DTD SVG 20010904//EN"
 "http://www.w3.org/TR/2001/REC-SVG-20010904/DTD/svg10.dtd">
<svg version="1.0" xmlns="http://www.w3.org/2000/svg"
 width="591.000000pt" height="591.000000pt" viewBox="0 0 591.000000 591.000000"
 preserveAspectRatio="xMidYMid meet">

<g transform="translate(0.000000,591.000000) scale(0.100000,-0.100000)"
fill="#000000" stroke="none">
<path d="M2880 5260 l0 -150 45 0 45 0 0 150 0 150 -45 0 -45 0 0 -150z"/>
<path d="M2735 5023 c-228 -118 -508 -223 -805 -303 -85 -23 -161 -43 -169
-46 -10 -3 -7 -12 11 -37 13 -17 125 -176 248 -352 123 -176 225 -321 226
-323 1 -2 19 1 40 7 22 6 80 15 131 21 180 22 323 -19 414 -118 l49 -54 -6
423 c-4 233 -9 519 -13 634 l-6 210 -120 -62z"/>
<path d="M2990 4548 l1 -503 20 25 c101 124 132 158 194 211 235 200 511 317
844 358 46 6 86 12 87 14 2 2 -40 16 -94 31 -256 74 -673 218 -921 320 -61 25
-116 46 -121 46 -6 0 -10 -191 -10 -502z"/>
<path d="M1485 4910 l-28 -29 79 -87 c43 -47 88 -98 100 -112 l20 -25 35 31
34 30 -50 54 c-84 91 -156 168 -159 168 -1 0 -15 -13 -31 -30z"/>
<path d="M4308 4908 c-14 -18 -53 -73 -88 -122 l-64 -89 30 -23 c16 -13 34
-24 39 -24 11 1 165 218 166 235 0 6 -13 20 -29 33 l-30 23 -24 -33z"/>
<path d="M1657 4599 c-14 -24 -104 -186 -200 -359 l-174 -316 22 -152 c12 -84
26 -157 31 -162 7 -7 1264 -570 1341 -600 18 -7 6 22 -68 178 -50 102 -91 188
-93 189 -2 2 -25 -6 -51 -18 -67 -30 -174 -23 -237 14 -122 71 -182 197 -157
331 14 78 40 128 99 190 l48 51 -253 334 c-140 184 -260 341 -268 349 -13 12
-18 9 -40 -29z"/>
<path d="M4175 4501 c-23 -5 -6 -10 70 -19 l100 -13 60 -58 c37 -36 75 -64
100 -71 102 -32 197 -97 248 -170 10 -14 1 8 -19 48 -68 134 -192 231 -339
266 -74 18 -180 26 -220 17z"/>
<path d="M3845 4410 c-542 -111 -821 -448 -802 -970 4 -113 22 -250 31 -238 5
5 810 1119 850 1176 22 30 32 52 24 51 -7 0 -53 -9 -103 -19z"/>
<path d="M3583 3773 c-259 -362 -467 -659 -462 -661 5 -2 96 17 203 43 l194
46 -9 32 c-17 59 -10 119 19 182 49 104 141 164 262 172 78 6 153 -19 223 -72
39 -30 99 -105 110 -138 2 -6 170 65 403 172 219 101 400 185 402 186 2 1
-123 153 -277 337 l-281 335 -107 7 c-60 3 -130 9 -158 12 l-50 5 -472 -658z"/>
<path d="M1125 3775 c-48 -53 -86 -98 -84 -100 7 -6 204 -63 208 -59 3 3 -29
246 -34 252 -1 1 -41 -41 -90 -93z"/>
<path d="M2384 3814 c4 -15 10 -39 13 -55 3 -18 21 -42 44 -60 22 -17 51 -56
69 -92 28 -56 31 -70 29 -142 l-2 -80 87 -174 c49 -98 91 -170 96 -165 5 5 18
44 29 86 95 367 16 616 -221 690 -33 10 -80 18 -105 18 -44 0 -45 -1 -39 -26z"/>
<path d="M2293 3778 c-54 -59 -77 -146 -61 -223 12 -54 10 -56 43 37 9 26 29
61 44 77 26 28 27 32 17 80 -5 28 -13 51 -16 51 -4 0 -16 -10 -27 -22z"/>
<path d="M5090 3713 c-74 -31 -137 -57 -139 -59 -8 -7 28 -79 39 -76 22 5 255
104 261 110 4 4 -1 23 -10 44 l-17 36 -134 -55z"/>
<path d="M646 3716 c-3 -13 -8 -31 -12 -39 -4 -12 25 -25 133 -61 76 -25 141
-46 145 -46 10 0 29 73 20 81 -6 6 -262 89 -275 89 -2 0 -8 -11 -11 -24z"/>
<path d="M938 3503 l-58 -46 0 -76 c0 -42 -5 -278 -10 -525 l-11 -450 38 -38
c26 -26 45 -38 58 -35 31 6 965 419 965 426 0 4 -26 12 -58 19 -74 15 -181 67
-259 126 -136 103 -292 299 -380 480 l-38 78 -87 44 c-48 24 -91 44 -95 44 -5
-1 -34 -22 -65 -47z"/>
<path d="M4536 3425 c-208 -68 -380 -125 -381 -127 -2 -2 -11 -46 -19 -98 -30
-172 -76 -292 -138 -357 l-31 -32 192 -95 c206 -104 430 -225 633 -342 70 -41
130 -74 133 -74 3 0 5 281 5 625 0 344 -3 625 -7 624 -5 0 -178 -56 -387 -124z"/>
<path d="M1387 3473 c3 -10 23 -55 44 -100 213 -466 617 -629 1107 -447 40 15
69 31 65 35 -8 8 -1207 529 -1217 529 -3 0 -3 -8 1 -17z"/>
<path d="M3700 3435 c0 -2 19 -14 43 -26 51 -26 84 -55 103 -91 13 -25 20 -28
69 -28 36 0 55 4 55 12 0 23 -104 113 -146 126 -40 12 -124 17 -124 7z"/>
<path d="M3840 3204 c-19 -14 -50 -32 -69 -40 -44 -18 -157 -18 -211 1 -41 15
-48 14 -218 -31 -241 -63 -228 -53 -135 -102 45 -23 129 -58 189 -79 98 -33
120 -37 214 -37 87 -1 115 3 163 23 96 38 183 142 216 259 l10 32 -62 0 c-50
-1 -69 -6 -97 -26z"/>
<path d="M2180 2705 c-152 -43 -280 -175 -280 -291 0 -82 27 -143 93 -209 34
-34 73 -68 86 -75 l25 -13 -23 34 c-81 123 -70 226 29 277 92 48 211 8 251
-84 11 -24 21 -44 23 -44 2 0 58 59 125 131 139 148 137 137 39 200 -113 73
-263 103 -368 74z"/>
<path d="M3515 2665 c-86 -15 -234 -72 -242 -91 -6 -17 20 -58 148 -231 55
-73 106 -133 114 -133 31 0 93 -40 134 -86 46 -52 71 -121 71 -194 0 -44 8
-57 216 -338 119 -161 219 -292 224 -292 14 0 147 146 187 206 52 76 84 142
114 229 20 58 24 89 23 180 0 94 -4 120 -27 177 -40 102 -90 174 -196 278
-173 170 -354 268 -551 300 -82 12 -127 12 -215 -5z"/>
<path d="M3170 2456 c-83 -65 -138 -130 -173 -204 -29 -62 -32 -75 -32 -167 1
-126 26 -199 91 -262 54 -52 116 -72 246 -80 157 -9 217 19 305 144 l41 59
-71 -24 c-96 -33 -195 -35 -234 -6 -44 33 -73 91 -73 151 0 45 4 54 31 77 21
18 42 26 70 26 21 0 39 2 39 4 0 6 -171 310 -178 318 -4 4 -32 -12 -62 -36z"/>
<path d="M1355 2339 c-209 -81 -392 -153 -408 -158 l-27 -10 87 -83 c252 -236
460 -499 575 -724 24 -46 45 -84 48 -84 5 1 523 676 528 689 1 4 -22 12 -53
18 -84 18 -217 85 -274 138 -28 26 -63 72 -77 101 -24 49 -26 62 -22 142 3 48
9 95 13 105 4 9 3 17 -1 16 -5 -1 -180 -68 -389 -150z"/>
<path d="M2212 1878 c-326 -415 -478 -616 -471 -623 6 -6 89 -10 217 -9 181 0
217 3 287 22 256 70 419 237 486 497 27 105 36 306 20 445 -12 98 -44 266 -53
276 -3 2 -221 -272 -486 -608z"/>
<path d="M4595 2279 c70 -101 104 -174 113 -236 l7 -46 110 105 109 105 -184
73 c-102 40 -191 75 -199 78 -7 3 12 -33 44 -79z"/>
<path d="M5019 2279 c-7 -21 -10 -41 -7 -44 3 -3 67 -25 142 -49 l136 -44 12
39 c6 22 9 41 7 43 -2 2 -66 24 -141 49 l-138 45 -11 -39z"/>
<path d="M735 2223 c-71 -30 -133 -57 -137 -61 -4 -4 1 -24 10 -44 l17 -37
135 56 c74 31 136 57 138 58 1 1 -6 20 -15 42 l-18 40 -130 -54z"/>
<path d="M4650 1897 c0 -37 -21 -85 -55 -125 l-27 -32 17 -65 c44 -162 -15
-311 -165 -418 l-25 -18 25 6 c62 15 151 68 194 116 88 98 116 274 72 464 -19
85 -36 118 -36 72z"/>
<path d="M3694 1758 c-35 -40 -133 -96 -199 -113 -128 -35 -312 -7 -467 71
l-68 34 0 -24 c0 -31 47 -753 55 -852 l7 -72 66 39 c148 86 449 195 797 288
104 28 196 51 205 51 9 0 19 3 23 6 6 7 -382 594 -393 594 -4 0 -15 -10 -26
-22z"/>
<path d="M2560 1289 c-168 -137 -306 -253 -308 -258 -1 -5 24 -11 57 -15 142
-16 337 -74 474 -142 l87 -43 0 355 c0 195 -1 354 -2 354 -2 0 -140 -113 -308
-251z"/>
<path d="M1551 1118 l-84 -120 29 -24 c16 -13 34 -23 39 -23 8 0 163 214 172
238 3 6 -59 52 -68 50 -2 0 -42 -54 -88 -121z"/>
<path d="M4178 1205 c-16 -13 -28 -28 -28 -32 1 -4 45 -55 100 -113 l99 -105
30 30 30 30 -95 105 c-52 58 -98 106 -102 107 -4 1 -19 -9 -34 -22z"/>
<path d="M2884 797 c-2 -7 -3 -76 -2 -152 l3 -140 43 -3 42 -3 0 155 0 156
-40 0 c-24 0 -43 -5 -46 -13z"/>
</g>
</svg>
