<?xml version="1.0" standalone="no"?>
<!DOCTYPE svg PUBLIC "-//W3C//DTD SVG 20010904//EN"
 "http://www.w3.org/TR/2001/REC-SVG-20010904/DTD/svg10.dtd">
<svg version="1.0" xmlns="http://www.w3.org/2000/svg"
 width="591.000000pt" height="591.000000pt" viewBox="0 0 591.000000 591.000000"
 preserveAspectRatio="xMidYMid meet">

<g transform="translate(0.000000,591.000000) scale(0.100000,-0.100000)"
fill="#000000" stroke="none">
<path d="M1890 5267 c-129 -54 -269 -167 -520 -423 -97 -99 -211 -226 -254
-284 -176 -236 -302 -485 -406 -803 -96 -291 -115 -446 -114 -912 l1 -350 45
-135 44 -135 7 120 c9 174 63 530 108 710 29 115 98 252 159 315 32 33 50 60
50 76 0 34 34 190 82 374 53 205 124 356 280 595 62 95 93 124 111 106 7 -7
-1 -27 -25 -64 -80 -120 -123 -223 -278 -662 -37 -105 -58 -236 -66 -404 -12
-269 39 -444 185 -626 24 -30 48 -55 53 -55 5 0 7 124 6 283 -3 274 -2 284 21
352 27 80 81 191 121 251 l28 40 -16 65 c-36 148 -9 559 37 559 5 0 11 -60 14
-132 7 -173 41 -353 123 -637 76 -268 127 -380 211 -472 57 -61 142 -119 176
-119 17 0 17 1 -1 28 -37 52 -73 134 -93 210 -22 85 -37 316 -25 396 11 72 95
156 156 156 37 0 97 -38 121 -77 13 -21 61 -79 106 -129 l82 -91 -1 -99 c-1
-86 2 -107 25 -163 30 -72 33 -91 15 -109 -21 -21 -50 -13 -106 29 -126 95
-229 221 -263 321 l-17 50 -7 -60 c-11 -101 7 -213 52 -317 39 -91 75 -136
163 -210 84 -69 104 -98 88 -127 -16 -31 -87 -59 -163 -65 -63 -5 -79 -2 -127
19 -68 31 -115 72 -164 144 l-39 56 -14 -43 c-20 -66 -19 -294 3 -394 42 -193
117 -369 239 -560 101 -160 256 -350 271 -334 2 2 -18 74 -46 159 l-50 155 7
180 c6 154 11 191 32 258 28 85 109 234 136 251 31 20 51 -5 59 -74 5 -45 20
-88 49 -146 l42 -83 23 90 c13 49 39 127 60 172 52 118 52 117 4 160 -22 21
-56 45 -74 54 -33 15 -35 15 -68 -11 -19 -14 -38 -26 -41 -26 -4 0 -7 22 -7
49 0 41 -4 51 -20 56 -42 13 -126 132 -107 151 5 6 421 -238 445 -260 19 -18
27 -169 13 -253 -15 -88 -57 -178 -109 -235 l-40 -43 133 -748 c73 -412 135
-750 137 -752 2 -3 64 333 137 745 l133 749 -40 48 c-79 95 -112 195 -112 339
0 154 -17 133 227 280 119 71 222 130 230 132 39 10 -30 -109 -84 -143 -28
-17 -32 -26 -33 -62 0 -23 -4 -44 -9 -47 -4 -3 -23 6 -41 19 -19 14 -39 25
-45 25 -18 0 -114 -69 -130 -94 -15 -23 -14 -28 13 -83 34 -68 77 -189 93
-261 l11 -52 43 88 c30 60 45 106 50 150 8 67 14 77 49 68 27 -7 94 -119 138
-233 30 -74 31 -87 37 -268 l7 -190 -48 -150 c-26 -82 -48 -154 -48 -160 0
-16 99 87 159 165 170 221 277 438 346 695 22 83 31 301 15 393 -6 39 -15 72
-19 72 -4 0 -12 -10 -18 -23 -18 -38 -113 -136 -159 -163 -53 -31 -131 -41
-204 -25 -60 13 -120 53 -120 80 0 10 28 44 63 75 34 32 81 75 104 97 48 45
107 161 128 253 8 33 15 108 15 166 l0 105 -23 -55 c-44 -106 -124 -205 -245
-302 -78 -61 -114 -72 -132 -38 -8 15 -4 33 17 82 23 55 27 77 29 175 l1 113
74 77 c41 43 88 98 104 123 37 55 88 90 130 90 36 0 104 -45 132 -87 37 -56
35 -329 -3 -477 -17 -67 -74 -185 -98 -205 -59 -49 44 -18 116 36 114 83 181
206 261 478 100 340 137 525 143 710 4 114 14 140 33 83 33 -105 42 -388 15
-514 l-15 -76 24 -37 c47 -71 107 -200 127 -275 19 -69 21 -98 18 -345 -2
-149 0 -271 3 -271 12 0 79 80 116 137 50 79 81 153 105 252 18 77 20 107 15
281 -6 222 -26 341 -81 475 -18 44 -43 112 -56 150 -58 179 -145 372 -206 458
-33 46 -36 67 -10 67 35 0 169 -205 276 -425 57 -118 75 -168 114 -320 25 -99
53 -223 62 -275 15 -91 18 -97 64 -146 53 -56 100 -142 137 -249 46 -137 122
-618 126 -797 l2 -108 43 133 c40 123 44 143 53 302 11 174 6 452 -12 630 -15
157 -47 308 -96 460 -109 337 -233 582 -419 832 -85 113 -373 412 -514 533
-143 122 -279 195 -350 188 -31 -3 -31 -4 35 -46 71 -47 179 -142 198 -176 7
-12 14 -63 17 -115 l5 -95 34 -9 c18 -4 45 -15 58 -24 79 -52 94 -253 28 -383
-49 -96 -181 -188 -314 -216 -148 -31 -259 -14 -417 66 -88 44 -111 52 -101
36 54 -81 79 -131 103 -201 22 -66 27 -98 27 -185 1 -132 -16 -202 -87 -345
-82 -166 -194 -287 -352 -382 l-51 -31 -40 27 -40 26 -7 119 c-12 228 -9 270
19 301 14 15 29 40 32 56 13 69 35 41 43 -55 l5 -68 43 57 c55 76 112 191 119
243 3 23 10 42 15 42 5 0 31 -12 59 -26 28 -14 54 -23 57 -19 4 3 -4 25 -16
48 -16 30 -22 59 -22 104 0 76 -23 199 -48 255 -17 39 -108 145 -117 136 -2
-2 11 -33 28 -68 28 -58 32 -75 32 -150 0 -63 -5 -94 -18 -118 -30 -55 -43
-52 -113 24 -67 73 -77 78 -43 20 11 -19 22 -59 25 -88 6 -69 -10 -102 -53
-106 -39 -4 -63 26 -63 81 0 50 -15 77 -44 77 -33 0 -46 -20 -55 -82 -9 -69
-15 -78 -56 -78 -43 0 -55 20 -55 93 0 38 7 68 25 103 l25 49 -65 -67 c-36
-38 -72 -68 -80 -68 -19 0 -43 48 -54 107 -12 64 2 141 38 214 35 70 18 68
-48 -7 -57 -65 -101 -223 -101 -363 0 -20 -9 -55 -20 -76 -11 -22 -16 -41 -11
-43 5 -2 32 8 60 22 64 33 71 33 71 -4 0 -45 36 -132 89 -212 70 -107 76 -110
76 -32 0 44 5 68 16 79 14 14 17 12 27 -23 6 -21 23 -49 37 -62 l25 -23 -6
-176 c-3 -97 -7 -185 -10 -196 -2 -11 -21 -32 -42 -47 l-39 -27 -69 41 c-42
25 -109 81 -170 142 -94 94 -106 111 -163 226 -76 155 -95 234 -88 375 7 133
43 235 123 348 l34 47 -42 -27 c-73 -46 -202 -101 -263 -112 -237 -44 -480 58
-561 234 -33 70 -44 201 -24 274 15 56 65 107 112 116 l35 7 7 96 c6 81 12
103 33 134 30 44 89 94 187 160 l71 48 -40 0 c-22 0 -65 -11 -95 -23z m700
-2071 c45 -60 129 -125 223 -173 67 -35 74 -47 76 -123 1 -69 -13 -79 -33 -25
-16 41 -25 49 -82 77 -77 38 -166 108 -211 166 -26 34 -33 53 -33 88 0 24 4
44 10 44 5 0 28 -24 50 -54z m790 16 c0 -78 -105 -189 -240 -254 -67 -32 -89
-52 -90 -79 0 -8 -7 -24 -15 -35 -13 -17 -14 -11 -15 62 l0 81 73 36 c88 44
180 117 227 180 43 58 60 60 60 9z m-397 -456 c14 -88 14 -102 1 -127 -19 -38
-48 -37 -64 1 -19 46 16 259 39 234 4 -5 15 -54 24 -108z"/>
<path d="M2578 3702 c-21 -23 -46 -59 -58 -82 l-21 -40 27 -36 c15 -19 36 -40
47 -46 19 -10 20 -8 14 61 -5 58 -2 79 14 117 28 63 20 73 -23 26z"/>
<path d="M3300 3687 c16 -43 21 -74 18 -123 -4 -76 7 -80 55 -22 l30 38 -17
39 c-10 21 -38 58 -63 82 l-44 44 21 -58z"/>
</g>
</svg>
