<?xml version="1.0" standalone="no"?>
<!DOCTYPE svg PUBLIC "-//W3C//DTD SVG 20010904//EN"
 "http://www.w3.org/TR/2001/REC-SVG-20010904/DTD/svg10.dtd">
<svg version="1.0" xmlns="http://www.w3.org/2000/svg"
 width="591.000000pt" height="591.000000pt" viewBox="0 0 591.000000 591.000000"
 preserveAspectRatio="xMidYMid meet">

<g transform="translate(0.000000,591.000000) scale(0.100000,-0.100000)"
fill="#000000" stroke="none">
<path d="M2745 5028 c-295 -33 -604 -136 -848 -283 -281 -168 -530 -410 -680
-662 -223 -370 -363 -993 -328 -1451 36 -462 189 -821 470 -1103 258 -257 543
-447 808 -535 90 -31 126 -38 218 -42 132 -5 200 7 293 53 223 112 382 350
382 572 0 143 -80 355 -167 439 -93 91 -309 221 -478 287 -183 73 -424 115
-576 102 l-76 -6 -48 53 c-138 152 -253 352 -297 518 -31 118 -31 327 1 445
28 106 104 259 183 370 36 50 91 128 124 175 90 129 297 331 428 419 201 134
405 218 621 257 155 28 419 26 553 -4 679 -152 1169 -605 1326 -1227 59 -236
78 -495 52 -702 -60 -469 -277 -897 -621 -1221 -131 -124 -122 -121 -199 -78
-156 88 -288 225 -357 371 -54 116 -56 135 -20 160 83 55 94 182 25 299 -11
19 -12 19 -39 -2 -55 -44 -239 -92 -351 -92 -23 0 -45 -4 -48 -9 -11 -17 33
-136 80 -216 26 -44 72 -129 103 -190 100 -194 228 -361 360 -472 82 -69 93
-54 -119 -161 -123 -63 -138 -73 -100 -67 49 8 241 64 319 94 l49 18 69 -39
c173 -102 398 -176 633 -209 92 -13 408 -17 453 -6 l27 7 0 171 0 171 -22 -6
c-50 -14 -345 -19 -448 -7 -102 12 -308 53 -358 72 -24 9 -22 12 49 60 201
138 373 312 499 504 144 220 243 506 280 810 14 115 15 419 0 558 -21 208
-111 438 -246 630 -19 26 -31 47 -26 46 4 0 77 -65 162 -144 85 -79 156 -142
158 -140 6 6 -50 138 -103 245 -362 724 -1128 1187 -1952 1179 -76 -1 -174 -6
-218 -11z m-325 -3116 c145 -90 169 -285 48 -398 -55 -53 -95 -68 -173 -69
-83 0 -131 20 -186 77 -84 86 -91 229 -17 328 71 97 225 126 328 62z"/>
<path d="M3035 4479 c-243 -35 -440 -132 -600 -293 -192 -194 -279 -401 -305
-729 -22 -273 25 -542 126 -726 96 -174 233 -292 421 -361 278 -101 503 -72
755 98 356 240 433 552 221 886 -62 97 -130 165 -268 269 -144 109 -287 251
-335 331 -28 49 -34 69 -35 117 0 53 4 63 57 140 71 106 160 205 215 239 l43
27 -38 7 c-50 8 -184 6 -257 -5z m-165 -620 c22 -23 39 -43 38 -44 -2 0 -29
-9 -61 -19 -83 -25 -154 -86 -196 -168 -117 -229 29 -517 313 -616 82 -29 221
-34 319 -13 57 12 58 14 87 71 17 33 30 61 30 64 0 2 -17 7 -37 11 -158 29
-372 124 -449 199 -49 48 -54 56 -54 97 0 114 99 165 241 123 212 -62 372
-222 424 -424 20 -77 16 -123 -21 -215 -61 -152 -181 -291 -299 -347 -279
-130 -688 88 -831 442 -54 132 -67 205 -68 365 -1 128 2 161 22 229 48 168
174 364 314 490 l61 56 63 -129 c39 -79 79 -146 104 -172z"/>
<path d="M4072 3542 c-184 -66 -230 -302 -84 -434 125 -113 333 -68 403 87 23
49 25 152 5 200 -54 128 -196 192 -324 147z"/>
</g>
</svg>
