<?xml version="1.0" standalone="no"?>
<!DOCTYPE svg PUBLIC "-//W3C//DTD SVG 20010904//EN"
 "http://www.w3.org/TR/2001/REC-SVG-20010904/DTD/svg10.dtd">
<svg version="1.0" xmlns="http://www.w3.org/2000/svg"
 width="591.000000pt" height="591.000000pt" viewBox="0 0 591.000000 591.000000"
 preserveAspectRatio="xMidYMid meet">

<g transform="translate(0.000000,591.000000) scale(0.100000,-0.100000)"
fill="#000000" stroke="none">
<path d="M2897 4537 c-15 -34 -36 -73 -46 -86 -18 -24 -20 -24 -43 -9 -14 9
-33 33 -42 52 -16 35 -19 36 -72 36 -51 0 -57 -2 -97 -44 -58 -61 -87 -67
-140 -27 -94 70 -149 102 -175 104 -24 2 -27 -1 -25 -29 2 -18 19 -70 39 -115
24 -57 37 -106 41 -151 5 -62 4 -68 -20 -92 -25 -25 -29 -26 -162 -26 -107 0
-135 -3 -135 -14 0 -18 41 -78 101 -147 l49 -57 0 -74 c0 -44 -5 -81 -13 -92
-7 -9 -43 -34 -81 -54 -80 -43 -116 -83 -100 -110 6 -9 43 -33 83 -53 83 -42
113 -67 152 -128 57 -88 34 -196 -62 -305 l-43 -49 124 7 c97 5 138 3 183 -9
32 -8 64 -15 72 -15 27 0 73 51 110 121 l37 71 -17 43 c-9 24 -41 72 -72 106
-80 90 -118 175 -118 264 1 94 23 133 129 230 65 59 93 93 117 141 41 83 36
119 -26 171 -25 20 -45 45 -45 54 0 34 59 34 123 2 22 -11 27 -20 27 -53 0
-47 14 -82 41 -98 39 -25 162 -36 238 -23 97 17 117 36 126 111 l7 60 55 16
c64 19 83 14 83 -20 0 -18 -9 -30 -30 -41 -16 -8 -36 -29 -45 -45 -42 -81 11
-182 158 -303 28 -22 56 -59 73 -92 23 -49 26 -64 22 -128 -6 -87 -33 -146
-111 -238 -60 -70 -87 -117 -87 -149 0 -35 57 -135 96 -169 31 -28 42 -32 68
-26 17 4 49 11 71 16 22 4 93 6 158 2 64 -3 117 -2 117 2 0 4 -18 28 -41 52
-51 55 -89 136 -89 188 1 90 80 185 203 243 54 26 67 36 67 55 0 29 -40 67
-100 97 -83 41 -90 52 -90 146 l0 83 58 68 c118 136 116 143 -43 143 -138 0
-168 8 -186 52 -17 41 -6 98 40 214 42 103 49 138 31 149 -17 10 -92 -29 -159
-83 -35 -29 -73 -52 -84 -52 -28 0 -79 34 -102 69 -18 28 -25 31 -77 31 -56 0
-56 0 -82 -44 -46 -79 -73 -70 -125 44 -29 61 -36 70 -59 70 -23 -1 -31 -9
-55 -63z"/>
<path d="M1829 4493 c-12 -13 -14 -163 -16 -867 -2 -529 1 -857 7 -866 7 -11
34 -16 105 -18 53 -2 106 -1 119 2 22 5 208 225 222 261 5 13 -7 15 -76 15
-45 0 -90 4 -100 10 -43 23 -33 113 16 145 23 15 24 21 24 113 l-1 97 -114 83
-115 83 0 58 0 58 54 37 c74 51 146 129 146 159 0 13 -13 36 -31 53 -46 44
-127 170 -135 209 -4 25 -1 43 10 60 16 24 20 25 154 27 137 3 137 3 140 27 3
20 -19 47 -125 147 l-128 123 -71 1 c-55 0 -75 -4 -85 -17z"/>
<path d="M3797 4390 c-126 -121 -151 -155 -126 -171 8 -5 71 -9 141 -9 144 0
158 -6 158 -69 0 -44 -42 -118 -117 -209 -40 -47 -50 -66 -45 -84 7 -28 94
-114 150 -148 l41 -25 0 -65 0 -65 -114 -83 -115 -83 0 -89 c0 -87 0 -88 35
-123 28 -28 35 -43 35 -74 0 -60 -20 -73 -117 -73 -44 0 -82 -3 -86 -6 -6 -6
185 -251 207 -266 17 -12 205 -9 227 2 19 10 19 31 19 866 0 570 -3 862 -10
875 -9 16 -22 19 -84 19 l-73 0 -126 -120z"/>
<path d="M4197 4403 c-4 -3 -7 -74 -7 -157 l0 -151 98 -71 c54 -39 104 -68
110 -66 9 3 12 44 12 142 l0 138 -87 73 c-49 40 -95 78 -104 86 -9 7 -19 10
-22 6z"/>
<path d="M1593 4322 l-92 -77 0 -142 c-1 -78 3 -144 7 -147 5 -3 55 28 110 69
l102 75 0 150 c0 136 -2 150 -17 149 -10 0 -59 -35 -110 -77z"/>
<path d="M1278 4044 l-98 -64 0 -362 0 -363 105 -68 c57 -38 109 -66 114 -62
8 4 11 162 11 496 0 459 -1 489 -17 488 -10 0 -62 -29 -115 -65z"/>
<path d="M4500 3615 c0 -334 3 -495 10 -495 6 0 58 32 115 70 l105 71 -2 361
-3 361 -100 63 c-55 35 -106 64 -112 64 -10 0 -13 -106 -13 -495z"/>
<path d="M2784 4054 c-41 -20 -146 -120 -173 -165 -33 -54 -28 -99 18 -156 21
-26 55 -63 75 -82 l36 -35 61 29 c59 29 89 62 89 100 0 15 -28 46 -74 83 -14
11 -11 17 24 48 66 60 74 139 18 178 -28 20 -35 20 -74 0z"/>
<path d="M3060 4063 c-25 -9 -50 -46 -50 -76 0 -41 27 -94 61 -118 16 -11 29
-24 29 -30 0 -5 -18 -20 -40 -34 -33 -21 -40 -31 -40 -58 0 -45 18 -67 84
-102 l55 -30 66 65 c71 70 95 105 95 143 0 32 -48 104 -106 158 -76 70 -120
94 -154 82z"/>
<path d="M1594 3842 l-99 -68 -3 -140 -3 -141 107 -83 c65 -51 109 -79 115
-73 13 13 7 565 -7 570 -5 2 -55 -27 -110 -65z"/>
<path d="M4190 3619 c0 -253 2 -290 15 -285 17 6 197 146 207 161 4 5 8 69 8
142 l0 131 -104 71 c-58 39 -109 71 -115 71 -8 0 -11 -90 -11 -291z"/>
<path d="M2502 3763 c-11 -20 -1 -111 18 -170 23 -70 83 -174 125 -217 33 -33
45 -54 54 -96 26 -119 93 -200 199 -240 51 -19 58 -20 98 -6 61 20 125 67 158
114 28 40 56 118 56 155 0 11 23 44 50 73 88 93 167 297 146 378 -11 46 -16
42 -181 -142 -37 -42 -39 -47 -37 -103 2 -33 0 -64 -4 -70 -3 -5 -23 17 -43
49 -65 100 -159 202 -186 202 -33 0 -121 -95 -195 -211 -18 -27 -35 -47 -39
-44 -3 4 -4 35 -3 70 l4 63 -97 106 c-54 58 -101 106 -106 106 -4 0 -12 -8
-17 -17z m518 -309 c60 -51 90 -140 66 -198 -20 -48 -68 -76 -129 -76 -129 0
-181 89 -121 209 45 89 122 117 184 65z"/>
<path d="M2930 3443 c-60 -18 -90 -56 -90 -113 0 -46 24 -85 65 -104 95 -45
197 55 152 150 -23 47 -85 80 -127 67z"/>
<path d="M1500 3136 l0 -164 95 -76 c52 -42 101 -76 110 -76 13 0 15 22 15
149 l0 149 -97 91 c-53 50 -103 91 -110 91 -10 0 -13 -35 -13 -164z"/>
<path d="M4282 3212 l-92 -87 0 -152 c0 -83 3 -154 8 -156 6 -5 113 76 185
139 l27 24 0 160 c0 146 -2 160 -17 160 -10 -1 -60 -40 -111 -88z"/>
<path d="M2780 2915 l0 -95 173 2 172 3 0 90 0 90 -172 3 -173 2 0 -95z"/>
<path d="M2725 2770 c-27 -30 -10 -68 47 -105 l47 -30 0 -247 1 -248 135 0
135 0 0 248 0 249 37 24 c20 13 45 36 56 51 19 25 19 28 3 52 l-16 26 -214 0
c-201 0 -214 -1 -231 -20z"/>
<path d="M1530 2445 c0 -157 2 -285 5 -285 11 0 300 192 307 204 11 19 -14 59
-54 85 l-37 24 59 64 c58 62 79 101 65 122 -4 7 -51 11 -120 11 l-114 0 -21
30 c-17 23 -29 30 -56 30 l-34 0 0 -285z"/>
<path d="M4287 2700 l-18 -29 -117 -3 -117 -3 -3 -28 c-3 -22 9 -40 63 -96 59
-61 64 -70 46 -76 -25 -8 -81 -71 -81 -91 0 -13 264 -195 306 -211 12 -4 14
37 14 281 l0 286 -38 0 c-31 0 -41 -5 -55 -30z"/>
<path d="M2040 2434 c-49 -27 -96 -69 -111 -96 -7 -14 5 -37 56 -105 70 -93
165 -270 165 -306 0 -43 14 -52 60 -38 57 17 115 72 134 127 l15 46 -41 81
c-71 143 -193 317 -221 317 -7 0 -32 -12 -57 -26z"/>
<path d="M3756 2409 c-48 -53 -121 -169 -176 -278 -36 -73 -35 -102 5 -162 28
-43 76 -75 126 -84 36 -7 36 -6 42 32 13 75 100 235 190 346 l47 57 -22 30
c-24 33 -109 94 -144 104 -17 5 -31 -4 -68 -45z"/>
<path d="M1590 2136 c-140 -84 -256 -158 -257 -163 -7 -20 44 -25 285 -30 270
-6 312 0 369 50 19 17 33 39 33 51 0 17 -101 158 -174 243 -2 2 -117 -66 -256
-151z"/>
<path d="M3971 2174 c-71 -91 -90 -121 -85 -138 10 -31 23 -45 68 -69 39 -21
53 -22 301 -22 261 0 315 5 315 28 -1 6 -98 71 -217 142 -120 72 -234 140
-254 153 l-37 22 -91 -116z"/>
<path d="M2772 2028 c-22 -102 -25 -161 -9 -199 l15 -36 86 -6 c47 -4 125 -4
172 -1 111 9 119 19 111 137 -3 45 -11 99 -17 120 l-11 37 -168 0 -168 0 -11
-52z"/>
<path d="M2015 1973 c-27 -14 -160 -119 -241 -191 -31 -26 -32 -31 -48 -171
-9 -80 -13 -148 -8 -153 5 -5 84 51 175 124 l167 133 0 138 c0 75 -3 137 -7
137 -5 -1 -21 -8 -38 -17z"/>
<path d="M3847 1983 c-4 -3 -7 -64 -7 -134 l0 -127 171 -138 c113 -91 173
-134 178 -126 8 13 -22 282 -33 300 -11 18 -182 161 -237 198 -53 35 -61 38
-72 27z"/>
<path d="M2258 1799 c-117 -120 -223 -281 -268 -407 -47 -129 16 -103 197 81
181 185 193 202 193 292 0 116 -33 125 -122 34z"/>
<path d="M3537 1853 c-4 -3 -7 -44 -7 -89 l0 -83 52 -63 c140 -168 321 -328
345 -304 11 11 -15 96 -53 174 -43 89 -161 248 -237 320 -51 48 -83 62 -100
45z"/>
<path d="M2590 1776 c0 -27 11 -48 49 -93 83 -99 297 -303 317 -303 11 0 86
69 186 172 165 168 168 173 168 215 l0 43 -44 0 c-36 0 -50 -6 -89 -40 l-45
-40 -181 0 -181 0 -44 40 c-37 35 -49 40 -90 40 -46 0 -46 0 -46 -34z"/>
<path d="M2398 1567 c-20 -28 -51 -71 -68 -95 l-32 -43 36 -34 c41 -38 113
-58 193 -53 l48 3 -1 40 c0 22 -18 84 -39 138 -37 93 -39 97 -69 97 -26 0 -37
-9 -68 -53z"/>
<path d="M3401 1598 c-5 -13 -23 -57 -39 -98 -60 -150 -54 -166 57 -158 79 6
157 39 173 73 8 19 1 35 -57 114 -58 79 -71 91 -96 91 -21 0 -32 -6 -38 -22z"/>
</g>
</svg>
