<?xml version="1.0" standalone="no"?>
<!DOCTYPE svg PUBLIC "-//W3C//DTD SVG 20010904//EN"
 "http://www.w3.org/TR/2001/REC-SVG-20010904/DTD/svg10.dtd">
<svg version="1.0" xmlns="http://www.w3.org/2000/svg"
 width="591.000000pt" height="591.000000pt" viewBox="0 0 591.000000 591.000000"
 preserveAspectRatio="xMidYMid meet">

<g transform="translate(0.000000,591.000000) scale(0.100000,-0.100000)"
fill="#000000" stroke="none">
<path d="M2873 5285 c-31 -31 -35 -40 -32 -78 l4 -42 -47 3 c-42 3 -51 0 -78
-26 -85 -85 14 -229 123 -177 42 20 72 74 63 115 -5 28 -4 28 28 23 18 -3 43
0 54 6 19 10 20 9 13 -17 -20 -69 49 -149 118 -138 41 6 88 48 96 86 8 36 -17
94 -49 115 -17 11 -40 16 -70 14 l-43 -4 4 35 c5 43 -25 96 -63 110 -49 19
-84 12 -121 -25z"/>
<path d="M1924 5101 c-101 -26 -203 -176 -204 -299 0 -76 19 -124 68 -175 63
-66 97 -81 177 -81 111 -1 155 34 155 124 0 77 -39 104 -86 59 -34 -32 -74
-19 -74 22 0 83 65 117 117 62 14 -16 40 -57 56 -93 27 -56 31 -76 32 -154 0
-88 1 -90 30 -108 23 -14 46 -18 104 -16 l75 3 9 35 c13 50 2 251 -18 340 -29
128 -91 206 -204 258 -60 27 -176 39 -237 23z"/>
<path d="M3777 5091 c-88 -29 -169 -98 -207 -176 -30 -61 -63 -275 -57 -362 8
-106 14 -113 95 -113 44 1 78 7 100 18 l33 18 2 94 c2 78 7 105 28 150 37 80
74 120 110 120 53 0 90 -96 47 -123 -17 -11 -40 -4 -80 25 -43 31 -80 -46 -56
-116 20 -61 56 -81 141 -80 79 1 113 14 172 66 58 50 79 101 80 188 0 68 -3
81 -37 140 -37 66 -93 128 -137 150 -42 22 -169 22 -234 1z"/>
<path d="M2545 5021 c-64 -27 -82 -114 -32 -157 40 -34 90 -32 128 5 47 48 38
116 -21 146 -32 17 -45 18 -75 6z"/>
<path d="M3300 5023 c-54 -20 -81 -83 -56 -132 20 -37 44 -51 88 -51 66 0 110
80 78 141 -19 34 -74 55 -110 42z"/>
<path d="M2763 4914 c-10 -4 -13 -62 -13 -240 l0 -234 -55 0 -55 0 -2 177 -3
178 -27 13 c-29 13 -63 4 -80 -22 -4 -6 -8 -89 -8 -183 l0 -173 -160 0 c-150
0 -164 2 -208 24 l-47 24 -63 -26 -63 -26 3 -70 3 -70 70 -22 70 -21 35 24
c33 22 43 23 197 23 l163 0 0 -670 0 -670 60 0 60 0 0 670 0 670 55 0 55 0 0
-670 0 -670 55 0 55 0 0 670 0 670 90 0 90 0 0 -670 0 -670 55 0 55 0 0 670 0
670 55 0 55 0 0 -670 0 -670 65 0 65 0 0 670 0 670 161 0 c152 0 162 -1 195
-24 l35 -23 72 22 72 22 3 67 3 67 -65 29 -65 30 -43 -25 c-41 -24 -51 -25
-210 -25 l-168 0 0 180 0 180 -26 16 c-23 16 -28 16 -60 1 l-34 -17 0 -175 0
-175 -55 0 -55 0 -2 238 -3 237 -38 3 c-67 6 -67 6 -67 -249 l0 -229 -90 0
-90 0 -2 238 -3 237 -40 2 c-22 1 -46 0 -52 -3z"/>
<path d="M2200 4267 c-30 -10 -41 -24 -80 -103 -67 -135 -126 -211 -315 -404
-290 -298 -576 -675 -690 -911 -61 -127 -89 -266 -89 -444 -1 -152 16 -228 74
-350 118 -246 370 -408 751 -485 283 -57 625 -161 762 -232 57 -30 86 -52 106
-82 26 -38 71 -120 71 -129 0 -3 -20 15 -44 39 -49 50 -74 54 -124 24 -44 -27
-72 -89 -72 -163 0 -92 38 -159 118 -209 19 -11 84 -63 145 -115 62 -52 119
-99 128 -104 13 -6 38 10 110 71 52 44 129 105 172 136 116 84 157 174 127
284 -14 53 -76 120 -111 120 -31 0 -84 -33 -99 -60 -6 -12 -14 -20 -16 -17 -8
8 44 104 76 140 77 88 384 192 920 312 244 55 397 132 541 275 79 79 103 110
137 180 86 175 105 351 63 582 -23 125 -33 153 -87 261 -114 226 -439 647
-689 893 -151 149 -238 260 -291 372 -20 42 -39 84 -44 92 -10 21 -66 39 -122
39 -101 2 -113 -64 -35 -192 24 -39 27 -50 17 -62 -28 -34 -12 -161 42 -325
50 -152 91 -225 194 -342 158 -180 287 -431 359 -701 35 -128 34 -216 -2 -288
-29 -56 -84 -102 -137 -115 -26 -6 -28 -5 -21 17 4 13 8 58 8 100 1 109 -37
185 -147 295 -88 88 -206 157 -290 169 -90 14 -220 -38 -320 -126 -44 -40 -53
-45 -49 -26 7 26 153 173 183 182 29 9 25 38 -9 58 -26 15 -71 17 -468 17
-419 0 -439 -1 -470 -20 -18 -11 -33 -24 -33 -29 0 -6 20 -24 44 -40 74 -51
178 -162 165 -176 -2 -2 -30 18 -62 45 -104 85 -218 127 -310 115 -112 -16
-273 -127 -357 -247 -73 -104 -98 -211 -70 -307 5 -19 9 -36 7 -37 -1 -2 -23
6 -47 17 -141 63 -178 193 -116 413 75 271 192 493 365 694 97 113 148 209
196 367 42 138 53 226 36 278 -11 32 -10 40 15 79 54 86 60 153 15 177 -26 14
-87 13 -131 -2z m-33 -439 c-66 -133 -127 -227 -288 -439 -106 -141 -173 -241
-260 -387 -125 -209 -159 -320 -159 -517 0 -197 40 -317 139 -416 92 -91 205
-132 369 -133 72 -1 91 -4 87 -14 -3 -8 -5 -18 -5 -23 0 -15 -230 -11 -295 6
-251 64 -380 256 -378 565 2 276 120 532 424 921 148 189 334 439 384 516 22
34 41 60 44 58 2 -2 -26 -64 -62 -137z m1885 -368 c192 -245 286 -385 353
-525 120 -248 151 -445 104 -649 -64 -276 -236 -402 -542 -394 -103 3 -112 5
-115 23 -2 19 4 20 96 21 311 4 482 177 499 504 7 128 -14 262 -57 363 -64
154 -242 432 -421 662 -109 140 -188 267 -250 401 -21 46 -39 87 -39 90 0 3
49 -63 110 -148 60 -84 178 -241 262 -348z m143 25 c365 -396 575 -788 575
-1070 0 -351 -193 -596 -510 -651 -102 -18 -300 -15 -390 6 -25 6 -55 12 -67
15 -14 3 -23 13 -23 25 0 18 4 19 48 12 26 -4 124 -7 217 -7 147 0 181 3 250
23 111 32 184 74 253 146 100 104 140 206 149 382 7 130 -8 212 -62 343 -90
219 -341 592 -645 958 l-64 78 93 -85 c51 -46 131 -125 176 -175z m-2324 128
c-339 -411 -588 -809 -646 -1032 -20 -78 -20 -277 0 -356 51 -199 171 -319
385 -387 67 -21 94 -23 260 -23 102 0 200 3 218 7 27 6 32 5 32 -12 0 -23 -34
-34 -165 -51 -108 -14 -286 -6 -370 16 -260 71 -409 258 -445 558 -8 72 -9
116 0 169 36 237 203 552 444 839 96 114 354 379 369 379 4 0 -33 -48 -82
-107z m604 -1013 c81 -39 106 -111 65 -190 -22 -43 -80 -80 -125 -80 -30 0
-75 43 -75 71 0 20 15 26 25 10 3 -5 19 -12 36 -16 69 -15 97 78 41 135 -57
56 -133 47 -186 -23 -82 -108 -74 -220 23 -294 l41 -32 -77 -25 -78 -24 -9 21
c-41 104 -48 254 -16 326 27 60 73 115 112 135 47 24 159 17 223 -14z m1179
10 c44 -21 98 -91 121 -156 26 -71 16 -193 -24 -296 l-10 -27 -76 26 -76 25
47 41 c81 72 93 136 43 235 -37 75 -78 107 -136 107 -75 0 -131 -79 -101 -142
17 -36 49 -40 95 -13 l35 21 -6 -28 c-4 -15 -19 -39 -33 -52 -45 -39 -123 -14
-163 52 -27 44 -27 116 1 151 55 70 197 98 283 56z m-864 -442 c22 -51 56
-206 47 -215 -15 -15 -86 148 -101 232 -4 22 -10 49 -13 60 -11 40 44 -24 67
-77z m380 20 c-14 -72 -51 -170 -81 -213 l-21 -30 6 56 c3 31 15 85 26 120 19
63 67 146 77 135 3 -3 0 -34 -7 -68z m-631 -104 c-14 -17 -30 -18 -53 -1 -16
12 -15 15 21 39 l38 25 3 -24 c2 -13 -2 -31 -9 -39z m883 19 c7 -9 3 -16 -17
-25 -24 -11 -29 -10 -41 7 -8 10 -14 29 -14 42 l0 24 31 -18 c17 -10 35 -24
41 -30z m-767 -202 c-9 -8 -55 50 -55 68 0 8 12 30 28 50 l27 36 3 -74 c2 -40
0 -76 -3 -80z m655 68 c0 -5 -13 -23 -30 -41 l-29 -33 -1 79 0 79 30 -38 c17
-21 30 -42 30 -46z m-945 11 c0 -33 -2 -35 -35 -35 -29 0 -36 4 -38 23 -6 40
5 54 40 50 30 -3 33 -6 33 -38z m1249 18 c14 -23 -3 -52 -33 -56 -42 -6 -67
38 -39 66 17 17 58 11 72 -10z m-1074 -213 c0 -63 -1 -65 -20 -55 -25 13 -42
53 -33 77 9 27 24 43 39 43 11 0 14 -17 14 -65z m862 48 c33 -30 17 -103 -24
-103 -19 0 -20 4 -14 46 3 26 6 53 6 60 0 18 9 18 32 -3z m-619 -37 c17 -16
36 -56 56 -122 33 -104 65 -257 59 -276 -3 -7 -27 26 -55 73 -107 178 -143
271 -124 322 13 33 30 34 64 3z m401 8 c22 -57 -23 -177 -129 -344 l-47 -75 6
60 c6 61 20 123 57 249 28 95 94 159 113 110z"/>
</g>
</svg>
