<?xml version="1.0" standalone="no"?>
<!DOCTYPE svg PUBLIC "-//W3C//DTD SVG 20010904//EN"
 "http://www.w3.org/TR/2001/REC-SVG-20010904/DTD/svg10.dtd">
<svg version="1.0" xmlns="http://www.w3.org/2000/svg"
 width="591.000000pt" height="591.000000pt" viewBox="0 0 591.000000 591.000000"
 preserveAspectRatio="xMidYMid meet">

<g transform="translate(0.000000,591.000000) scale(0.100000,-0.100000)"
fill="#CCA419" stroke="none">
<path d="M2635 5042 c-170 -262 -331 -498 -356 -524 -41 -43 -51 -48 -90 -48
-38 0 -58 9 -144 67 -183 123 -372 333 -479 533 -25 47 -46 82 -46 78 0 -8
159 -767 166 -790 5 -16 18 -18 99 -18 l94 0 220 -145 c122 -80 226 -146 231
-147 6 -2 19 20 29 47 36 101 104 212 165 270 12 11 113 134 225 273 166 208
206 252 216 240 7 -7 95 -116 195 -243 101 -126 209 -257 240 -291 57 -61 128
-185 151 -261 7 -24 14 -43 16 -43 2 0 106 68 232 150 l228 150 91 0 c50 0 93
4 97 9 8 14 166 764 162 774 -1 5 -16 -15 -31 -44 -113 -210 -301 -417 -498
-549 -102 -69 -142 -76 -198 -37 -22 15 -137 182 -361 522 -180 275 -331 501
-336 502 -4 1 -147 -213 -318 -475z"/>
<path d="M2940 4379 c-56 -132 -218 -565 -212 -570 4 -4 56 -41 115 -83 l108
-76 110 76 c61 42 113 82 115 89 4 10 -209 571 -221 583 -2 3 -9 -6 -15 -19z"/>
<path d="M1630 4090 c-100 -96 -151 -152 -144 -157 96 -67 1033 -759 1033
-763 0 -3 -157 -110 -350 -238 l-350 -232 87 -113 c48 -61 118 -154 157 -204
39 -51 75 -93 80 -93 5 0 185 122 400 271 216 149 397 273 403 276 7 2 189
-118 404 -268 216 -149 400 -272 408 -273 14 -1 322 385 322 403 0 3 -156 109
-345 235 -190 126 -345 232 -345 236 0 3 224 171 498 372 274 201 508 374 520
385 l23 18 -156 148 c-97 93 -160 145 -168 141 -7 -4 -268 -176 -580 -381
-313 -206 -575 -372 -582 -369 -7 2 -270 174 -583 380 -314 207 -572 376 -574
376 -1 0 -73 -68 -158 -150z m785 -489 c283 -194 522 -354 530 -357 8 -4 231
142 545 356 338 230 536 360 546 356 9 -4 14 -15 12 -31 -2 -20 -97 -90 -503
-375 -275 -194 -506 -358 -514 -365 -11 -11 5 -26 103 -91 64 -42 116 -82 116
-88 0 -17 -29 -56 -42 -56 -5 0 -65 38 -132 84 l-123 85 -123 -85 c-68 -46
-129 -84 -136 -84 -18 0 -49 61 -36 69 5 3 60 40 122 80 102 69 110 76 93 89
-10 7 -242 171 -515 363 -472 332 -498 352 -498 381 0 25 3 29 19 25 11 -2
252 -163 536 -356z"/>
<path d="M465 3935 c-22 -8 -42 -15 -45 -15 -3 0 39 -24 93 -53 149 -79 269
-170 410 -306 100 -98 145 -151 211 -250 130 -195 252 -420 332 -608 9 -22 14
-20 172 80 187 117 177 98 113 232 -43 89 -97 165 -193 271 -78 86 -110 147
-111 215 -1 62 22 95 93 131 l53 26 -44 32 c-114 84 -358 167 -684 230 -145
28 -345 36 -400 15z"/>
<path d="M5100 3930 c-352 -60 -680 -170 -760 -255 l-22 -23 44 -20 c24 -10
56 -34 72 -53 25 -29 28 -39 24 -84 -6 -73 -40 -134 -125 -227 -41 -45 -93
-108 -115 -141 -47 -69 -108 -197 -108 -225 0 -14 30 -38 103 -84 56 -36 128
-82 160 -102 l57 -37 27 63 c70 165 214 423 336 601 139 204 379 413 605 526
46 23 80 45 78 50 -21 33 -213 39 -376 11z"/>
<path d="M1487 2476 c-126 -79 -229 -147 -228 -152 0 -10 270 -314 279 -314 3
0 106 66 229 146 l223 146 -51 62 c-29 33 -88 105 -133 159 -44 53 -83 97 -86
96 -3 0 -108 -65 -233 -143z"/>
<path d="M4057 2473 c-68 -82 -126 -154 -131 -160 -10 -17 433 -309 450 -297
25 18 269 297 269 307 0 9 -348 232 -447 288 -14 8 -38 -16 -141 -138z"/>
<path d="M2635 2235 l-99 -85 -103 0 -104 0 -45 -47 c-108 -111 -142 -247
-114 -462 8 -61 15 -80 42 -112 165 -191 332 -395 365 -444 58 -86 159 -271
274 -499 l101 -199 118 230 c119 233 219 413 273 492 33 48 288 354 348 416
l38 40 12 136 c12 130 11 138 -10 210 -27 87 -49 127 -110 192 l-44 47 -104 0
-104 0 -100 85 c-67 57 -108 85 -124 85 -14 0 -25 -2 -25 -5 0 -3 20 -41 45
-83 144 -245 179 -519 93 -721 -23 -55 -195 -227 -260 -261 -47 -25 -47 -25
-80 -6 -65 38 -150 111 -208 179 -83 98 -105 170 -105 337 1 89 6 145 19 195
24 91 82 225 129 298 20 31 37 60 37 62 0 3 -12 5 -27 5 -20 -1 -56 -25 -128
-85z"/>
<path d="M1163 2222 c-29 -18 -43 -107 -24 -154 14 -33 361 -433 375 -432 7 1
80 47 164 103 83 55 158 101 167 101 17 0 44 -49 56 -100 16 -69 -33 -172
-105 -221 -20 -13 -36 -28 -36 -33 0 -12 104 1 160 19 58 19 118 69 136 111
32 77 6 183 -67 274 l-32 40 75 78 c75 77 103 131 80 154 -7 7 -102 -42 -298
-152 l-288 -162 -25 28 c-27 32 -323 354 -325 354 -1 0 -6 -4 -13 -8z"/>
<path d="M4575 2064 c-82 -91 -161 -176 -175 -189 l-25 -24 -284 159 c-155 88
-287 160 -291 160 -16 0 -18 -27 -5 -65 9 -27 37 -62 86 -107 l72 -67 -33 -38
c-37 -42 -78 -126 -87 -176 -19 -119 89 -217 261 -234 l61 -5 -57 51 c-64 58
-98 119 -98 177 0 46 32 122 55 130 10 4 73 -31 175 -100 88 -58 162 -106 165
-106 2 0 88 97 190 216 l185 215 0 62 c0 58 -18 108 -38 107 -4 -1 -74 -75
-157 -166z"/>
<path d="M1201 1733 c-80 -92 -131 -234 -131 -364 0 -82 169 -792 203 -851 18
-31 29 -38 62 -43 22 -3 65 -9 95 -13 l55 -8 141 95 142 96 27 98 28 98 -140
142 c-76 78 -151 163 -166 189 -52 90 -69 204 -44 290 l14 44 -114 135 c-63
74 -118 135 -122 137 -5 2 -27 -19 -50 -45z"/>
<path d="M4536 1645 c-84 -100 -115 -142 -110 -154 16 -35 16 -179 0 -233 -22
-75 -54 -118 -207 -280 -122 -128 -135 -146 -128 -168 4 -14 17 -57 28 -95
l21 -71 136 -93 136 -94 72 7 c110 10 128 17 152 62 12 21 61 203 110 404 73
300 89 378 88 440 -1 140 -49 270 -132 361 l-48 52 -118 -138z"/>
</g>
</svg>
