<?xml version="1.0" standalone="no"?>
<!DOCTYPE svg PUBLIC "-//W3C//DTD SVG 20010904//EN"
 "http://www.w3.org/TR/2001/REC-SVG-20010904/DTD/svg10.dtd">
<svg version="1.0" xmlns="http://www.w3.org/2000/svg"
 width="591.000000pt" height="591.000000pt" viewBox="0 0 591.000000 591.000000"
 preserveAspectRatio="xMidYMid meet">

<g transform="translate(0.000000,591.000000) scale(0.100000,-0.100000)"
fill="#CCA419" stroke="none">
<path d="M2868 5257 c-113 -229 -186 -355 -336 -577 -136 -201 -229 -326 -306
-407 l-49 -53 -61 43 c-33 24 -139 97 -235 162 -139 95 -172 113 -166 94 18
-58 158 -406 209 -516 30 -67 78 -160 106 -208 27 -48 47 -92 43 -99 -4 -6
-55 -80 -115 -163 -59 -84 -108 -157 -108 -162 0 -15 181 -92 194 -82 6 5 54
66 106 135 148 195 179 199 334 42 100 -101 144 -167 184 -278 22 -62 26 -89
25 -183 -1 -288 -134 -485 -311 -461 -59 8 -100 31 -124 72 -11 19 -21 34 -22
34 -6 0 -106 -131 -106 -139 0 -15 585 -582 588 -571 2 6 -9 37 -26 68 -38 73
-56 158 -47 231 l6 56 137 138 c171 172 165 170 278 55 44 -46 106 -111 138
-146 l58 -63 -4 -93 c-3 -82 -8 -101 -41 -169 -20 -42 -37 -81 -37 -88 0 -10
589 563 598 581 1 3 -23 36 -54 73 l-56 67 -21 -31 c-40 -58 -71 -74 -145 -74
-55 0 -75 5 -113 27 -81 48 -135 142 -165 289 -35 174 -4 340 91 485 55 83
176 199 229 219 70 27 96 10 211 -141 54 -71 101 -133 106 -138 6 -7 178 62
198 80 2 2 -50 79 -116 172 l-120 169 45 74 c54 87 147 288 225 484 68 171
107 275 103 275 -1 0 -108 -72 -237 -160 l-234 -161 -44 48 c-107 117 -317
411 -454 638 -44 72 -123 219 -177 327 l-98 197 -84 -172z m277 -1072 c98
-170 180 -313 182 -317 2 -3 -78 -141 -177 -305 -124 -205 -186 -298 -198
-298 -12 0 -66 82 -174 260 -86 143 -167 278 -179 301 l-22 41 178 309 c195
338 195 338 205 327 4 -4 87 -147 185 -318z"/>
<path d="M1390 4309 c-121 -24 -214 -103 -336 -289 -138 -210 -214 -387 -214
-501 0 -50 62 -294 111 -437 55 -157 116 -272 194 -362 35 -41 64 -82 65 -90
0 -8 -23 -34 -50 -58 -84 -72 -97 -122 -50 -197 23 -37 97 -80 155 -90 l40 -7
-31 33 c-64 69 -67 103 -10 139 44 26 60 25 103 -7 77 -59 211 -35 296 52 46
47 61 100 53 184 -8 77 -14 89 -83 166 -68 76 -173 223 -213 297 -64 118 -89
312 -56 434 17 66 60 144 107 198 36 40 42 43 121 55 123 19 161 49 187 148
32 119 -59 258 -201 311 -68 25 -132 32 -188 21z m167 -1555 c110 -71 61 -247
-68 -247 -74 0 -135 71 -125 147 12 99 114 152 193 100z"/>
<path d="M4390 4307 c-189 -42 -302 -195 -259 -352 22 -79 81 -115 212 -131
51 -6 61 -11 93 -48 48 -56 102 -168 115 -241 22 -121 -8 -289 -74 -407 -43
-77 -135 -204 -218 -301 -65 -75 -73 -101 -67 -207 3 -59 8 -75 34 -107 17
-21 57 -53 90 -71 52 -29 66 -32 120 -29 47 2 72 9 103 30 22 15 48 27 57 27
27 0 84 -49 84 -72 0 -26 -35 -83 -63 -103 l-21 -15 21 0 c12 0 47 9 77 20 61
23 107 69 126 124 10 33 9 41 -13 79 -14 23 -43 57 -66 75 -23 18 -41 41 -41
51 0 9 30 53 66 97 109 130 180 293 256 584 35 136 40 165 35 235 -7 132 -66
267 -209 481 -99 148 -164 214 -253 255 -74 34 -133 41 -205 26z m75 -1541
c93 -39 102 -196 13 -242 -62 -32 -144 -11 -173 46 -35 69 -9 161 56 193 42
20 60 21 104 3z"/>
<path d="M1630 3158 c-33 -18 -46 -31 -48 -50 -4 -33 20 -43 58 -23 16 8 43
15 60 15 62 0 192 -87 226 -151 21 -41 18 -115 -7 -159 -11 -20 -39 -49 -62
-63 l-41 -27 -2 -69 c-4 -163 -66 -245 -232 -308 -21 -7 27 -56 546 -553 l569
-544 -251 -258 c-138 -142 -252 -262 -254 -267 -1 -4 52 -56 120 -114 l122
-106 65 61 c36 34 151 143 254 242 103 100 192 182 197 184 6 2 125 -107 265
-243 l255 -247 112 98 c62 54 120 104 128 111 13 11 -21 49 -243 271 -141 141
-257 260 -257 263 0 6 1058 1024 1113 1071 l31 26 -44 12 c-91 24 -158 83
-199 175 -7 17 -16 69 -18 116 l-6 85 -35 20 c-70 37 -103 116 -82 193 14 53
58 100 134 146 68 40 120 45 167 18 27 -16 30 -16 46 0 24 23 10 45 -48 75
-63 33 -169 27 -254 -14 -114 -55 -225 -197 -225 -285 0 -53 19 -137 41 -180
18 -36 103 -119 121 -119 5 0 8 -11 6 -26 -2 -18 -146 -171 -503 -534 l-500
-510 -507 513 c-279 281 -507 519 -508 528 0 9 24 34 53 55 66 50 103 120 116
224 9 71 8 77 -19 136 -36 75 -128 165 -207 202 -84 38 -191 43 -253 10z
m1004 -1575 c169 -164 312 -299 316 -301 5 -2 147 131 315 295 304 296 344
327 366 291 5 -7 9 -19 9 -27 0 -8 -137 -152 -305 -321 -168 -170 -305 -312
-305 -317 0 -5 32 -40 71 -78 39 -39 129 -132 201 -208 l131 -138 -23 -24
c-13 -14 -31 -25 -39 -25 -9 0 -106 90 -216 200 l-200 200 -200 -200 c-110
-110 -206 -200 -213 -200 -22 0 -62 31 -62 49 0 9 91 107 202 218 l201 201
-304 312 c-167 171 -306 318 -307 326 -6 26 7 44 31 44 18 0 102 -75 331 -297z"/>
<path d="M1348 2075 c-46 -90 -87 -160 -100 -169 -21 -13 -50 -10 -278 29
-140 23 -256 42 -257 41 -1 -1 76 -83 172 -183 95 -99 181 -196 191 -214 10
-19 22 -59 29 -89 13 -68 34 -76 64 -25 42 72 144 92 280 55 129 -36 205 -84
246 -155 21 -35 27 -62 32 -132 7 -102 -13 -196 -70 -338 -19 -47 -31 -85 -26
-85 15 0 121 104 151 149 40 60 96 119 128 135 77 40 394 35 510 -8 10 -3 28
12 53 43 20 27 37 51 37 54 0 3 -113 112 -251 242 l-250 238 -52 -18 c-29 -10
-93 -20 -147 -22 -104 -5 -141 8 -175 61 -30 45 -39 143 -24 257 7 57 14 106
14 109 0 6 -190 180 -196 180 -3 0 -39 -70 -81 -155z"/>
<path d="M4376 2143 l-97 -87 8 -51 c4 -27 8 -102 8 -165 0 -104 -2 -119 -24
-154 -14 -21 -39 -44 -57 -52 -50 -21 -170 -18 -248 7 l-67 20 -63 -58 c-34
-32 -149 -139 -254 -237 l-191 -179 19 -26 c10 -14 29 -38 42 -53 l23 -27 75
20 c64 17 99 20 240 17 219 -5 226 -8 339 -167 39 -54 138 -147 147 -138 2 2
-14 48 -36 103 -69 177 -84 350 -37 440 49 93 236 184 377 184 73 0 155 -49
172 -102 2 -6 13 -8 26 -4 17 6 22 15 22 44 0 76 39 132 226 321 173 177 175
180 138 174 -22 -3 -140 -23 -264 -44 -150 -25 -230 -34 -242 -28 -9 5 -53 81
-98 169 -44 88 -82 160 -83 160 -2 0 -47 -39 -101 -87z"/>
</g>
</svg>
