<?xml version="1.0" standalone="no"?>
<!DOCTYPE svg PUBLIC "-//W3C//DTD SVG 20010904//EN"
 "http://www.w3.org/TR/2001/REC-SVG-20010904/DTD/svg10.dtd">
<svg version="1.0" xmlns="http://www.w3.org/2000/svg"
 width="591.000000pt" height="591.000000pt" viewBox="0 0 591.000000 591.000000"
 preserveAspectRatio="xMidYMid meet">

<g transform="translate(0.000000,591.000000) scale(0.100000,-0.100000)"
fill="#CCA419" stroke="none">
<path d="M3976 5287 c66 -46 111 -98 143 -167 21 -45 26 -70 26 -136 l0 -81
50 -24 c56 -27 107 -92 126 -162 15 -57 5 -175 -19 -231 -31 -68 -164 -231
-214 -260 -96 -56 -215 -55 -296 4 -88 63 -232 130 -281 130 -10 0 12 -29 57
-75 86 -87 115 -145 115 -226 0 -72 -34 -133 -101 -182 -105 -78 -199 -199
-246 -318 -30 -75 -56 -180 -56 -228 0 -34 0 -34 41 30 52 80 159 191 216 225
182 107 382 104 435 -6 54 -113 42 -285 -29 -407 l-25 -43 22 0 c64 0 157 95
225 230 31 62 61 177 85 322 15 96 27 118 63 118 39 0 82 -46 125 -134 76
-155 103 -568 47 -702 -13 -33 -13 -34 7 -34 12 0 40 19 64 44 72 75 140 285
154 477 9 121 27 169 63 169 83 0 190 -280 243 -635 9 -57 18 -210 21 -358 6
-287 7 -288 64 -142 53 136 70 244 76 490 3 135 1 268 -6 345 -7 69 -16 177
-22 240 -20 228 -89 458 -214 717 -99 206 -168 319 -291 483 -241 320 -499
535 -669 556 l-50 6 51 -35z"/>
<path d="M2852 5068 c-29 -95 -52 -180 -52 -188 0 -9 13 -31 30 -50 44 -52 37
-80 -21 -80 -28 0 -24 -38 6 -62 18 -14 25 -29 25 -54 0 -28 -4 -35 -25 -40
-14 -3 -25 -13 -25 -20 0 -8 11 -20 25 -26 24 -11 25 -14 25 -108 0 -152 -9
-218 -31 -225 -31 -10 -26 -91 6 -121 23 -22 25 -29 25 -122 0 -91 -2 -101
-29 -143 -16 -26 -42 -51 -60 -58 -17 -8 -31 -17 -31 -21 0 -14 112 -110 151
-130 25 -14 58 -20 99 -20 l61 0 -7 -37 c-10 -60 -43 -153 -72 -203 -64 -111
-171 -226 -269 -288 -39 -24 -43 -31 -43 -67 -1 -98 -46 -232 -106 -310 -30
-39 -49 -89 -31 -78 8 4 84 69 171 143 86 74 161 136 165 138 14 5 88 -149
111 -228 16 -55 23 -118 28 -237 4 -89 9 -164 12 -166 3 -3 47 -32 98 -65 l94
-59 -75 -31 c-41 -18 -86 -36 -101 -42 -25 -9 -26 -13 -26 -82 l0 -72 65 -61
c36 -33 63 -64 59 -68 -4 -4 -31 -7 -60 -7 -29 0 -60 -3 -69 -6 -9 -4 -30 -34
-47 -67 l-30 -61 21 -44 c12 -24 20 -46 18 -48 -2 -2 -21 -7 -42 -12 -38 -7
-43 -13 -103 -120 -136 -244 -241 -392 -279 -392 -13 0 -13 4 3 28 129 194
259 436 318 589 57 146 70 249 70 533 -1 371 -26 541 -87 597 l-22 21 -107
-95 c-60 -52 -108 -102 -108 -111 1 -10 19 -26 43 -37 64 -30 66 -46 57 -350
-12 -389 -54 -599 -200 -990 -96 -258 -161 -405 -230 -523 -28 -46 -49 -86
-47 -88 6 -6 128 88 232 176 166 142 377 377 494 548 21 31 100 133 175 226
134 168 136 170 136 220 0 66 23 225 50 351 31 142 71 257 139 403 33 70 62
139 66 154 l7 28 -47 -21 c-102 -45 -215 -32 -269 32 -41 49 -51 121 -51 374
1 239 22 426 62 550 37 116 104 227 195 320 48 50 88 92 88 94 0 2 -29 1 -66
-2 -80 -6 -210 -66 -327 -150 -46 -33 -83 -54 -92 -51 -22 9 -28 45 -23 135 4
71 8 83 31 105 36 33 37 85 2 116 -25 21 -25 24 -25 176 0 145 1 154 20 159
27 7 25 36 -2 48 -16 7 -24 20 -26 43 -3 27 2 35 27 50 37 20 44 62 10 62 -24
0 -59 17 -59 29 0 4 16 27 36 50 l37 42 -53 172 c-29 95 -55 178 -59 185 -4 7
-30 -65 -59 -160z"/>
<path d="M960 4714 c260 -139 353 -204 443 -308 116 -135 186 -264 247 -451
83 -259 124 -338 239 -458 85 -89 161 -145 259 -189 81 -37 201 -68 261 -68
l45 0 -59 37 c-103 63 -203 142 -235 186 -35 47 -60 122 -60 178 0 55 36 161
74 218 l35 51 -68 0 c-95 0 -164 23 -196 64 -14 18 -25 43 -25 55 0 26 49 59
101 67 62 10 68 20 32 54 -18 16 -50 34 -72 40 -28 7 -46 20 -60 44 -12 18
-55 66 -97 106 -158 150 -401 280 -739 396 -130 45 -329 104 -349 104 -6 0 95
-57 224 -126z"/>
<path d="M2525 3971 c-66 -37 -165 -144 -199 -213 -34 -69 -72 -248 -52 -248
2 0 25 12 50 26 39 22 57 26 100 22 168 -14 249 -210 181 -435 -12 -38 10 -27
81 40 99 91 163 204 193 336 l8 39 -73 37 c-72 37 -192 136 -217 179 -6 11
-14 72 -17 133 l-5 113 -50 -29z"/>
</g>
</svg>
