<?xml version="1.0" standalone="no"?>
<!DOCTYPE svg PUBLIC "-//W3C//DTD SVG 20010904//EN"
 "http://www.w3.org/TR/2001/REC-SVG-20010904/DTD/svg10.dtd">
<svg version="1.0" xmlns="http://www.w3.org/2000/svg"
 width="591.000000pt" height="591.000000pt" viewBox="0 0 591.000000 591.000000"
 preserveAspectRatio="xMidYMid meet">

<g transform="translate(0.000000,591.000000) scale(0.100000,-0.100000)"
fill="#CCA419" stroke="none">
<path d="M2761 5309 c-148 -17 -295 -70 -418 -151 -41 -26 -63 -47 -63 -59 0
-22 0 -22 85 -38 114 -21 285 -121 344 -202 20 -27 25 -29 38 -17 11 12 12 26
4 78 -6 35 -8 88 -5 119 4 41 2 61 -9 76 -14 19 -16 18 -61 -19 -36 -29 -53
-37 -71 -32 -27 7 -42 41 -26 59 22 27 108 61 164 65 l57 4 0 -199 c0 -199 0
-200 25 -223 32 -30 110 -50 161 -41 51 10 101 36 114 60 6 12 10 99 10 210
l0 191 48 0 c47 0 161 -45 177 -69 10 -17 -22 -61 -43 -61 -10 0 -37 16 -59
35 -23 19 -46 35 -51 35 -19 0 -36 -61 -25 -91 8 -20 8 -50 0 -103 -16 -111
-5 -115 83 -33 84 77 202 139 305 160 58 11 71 17 73 34 9 61 -276 189 -473
212 -147 17 -135 36 -135 -219 0 -239 -3 -250 -59 -250 -49 0 -51 8 -51 242
l0 218 -26 10 c-14 6 -28 9 -32 9 -4 -1 -40 -5 -81 -10z"/>
<path d="M1965 5096 c-89 -34 -95 -37 -95 -47 0 -6 29 -63 64 -127 35 -64 68
-127 75 -139 10 -20 3 -27 -101 -102 -62 -44 -140 -103 -173 -130 l-60 -50
-73 72 c-39 39 -71 75 -70 78 5 12 193 178 216 190 19 11 24 10 36 -6 12 -16
4 -26 -76 -97 -51 -47 -88 -88 -88 -99 0 -10 11 -26 25 -35 30 -19 18 -26 174
101 60 50 110 97 110 105 0 36 -110 189 -137 190 -32 1 -320 -217 -399 -303
-64 -69 -57 -86 118 -265 79 -81 148 -153 155 -161 10 -11 24 -4 81 46 159
139 306 235 459 297 l51 21 -106 242 c-58 134 -110 242 -116 242 -5 0 -37 -10
-70 -23z"/>
<path d="M3755 4879 c-58 -133 -105 -242 -103 -244 2 -1 35 -16 74 -32 130
-54 291 -162 459 -307 l41 -35 158 158 c149 149 158 161 163 203 l5 44 -73 65
c-136 121 -334 269 -359 269 -7 0 -31 -21 -54 -47 -53 -60 -64 -75 -81 -117
l-14 -33 129 -107 c112 -92 133 -105 150 -96 11 6 25 20 31 32 10 19 8 25 -17
47 -161 142 -158 139 -145 155 8 9 19 16 25 16 16 0 215 -177 223 -197 4 -10
-19 -40 -65 -86 l-70 -70 -50 44 c-27 25 -106 85 -174 133 l-125 89 78 141
c53 96 75 144 68 152 -9 11 -140 64 -159 64 -4 0 -56 -108 -115 -241z"/>
<path d="M2235 4993 c11 -69 46 -176 77 -238 33 -65 117 -176 151 -200 27 -19
19 -26 -63 -54 -195 -68 -399 -193 -547 -334 -210 -201 -356 -420 -437 -657
-20 -58 -39 -111 -41 -118 -3 -9 -22 8 -49 45 -51 66 -118 121 -202 163 -69
34 -226 81 -236 71 -4 -4 1 -36 11 -71 50 -174 123 -299 252 -435 82 -87 99
-119 99 -191 0 -90 -28 -158 -101 -240 -133 -150 -229 -299 -273 -422 -38
-105 -37 -106 32 -98 75 9 208 55 279 97 31 19 90 65 130 103 48 45 74 64 78
55 2 -8 16 -48 31 -89 37 -107 124 -270 202 -380 85 -119 251 -286 367 -368
114 -81 311 -179 437 -217 54 -17 98 -33 98 -36 0 -4 -23 -21 -50 -39 -57 -37
-126 -110 -164 -174 -30 -52 -71 -173 -81 -239 -6 -47 -6 -47 23 -47 74 0 359
170 500 298 77 70 87 76 140 83 31 5 80 6 108 2 46 -5 59 -13 135 -80 144
-129 401 -285 494 -300 l38 -6 -7 58 c-20 173 -133 352 -265 419 -40 21 -34
29 41 50 90 26 246 92 333 142 321 185 575 487 706 839 18 50 34 91 35 93 1 1
27 -22 58 -52 68 -67 127 -108 209 -146 67 -32 203 -70 249 -70 26 0 28 2 22
27 -31 130 -125 292 -265 458 -114 135 -129 167 -129 269 0 94 -1 91 108 215
121 137 193 262 237 414 25 87 23 88 -65 66 -157 -39 -310 -139 -376 -244
l-28 -43 -37 112 c-20 61 -55 148 -77 192 -91 182 -267 408 -414 535 -150 129
-372 251 -571 313 -16 5 -9 17 46 76 37 40 82 104 105 148 42 80 82 205 82
255 0 27 -2 28 -32 22 -144 -29 -277 -100 -443 -239 -98 -82 -188 -129 -246
-128 -55 1 -138 43 -217 110 -158 134 -295 215 -418 246 -86 22 -86 22 -79
-21z m995 -508 c186 -35 363 -103 510 -194 381 -237 628 -587 721 -1021 31
-141 34 -449 6 -580 -43 -203 -139 -431 -257 -607 -207 -310 -546 -536 -945
-631 -100 -24 -129 -27 -310 -26 -170 0 -215 3 -298 22 -405 90 -750 318 -963
635 -204 305 -302 656 -275 990 18 215 57 366 146 553 122 259 298 463 538
624 210 140 432 221 697 254 73 9 348 -3 430 -19z"/>
<path d="M2896 4406 l-46 -54 -95 -4 c-94 -4 -95 -4 -134 -42 -36 -35 -72 -93
-85 -138 -3 -10 -19 -19 -43 -23 -132 -21 -180 -51 -225 -142 -27 -56 -33 -79
-33 -135 0 -52 5 -73 21 -95 32 -43 53 -40 140 23 100 72 236 138 338 164 112
28 331 28 442 0 101 -26 238 -93 336 -164 42 -31 83 -56 90 -56 24 0 57 43 66
85 16 75 -24 200 -80 252 -32 30 -103 60 -163 68 -50 6 -51 7 -68 55 -9 26
-37 70 -61 96 l-43 48 -95 4 -96 4 -53 54 c-29 30 -56 54 -60 54 -4 0 -28 -24
-53 -54z"/>
<path d="M2884 3862 c-22 -16 -55 -52 -73 -81 -33 -50 -34 -51 -85 -51 -90 -1
-206 -73 -206 -130 0 -34 10 -43 78 -68 71 -27 114 -62 147 -118 24 -41 27
-54 23 -120 -3 -69 -8 -84 -71 -204 -37 -71 -67 -137 -67 -145 0 -20 73 -99
116 -126 l34 -21 43 21 c100 48 111 107 29 146 -47 22 -53 48 -12 53 26 3 47
-13 94 -72 l23 -30 27 42 c29 46 56 65 88 60 32 -5 33 -26 1 -40 -75 -32 -96
-90 -45 -126 64 -45 90 -54 120 -38 27 14 132 119 132 132 0 4 -27 57 -59 118
-99 186 -112 270 -55 361 32 50 102 101 153 111 31 7 71 45 71 70 0 24 -48 70
-102 97 -39 20 -68 27 -108 27 -53 0 -56 2 -74 34 -32 59 -99 117 -142 123
-32 4 -46 0 -80 -25z"/>
<path d="M1990 3684 c-125 -34 -184 -98 -203 -223 l-11 -68 -43 -11 c-30 -8
-60 -29 -97 -65 l-54 -52 -7 -98 -7 -98 -49 -42 c-27 -23 -49 -47 -49 -52 0
-6 22 -33 49 -59 l50 -49 7 -88 c4 -54 13 -98 24 -116 20 -34 85 -80 137 -98
36 -12 38 -15 49 -78 13 -70 41 -132 71 -159 33 -30 131 -69 185 -75 43 -4 61
0 98 19 27 15 46 33 48 45 2 12 -17 46 -47 86 -148 196 -211 395 -198 626 11
192 73 350 204 524 23 31 43 63 43 70 0 22 -42 54 -85 66 -48 13 -47 13 -115
-5z"/>
<path d="M3787 3686 c-47 -17 -67 -34 -67 -56 0 -10 33 -67 73 -127 78 -117
126 -224 153 -338 12 -54 15 -106 12 -225 -4 -136 -8 -165 -32 -235 -34 -99
-92 -209 -158 -297 -61 -83 -61 -104 2 -135 55 -28 80 -29 164 -3 113 35 171
106 184 222 l7 61 47 14 c30 8 66 31 99 61 l52 48 5 96 5 96 53 53 54 53 -54
56 -54 55 -4 88 c-3 67 -9 94 -24 115 -26 34 -107 90 -148 100 -29 8 -31 11
-38 69 -12 107 -52 163 -148 207 -71 32 -135 40 -183 22z"/>
<path d="M3496 3569 c-16 -5 -50 -28 -75 -53 -25 -25 -72 -56 -103 -70 -67
-30 -84 -52 -99 -130 -19 -91 -10 -101 98 -110 166 -14 194 -4 239 82 25 46
44 66 102 105 40 27 72 55 72 62 0 16 -60 64 -110 90 -49 25 -90 33 -124 24z"/>
<path d="M2292 3547 c-59 -32 -112 -75 -112 -92 0 -8 26 -32 58 -54 69 -47 94
-74 119 -126 34 -72 80 -85 248 -68 l80 8 3 57 c2 40 -3 71 -16 100 -18 42
-32 53 -102 79 -19 7 -58 37 -87 66 -49 49 -55 53 -100 53 -31 0 -64 -8 -91
-23z"/>
<path d="M2165 3169 c-20 -18 -43 -45 -51 -61 l-15 -29 103 -112 c57 -62 150
-172 207 -245 57 -74 120 -144 140 -157 55 -36 179 -82 272 -101 148 -30 309
-6 479 72 78 36 79 37 201 192 67 85 162 197 211 249 48 52 88 100 88 107 0
19 -56 93 -79 105 -26 15 -104 14 -154 -1 -21 -6 -60 -31 -85 -53 l-46 -42
-33 19 c-19 12 -45 18 -65 16 -31 -3 -33 -5 -36 -48 -2 -25 4 -75 13 -112 15
-64 15 -69 -2 -99 -17 -29 -82 -78 -150 -113 -50 -25 -92 -20 -150 19 -29 19
-56 35 -60 35 -5 0 -32 -16 -60 -35 -33 -22 -64 -35 -84 -35 -44 0 -134 47
-187 97 -49 46 -47 32 -22 185 11 63 11 80 0 92 -17 22 -59 20 -98 -4 l-34
-21 -48 45 c-51 48 -98 66 -172 66 -39 0 -54 -6 -83 -31z"/>
<path d="M2175 2790 c-15 -24 6 -79 38 -102 18 -12 35 -26 38 -31 4 -6 5 -62
2 -126 l-6 -116 60 -80 c84 -114 150 -164 234 -180 47 -9 139 9 205 39 71 33
154 115 154 154 0 43 -16 52 -96 52 -39 0 -90 6 -112 14 -97 34 -216 134 -321
269 -30 37 -70 76 -90 86 -50 26 -97 35 -106 21z"/>
<path d="M3660 2784 c-55 -17 -70 -30 -138 -116 -74 -94 -179 -189 -254 -228
-55 -30 -74 -34 -153 -38 -94 -4 -115 -14 -115 -54 0 -31 88 -116 154 -148 89
-44 170 -56 240 -36 67 20 160 102 225 198 l42 63 -7 116 -7 115 29 22 c52 39
54 42 54 82 0 45 -3 46 -70 24z"/>
<path d="M2274 2183 c-23 -23 -44 -76 -44 -112 0 -49 38 -154 69 -192 37 -45
103 -77 176 -85 53 -7 55 -8 66 -44 15 -48 77 -131 110 -147 14 -7 63 -15 110
-19 l84 -6 53 -51 52 -51 53 52 c47 47 57 52 97 53 25 0 70 4 99 8 49 7 60 13
103 61 31 33 53 68 60 95 11 43 12 43 67 49 76 9 152 48 184 94 70 101 78 227
19 295 -22 25 -36 22 -99 -26 -119 -89 -234 -147 -363 -183 -91 -26 -347 -26
-440 -1 -93 26 -256 107 -341 172 -41 30 -79 55 -86 55 -6 0 -19 -8 -29 -17z"/>
<path d="M1164 4468 c-82 -86 -251 -314 -270 -363 -11 -28 137 -145 182 -145
16 0 48 33 116 118 52 64 97 122 101 128 8 14 -29 64 -48 64 -8 0 -49 -41 -92
-90 -42 -50 -82 -89 -87 -87 -26 9 -29 35 -7 63 68 87 168 194 181 194 8 0 45
-30 81 -66 l67 -67 -52 -66 c-30 -36 -84 -111 -121 -166 -38 -55 -72 -104 -76
-109 -5 -6 -69 21 -154 65 -165 84 -150 87 -189 -29 l-25 -73 32 -14 c18 -7
128 -54 246 -104 118 -50 215 -90 216 -89 1 2 10 26 20 53 47 129 148 294 274
444 l70 85 -151 145 c-165 160 -178 170 -224 171 -25 0 -42 -12 -90 -62z"/>
<path d="M4472 4401 c-75 -71 -150 -142 -165 -159 l-29 -30 66 -78 c123 -146
216 -300 292 -481 9 -21 14 -19 249 80 132 55 242 102 244 104 7 5 -37 137
-53 158 -14 19 -20 18 -162 -55 -93 -47 -148 -71 -151 -63 -8 21 -162 237
-204 286 l-42 49 69 69 c38 38 74 69 81 69 13 0 124 -121 175 -189 29 -40 30
-43 12 -56 -21 -16 -33 -6 -135 115 -44 50 -49 53 -72 43 -52 -24 -45 -45 60
-178 94 -120 99 -125 130 -121 42 6 151 83 177 124 12 20 -168 271 -283 395
-38 41 -49 47 -83 47 -36 0 -49 -9 -176 -129z"/>
<path d="M763 3575 c-36 -43 -94 -159 -123 -245 -46 -135 -65 -305 -37 -329 9
-7 92 -12 233 -13 l219 -3 3 -39 c2 -21 -2 -44 -8 -50 -7 -7 -89 -13 -233 -16
l-222 -5 -3 -56 c-7 -127 63 -352 149 -483 32 -49 49 -66 66 -66 15 0 23 6 23
18 0 41 33 142 71 220 29 59 60 103 105 149 35 36 62 69 59 73 -9 14 -261 5
-279 -9 -15 -12 -12 -18 20 -57 37 -46 42 -79 13 -97 -9 -6 -24 -7 -33 -4 -24
9 -66 105 -73 166 l-6 51 189 0 c130 0 197 4 213 13 89 45 89 249 0 294 -16 9
-83 13 -213 13 l-189 0 6 51 c7 61 49 157 73 166 9 3 24 2 33 -4 29 -18 24
-52 -14 -98 l-36 -44 25 -17 c20 -12 39 -15 83 -10 32 4 82 3 111 -2 35 -6 57
-6 67 2 13 9 5 22 -49 79 -77 79 -140 198 -165 309 -20 86 -35 95 -78 43z"/>
<path d="M5075 3583 c-32 -155 -82 -258 -174 -355 -77 -83 -74 -100 16 -86 32
4 83 5 115 2 56 -6 98 6 98 28 0 6 -16 28 -35 49 -19 22 -35 45 -35 53 0 21
28 46 51 46 29 0 79 -110 79 -172 l0 -48 -189 0 c-188 0 -190 0 -220 -25 -39
-33 -54 -83 -49 -156 5 -64 27 -105 69 -126 16 -9 82 -13 207 -13 l182 0 0
-47 c0 -63 -50 -173 -79 -173 -23 0 -51 25 -51 46 0 8 16 31 35 53 19 21 35
43 35 49 0 22 -42 34 -98 28 -32 -3 -83 -2 -115 2 -90 14 -93 -3 -16 -86 92
-97 142 -200 174 -354 10 -52 41 -36 95 49 77 120 128 277 145 444 10 102 15
100 -236 98 -231 -1 -242 1 -237 55 5 51 28 56 260 56 194 0 207 1 213 19 11
37 -17 207 -52 314 -63 190 -171 334 -188 250z"/>
<path d="M1000 2130 c-143 -67 -234 -115 -232 -123 10 -41 58 -150 68 -154 7
-2 75 31 151 74 l139 79 79 -109 c44 -60 104 -135 132 -167 29 -32 53 -62 53
-67 0 -5 -32 -40 -71 -78 l-70 -70 -88 90 c-48 50 -96 103 -106 118 -17 26
-17 29 -1 45 16 16 22 11 104 -77 l87 -93 28 22 c15 12 27 28 27 35 0 20 -200
249 -221 253 -10 2 -31 -4 -47 -12 -36 -19 -142 -114 -142 -128 0 -25 180
-254 284 -362 64 -66 67 -68 103 -61 31 5 61 29 166 133 71 70 142 144 159
165 l30 37 -60 65 c-118 125 -214 265 -283 408 -23 48 -44 87 -48 87 -3 0
-112 -50 -241 -110z"/>
<path d="M4630 2182 c-56 -131 -146 -266 -279 -418 l-78 -90 156 -160 c134
-139 161 -162 195 -168 37 -7 41 -5 93 46 55 54 212 244 273 330 l33 47 -58
53 c-61 57 -110 88 -137 88 -23 0 -224 -237 -220 -258 2 -10 9 -23 14 -29 23
-28 52 -12 132 73 79 84 81 86 99 67 17 -19 14 -23 -75 -123 -51 -57 -100
-107 -108 -113 -12 -7 -32 7 -87 64 l-71 73 53 61 c28 33 87 107 130 165 42
58 81 106 86 108 5 2 69 -31 144 -73 107 -61 138 -75 149 -66 19 16 69 152 59
162 -10 10 -460 219 -470 219 -5 0 -19 -26 -33 -58z"/>
<path d="M1540 1473 c-157 -170 -170 -187 -170 -229 0 -24 10 -41 48 -75 65
-61 192 -157 304 -229 l92 -60 38 42 c45 51 84 113 93 148 5 23 -7 34 -124
123 -102 78 -134 97 -151 92 -25 -8 -48 -51 -34 -64 5 -4 46 -38 92 -75 82
-68 93 -84 69 -104 -10 -8 -27 -1 -67 30 -83 62 -180 149 -180 161 0 10 117
139 133 145 4 2 24 -11 44 -29 21 -17 98 -72 173 -122 74 -49 135 -92 134 -96
0 -3 -30 -67 -67 -142 -37 -75 -67 -141 -67 -147 0 -12 87 -47 141 -57 l35 -7
92 234 c50 128 92 239 94 246 2 8 -20 22 -57 36 -139 53 -314 158 -449 269
-38 32 -71 57 -75 57 -3 0 -67 -66 -141 -147z"/>
<path d="M4155 1569 c-142 -118 -343 -238 -458 -275 -31 -10 -57 -22 -57 -28
0 -15 181 -469 191 -480 10 -11 133 25 163 47 17 12 13 22 -53 155 -39 78 -71
144 -71 146 0 2 53 39 118 82 64 42 143 97 176 123 l58 46 69 -73 c38 -41 69
-77 69 -81 0 -8 -178 -158 -215 -180 -23 -14 -26 -14 -42 2 -16 16 -16 19 -2
30 84 64 169 143 169 157 0 19 -30 50 -48 50 -7 0 -68 -43 -137 -96 -134 -103
-140 -111 -107 -170 31 -55 97 -133 113 -134 42 -1 431 288 443 328 14 46 -11
84 -157 242 -81 88 -151 160 -155 159 -4 0 -34 -23 -67 -50z"/>
<path d="M2882 1177 c-18 -5 -43 -20 -57 -33 l-25 -23 0 -202 0 -202 -55 6
c-64 6 -162 48 -172 73 -9 24 10 48 40 52 18 2 37 -8 67 -35 41 -36 43 -37 57
-18 11 15 13 35 9 76 -3 31 -1 84 5 119 7 46 7 66 -2 77 -10 12 -21 6 -68 -40
-96 -93 -192 -146 -318 -176 -54 -12 -79 -23 -81 -34 -7 -37 201 -150 344
-186 93 -24 210 -37 248 -27 l26 6 0 214 c0 118 3 221 6 230 7 20 79 22 91 4
4 -7 10 -112 13 -233 l5 -220 47 -3 c68 -4 212 23 311 58 116 42 247 124 247
154 0 19 -8 24 -62 35 -133 27 -250 90 -338 182 -41 43 -49 47 -60 34 -10 -12
-10 -32 -3 -88 7 -46 7 -79 1 -91 -12 -22 -2 -80 16 -95 10 -8 23 -2 53 24 23
19 52 35 65 35 25 0 51 -31 43 -53 -9 -22 -111 -66 -170 -73 l-55 -7 0 196 c0
193 0 196 -24 224 -40 47 -128 65 -204 40z"/>
</g>
</svg>
