<?xml version="1.0" standalone="no"?>
<!DOCTYPE svg PUBLIC "-//W3C//DTD SVG 20010904//EN"
 "http://www.w3.org/TR/2001/REC-SVG-20010904/DTD/svg10.dtd">
<svg version="1.0" xmlns="http://www.w3.org/2000/svg"
 width="591.000000pt" height="591.000000pt" viewBox="0 0 591.000000 591.000000"
 preserveAspectRatio="xMidYMid meet">

<g transform="translate(0.000000,591.000000) scale(0.100000,-0.100000)"
fill="#CCA419" stroke="none">
<path d="M2915 5245 c-158 -337 -278 -669 -287 -789 -3 -38 -1 -40 29 -47 18
-3 44 -14 58 -23 l25 -16 0 -298 c0 -496 -26 -879 -68 -1005 l-17 -52 30 -43
c27 -39 30 -51 30 -122 0 -76 -1 -80 -43 -140 l-42 -62 40 -39 c61 -59 66
-109 11 -109 -34 0 -53 20 -81 83 -21 46 -22 105 -4 182 3 12 -16 -2 -52 -39
-62 -66 -111 -157 -140 -262 -15 -57 -23 -71 -57 -95 -47 -34 -75 -36 -105 -9
-42 39 -21 110 40 141 84 43 150 121 181 213 27 79 22 96 -13 48 -60 -83 -177
-138 -245 -115 -67 22 -58 73 27 155 72 69 155 112 255 130 l73 13 -53 41
c-55 43 -100 113 -111 176 -6 35 -5 37 29 48 37 12 75 52 75 79 0 13 -12 16
-68 17 -106 0 -199 49 -311 161 -48 49 -98 102 -110 118 l-22 30 6 -35 c18
-103 74 -225 160 -352 30 -44 55 -86 55 -94 0 -50 -89 -59 -165 -15 -129 74
-189 196 -202 411 -9 156 21 294 82 384 37 55 13 43 -47 -23 -65 -72 -112
-149 -147 -239 -23 -61 -25 -80 -25 -207 0 -146 13 -234 44 -296 26 -49 45
-222 33 -279 -6 -25 -14 -52 -17 -61 -5 -12 3 -20 33 -33 33 -13 41 -21 41
-41 0 -44 -28 -41 -78 8 -61 59 -132 101 -212 125 -75 23 -150 36 -149 25 0
-5 28 -30 61 -57 80 -65 161 -165 204 -250 32 -65 34 -74 34 -173 0 -115 15
-167 50 -178 18 -6 28 0 52 29 24 29 36 36 65 36 32 0 35 -2 29 -22 -4 -13
-14 -56 -22 -96 -18 -84 -9 -164 27 -238 21 -45 94 -125 131 -145 19 -10 20
-9 13 7 -73 170 -56 258 62 318 41 21 75 20 102 -1 22 -18 22 -19 6 -82 -16
-59 -16 -67 0 -107 20 -52 56 -81 125 -97 39 -9 49 -15 44 -27 -24 -55 -10
-87 46 -110 31 -13 50 -52 50 -102 0 -28 1 -27 43 24 88 109 183 147 227 91
25 -32 22 -70 -10 -112 l-19 -26 55 -50 c52 -47 55 -52 45 -78 -9 -24 -8 -31
14 -53 25 -25 25 -27 25 -200 0 -161 -2 -178 -20 -201 -29 -38 -25 -70 14
-109 29 -29 36 -45 45 -107 15 -94 41 -179 55 -174 15 5 46 111 53 185 5 54
10 66 33 82 49 35 56 96 16 129 -14 11 -16 40 -16 196 l0 182 26 12 c24 11 26
15 20 51 -6 37 -4 41 48 86 l54 48 -24 29 c-28 34 -31 82 -8 116 37 52 157 -1
234 -104 l35 -47 5 49 c7 60 13 70 55 87 47 20 60 48 41 88 -20 40 -21 38 12
38 37 1 102 32 131 63 31 34 38 101 18 161 -16 45 -15 46 10 66 14 11 34 20
45 20 63 0 152 -75 163 -137 7 -45 -7 -118 -34 -174 -11 -21 -15 -39 -11 -39
22 0 122 107 146 157 38 76 44 191 16 280 -11 34 -17 65 -14 68 3 3 19 5 35 5
21 0 39 -10 63 -37 28 -31 38 -36 52 -27 35 22 47 65 48 180 2 93 6 119 24
155 41 80 108 165 197 249 l88 82 -50 -7 c-125 -19 -231 -68 -322 -150 -56
-49 -73 -51 -73 -6 0 23 6 30 33 38 26 7 31 14 29 34 -18 144 -7 297 24 345
19 29 41 139 49 249 13 178 -50 348 -176 479 l-70 71 35 -65 c52 -97 69 -176
69 -310 -1 -193 -40 -317 -126 -404 -72 -71 -165 -104 -218 -76 -32 17 -22 49
45 149 72 107 119 208 140 303 l15 63 -36 -45 c-79 -97 -184 -189 -259 -227
-65 -32 -84 -36 -149 -37 -41 0 -75 -2 -75 -4 0 -2 7 -19 16 -37 10 -23 28
-39 55 -49 47 -19 51 -45 15 -121 -22 -48 -114 -144 -140 -146 -6 0 22 -7 61
-14 99 -18 192 -63 259 -127 92 -87 105 -130 47 -154 -81 -34 -194 16 -269
121 l-22 30 9 -47 c18 -101 93 -204 180 -249 51 -25 71 -58 67 -105 -4 -50
-40 -74 -84 -55 -55 23 -74 48 -95 123 -27 96 -79 193 -139 259 l-49 54 6 -82
c6 -86 -2 -121 -40 -176 -15 -22 -26 -27 -51 -25 -26 2 -32 8 -34 31 -3 22 6
38 43 74 l46 46 -25 26 c-46 50 -71 111 -71 178 0 54 5 68 33 108 l32 46 -19
62 c-42 139 -61 415 -61 925 l0 383 35 15 c19 7 44 14 55 14 16 0 20 7 20 31
0 100 -134 473 -283 789 l-45 95 -37 -80z m80 -2981 c4 -21 23 -52 49 -79 l43
-45 -25 -36 c-13 -20 -44 -73 -67 -117 l-43 -80 -32 64 c-18 35 -48 88 -67
117 l-34 54 41 40 c22 22 44 57 50 77 5 20 14 131 20 246 20 400 22 404 41 82
9 -159 20 -304 24 -323z m-235 -199 c0 -35 28 -114 56 -155 13 -19 20 -36 15
-38 -25 -8 -100 52 -129 104 -7 13 -18 13 -80 3 -63 -10 -74 -10 -97 5 -31 20
-32 39 -3 65 27 25 83 39 171 40 65 1 67 0 67 -24z m602 -2 c22 -13 34 -28 36
-46 5 -39 -33 -52 -114 -38 -33 6 -63 11 -66 11 -2 0 -18 -19 -35 -43 -31 -42
-96 -87 -108 -75 -4 4 5 23 19 44 14 21 33 69 43 107 l18 69 87 -4 c60 -4 97
-11 120 -25z"/>
<path d="M2930 2219 c-12 -24 -29 -52 -38 -62 -14 -16 -12 -24 23 -92 l38 -75
38 72 c24 47 34 77 28 84 -5 6 -22 35 -38 64 l-29 53 -22 -44z"/>
<path d="M1732 2028 c-25 -27 -52 -88 -52 -118 0 -17 -4 -19 -27 -14 -40 10
-100 41 -155 80 -27 19 -48 33 -48 31 0 -2 7 -28 16 -58 26 -85 61 -146 125
-215 66 -71 71 -92 40 -160 -34 -74 -146 -145 -285 -180 l-70 -17 40 -15 c26
-11 86 -16 188 -19 l150 -3 35 -67 c34 -64 145 -190 199 -225 l22 -15 -36 -79
c-37 -81 -94 -242 -94 -265 0 -6 27 16 61 50 70 72 157 131 238 162 46 17 72
20 146 17 100 -5 156 -27 231 -91 40 -35 104 -140 104 -171 0 -25 16 -19 59
20 74 66 99 157 64 231 -20 43 -91 97 -155 119 -46 15 -48 17 -48 53 0 33 -5
41 -47 72 -84 60 -248 204 -297 263 -40 47 -46 59 -36 71 7 8 26 15 42 15 29
0 30 2 24 32 -8 42 -33 78 -53 78 -8 0 -33 -16 -55 -36 -41 -37 -94 -64 -125
-64 -73 0 -143 49 -143 98 0 43 22 55 107 62 l74 5 -65 43 c-43 28 -75 58 -91
86 -31 54 -31 70 0 90 14 9 25 25 25 35 0 20 -60 113 -76 118 -6 2 -20 -7 -32
-19z m341 -678 l59 -70 -22 -35 c-39 -63 -98 -54 -160 25 -17 22 -38 40 -46
40 -25 0 -46 44 -35 73 9 23 17 26 63 30 29 2 60 4 68 5 8 1 41 -30 73 -68z
m148 -147 c8 -9 42 -37 77 -63 72 -55 68 -60 -41 -60 -86 0 -121 15 -125 53
-3 21 5 35 28 57 37 35 43 36 61 13z"/>
<path d="M4105 2008 c-39 -55 -47 -84 -28 -103 8 -8 19 -15 24 -15 14 0 11
-47 -5 -78 -18 -35 -59 -72 -120 -111 l-50 -31 61 0 c79 0 119 -15 127 -46 12
-47 -22 -86 -92 -104 -64 -16 -106 -4 -161 46 -72 64 -101 56 -122 -33 -6 -31
-5 -33 20 -33 38 0 54 -14 47 -38 -10 -30 -219 -227 -309 -292 -76 -55 -77
-55 -71 -92 4 -29 2 -38 -9 -38 -31 0 -139 -64 -171 -101 -65 -76 -57 -154 25
-243 55 -60 67 -66 75 -38 34 108 123 205 223 243 46 17 72 20 148 17 83 -3
99 -8 170 -43 56 -29 101 -62 160 -121 65 -63 81 -75 76 -55 -11 47 -65 195
-94 260 -16 35 -29 67 -29 71 0 4 21 24 48 44 62 48 135 136 174 211 l31 60
141 0 c90 0 157 5 186 14 l45 14 -85 27 c-106 33 -159 60 -211 107 -50 45 -69
81 -69 129 0 30 9 46 53 93 28 31 66 84 84 116 34 65 60 142 51 151 -4 3 -29
-11 -57 -31 -28 -20 -74 -46 -103 -57 -55 -21 -67 -16 -68 27 0 33 -57 114
-80 114 -3 1 -18 -18 -35 -41z m-123 -598 c38 0 48 -4 53 -21 11 -33 -3 -66
-32 -78 -16 -6 -37 -25 -48 -42 -22 -34 -73 -69 -100 -69 -19 0 -75 55 -75 75
0 7 26 43 57 80 45 52 61 65 77 61 12 -3 42 -6 68 -6z m-233 -225 c39 -45 40
-70 1 -90 -30 -16 -165 -21 -187 -7 -7 4 16 29 65 69 43 34 80 62 83 62 4 1
21 -15 38 -34z"/>
</g>
</svg>
