<?xml version="1.0" standalone="no"?>
<!DOCTYPE svg PUBLIC "-//W3C//DTD SVG 20010904//EN"
 "http://www.w3.org/TR/2001/REC-SVG-20010904/DTD/svg10.dtd">
<svg version="1.0" xmlns="http://www.w3.org/2000/svg"
 width="591.000000pt" height="591.000000pt" viewBox="0 0 591.000000 591.000000"
 preserveAspectRatio="xMidYMid meet">

<g transform="translate(0.000000,591.000000) scale(0.100000,-0.100000)"
fill="#ca8a04" stroke="none">
<path d="M1282 4627 l-692 -692 0 -980 0 -980 693 -693 692 -692 975 0 975 0
698 698 697 697 0 975 0 975 -693 693 -692 692 -980 0 -980 0 -693 -693z m881
341 l18 -72 -233 -233 -232 -232 24 -26 24 -26 231 231 230 230 328 0 327 0 0
35 0 35 -317 2 -317 3 -13 44 c-7 24 -15 52 -18 62 -6 18 17 19 734 19 531 0
741 -3 741 -11 0 -6 -7 -35 -16 -65 l-15 -54 -315 0 -314 0 0 -35 0 -35 327 0
328 0 230 -230 231 -231 24 26 24 26 -233 233 c-260 260 -240 228 -210 338 9
34 13 38 42 38 29 0 89 -57 639 -607 696 -696 665 -656 536 -686 l-72 -18
-233 233 -232 232 -26 -24 -26 -24 231 -231 230 -230 0 -328 0 -327 35 0 35 0
2 317 3 317 44 13 c24 7 52 15 62 18 18 6 19 -17 19 -734 0 -531 -3 -741 -11
-741 -6 0 -35 7 -65 16 l-54 15 0 315 0 314 -35 0 -35 0 0 -322 0 -323 -232
-232 -233 -233 28 -27 27 -28 234 234 c260 260 228 240 338 210 82 -22 92 -10
-574 -676 -667 -667 -655 -657 -677 -575 -30 110 -50 78 208 336 l232 232 -26
24 -26 24 -227 -227 -227 -227 -328 0 -327 0 0 -40 0 -40 317 -2 317 -3 13
-50 c7 -27 13 -53 13 -57 0 -5 -332 -8 -739 -8 l-739 0 15 60 15 60 317 2 316
3 0 35 0 35 -325 3 -325 2 -230 230 -229 229 -23 -21 c-13 -12 -23 -26 -23
-32 0 -6 104 -115 230 -241 l231 -231 -18 -67 c-32 -121 7 -152 -685 540 -549
549 -608 611 -608 640 0 30 3 32 58 48 31 9 62 18 67 19 6 2 116 -102 245
-230 l236 -235 24 26 24 26 -227 227 -227 227 0 328 0 327 -40 0 -40 0 -2
-317 -3 -317 -50 -13 c-27 -7 -53 -13 -57 -13 -5 0 -8 332 -8 739 l0 739 60
-15 60 -15 2 -317 3 -316 35 0 35 0 3 325 2 325 228 228 c191 191 225 230 216
244 -31 50 -32 50 -277 -195 l-234 -233 -66 17 c-121 33 -152 -6 540 686 696
696 656 665 686 536z"/>
<path d="M3135 4336 c-16 -8 -72 -59 -122 -114 -148 -160 -169 -160 -372 -2
-77 61 -152 113 -168 116 -54 11 -78 -10 -201 -173 -144 -191 -158 -204 -215
-210 -39 -5 -57 2 -164 56 -137 69 -168 74 -212 34 -25 -23 -37 -53 -70 -173
-104 -377 -135 -564 -135 -820 -1 -174 1 -203 22 -273 32 -112 54 -149 132
-226 38 -37 74 -80 80 -97 6 -16 18 -87 26 -157 8 -71 18 -136 23 -145 5 -9
39 -46 76 -81 l66 -64 217 5 216 6 27 -29 27 -29 205 0 205 0 6 -25 c9 -36 33
-44 153 -52 l108 -6 152 -124 c216 -176 193 -168 503 -168 291 0 267 -6 405
99 223 168 387 397 389 543 1 75 -21 95 -116 102 -41 4 -72 11 -71 16 2 6 12
36 23 67 l20 57 -23 669 -22 668 -170 228 c-93 125 -180 236 -193 247 -49 38
-84 27 -215 -67 -67 -48 -134 -91 -149 -96 -54 -19 -91 -1 -232 107 -120 93
-171 126 -194 125 -4 -1 -20 -7 -37 -14z m-494 -371 c57 -69 107 -135 111
-148 17 -59 4 -168 -25 -204 -17 -22 -61 19 -75 71 -10 38 -18 48 -48 61 -20
8 -40 15 -44 15 -4 0 -23 -36 -42 -81 l-35 -81 -79 72 c-44 39 -82 77 -86 84
-5 8 36 76 104 174 62 89 112 162 113 162 1 0 48 -56 106 -125z m773 -41 l135
-156 -87 -95 -87 -94 -3 113 -3 113 -52 22 -52 21 -13 -61 c-8 -34 -18 -80
-24 -101 l-10 -39 -75 75 -75 75 97 142 c54 77 101 141 106 141 4 0 69 -70
143 -156z m644 3 c91 -120 93 -123 88 -167 -3 -25 -8 -77 -12 -116 -6 -71 -6
-71 -40 -82 -42 -12 -36 -22 -67 123 -23 109 -23 110 -53 113 -29 3 -29 2 -53
-90 -13 -51 -27 -96 -31 -101 -3 -4 -27 2 -53 13 -37 17 -56 36 -102 102 -55
80 -56 82 -37 100 32 33 257 227 262 227 3 0 47 -55 98 -122z m-2091 -170
l138 -83 3 -120 3 -119 -79 78 -79 78 -40 -61 -40 -60 -42 30 c-41 30 -42 31
-36 78 12 99 25 228 25 245 0 9 2 17 4 17 3 0 67 -37 143 -83z m962 -587 c17
-623 21 -700 38 -700 23 0 14 -11 -98 -113 l-105 -96 -130 50 c-71 28 -131 53
-133 55 -3 3 5 14 16 25 l21 21 -23 68 c-18 53 -25 106 -34 261 -6 107 -14
223 -17 259 l-6 65 135 -133 c112 -112 135 -131 141 -115 39 97 136 367 133
369 -2 2 -39 -22 -82 -55 l-79 -59 -122 92 c-127 95 -126 93 -89 140 14 19 17
18 110 -21 68 -30 97 -38 103 -29 5 6 51 89 103 184 51 95 96 169 99 165 4 -5
12 -199 19 -433z m717 -201 c-15 -277 -29 -522 -32 -544 -5 -38 -11 -44 -125
-123 l-119 -82 -125 31 -126 32 3 51 3 51 60 21 c37 13 61 28 63 39 7 35 -9
66 -43 82 l-35 17 0 258 c0 142 2 258 4 258 2 0 46 -67 97 -150 52 -82 96
-149 99 -150 3 0 45 77 94 172 84 161 88 172 71 185 -28 20 -36 17 -107 -42
-36 -30 -71 -55 -76 -55 -5 0 -54 74 -107 165 -88 150 -97 169 -90 201 3 19
10 34 14 32 4 -2 49 -50 100 -108 51 -58 96 -106 99 -107 4 -2 29 58 56 132
44 124 53 140 100 185 l51 50 48 -49 49 -48 -26 -504z m-1314 -496 c3 -40 2
-42 -22 -36 -51 12 -171 66 -229 103 -115 74 -204 188 -242 309 -26 84 -40
282 -18 265 8 -6 73 -58 144 -115 72 -58 136 -109 143 -113 9 -5 12 13 12 82
l0 89 -105 122 c-57 67 -107 126 -111 132 -3 6 40 -13 96 -41 56 -28 103 -50
105 -48 1 2 19 37 40 78 21 41 49 95 64 120 l26 45 47 -475 c25 -261 48 -494
50 -517z m1693 804 c45 104 55 117 55 78 0 -17 11 -203 25 -415 14 -212 25
-388 25 -392 0 -5 23 -8 51 -8 l50 0 -17 -27 c-9 -16 -54 -61 -101 -101 l-84
-72 -115 0 -114 0 20 40 c25 49 25 58 -1 86 -18 19 -23 52 -45 305 -14 156
-24 292 -22 303 2 15 22 -6 76 -82 41 -56 77 -104 82 -107 10 -6 123 142 116
153 -3 5 -23 15 -46 22 -22 7 -44 18 -50 24 -5 7 -34 74 -65 150 -49 121 -55
142 -45 164 11 25 14 22 89 -91 l78 -117 38 87z m70 -1099 c6 -5 10 -48 10
-96 0 -70 -4 -95 -22 -127 -56 -104 -169 -161 -357 -180 l-70 -7 42 50 c37 44
42 56 42 98 0 97 -13 91 -129 -63 l-62 -83 -47 0 c-47 0 -47 0 -114 85 -38 46
-68 89 -68 94 0 5 33 39 73 76 l72 66 197 -6 198 -7 66 60 c64 58 67 59 112
54 26 -2 52 -9 57 -14z"/>
</g>
</svg>
