<?xml version="1.0" standalone="no"?>
<!DOCTYPE svg PUBLIC "-//W3C//DTD SVG 20010904//EN"
 "http://www.w3.org/TR/2001/REC-SVG-20010904/DTD/svg10.dtd">
<svg version="1.0" xmlns="http://www.w3.org/2000/svg"
 width="591.000000pt" height="591.000000pt" viewBox="0 0 591.000000 591.000000"
 preserveAspectRatio="xMidYMid meet">

<g transform="translate(0.000000,591.000000) scale(0.100000,-0.100000)"
fill="#CCA419" stroke="none">
<path d="M1287 4665 c72 -162 124 -322 130 -401 l6 -71 44 -11 c63 -17 118
-57 153 -111 16 -26 30 -51 30 -55 0 -5 12 -22 26 -39 39 -47 85 -144 91 -195
3 -32 0 -60 -11 -85 l-15 -38 39 -35 c21 -19 44 -51 50 -70 31 -93 -106 -185
-184 -123 -32 25 -56 71 -87 167 -12 39 -26 72 -30 72 -12 0 -18 -126 -9 -189
14 -98 38 -156 87 -211 25 -28 43 -56 40 -64 -8 -21 -95 -29 -168 -16 -131 24
-235 103 -298 228 -28 56 -31 71 -37 199 l-7 138 28 15 c63 34 96 110 60 140
-14 12 -142 16 -188 5 -16 -3 -63 20 -167 84 -79 50 -146 88 -148 86 -2 -2 59
-75 137 -162 l141 -158 0 -120 c0 -257 64 -479 185 -651 51 -71 105 -121 187
-175 74 -47 88 -49 88 -9 0 38 29 97 65 130 22 21 38 25 100 28 l73 4 46 -42
c46 -43 64 -88 52 -128 -4 -11 -31 -45 -61 -75 -53 -54 -81 -100 -70 -117 3
-5 27 1 53 12 58 26 170 35 212 18 17 -7 44 -31 59 -54 37 -54 109 -119 158
-144 42 -22 114 -44 121 -37 3 2 -23 43 -58 91 -104 146 -105 165 -12 163 55
-1 102 12 102 29 0 4 -30 15 -67 25 -114 29 -233 95 -233 129 0 4 12 8 28 8
69 1 64 30 -13 82 -27 18 -60 49 -73 68 -21 30 -23 44 -19 96 3 42 14 78 32
113 l28 50 31 -22 c57 -40 195 -179 251 -251 70 -92 130 -207 145 -281 15 -70
-2 -123 -55 -178 l-35 -36 140 -118 c77 -65 144 -119 149 -121 6 -2 207 237
258 309 11 14 7 24 -20 60 -124 165 -562 893 -559 929 0 8 17 57 36 109 23 63
44 102 62 116 26 21 26 22 10 52 -17 33 -83 93 -102 93 -19 0 -23 -23 -13 -78
9 -48 7 -56 -26 -122 -19 -38 -41 -70 -49 -70 -40 0 -220 159 -346 306 -150
174 -180 231 -202 382 l-11 77 -90 65 c-50 36 -141 115 -203 175 l-111 110 44
-100z"/>
<path d="M4565 4666 c-49 -51 -140 -129 -201 -174 l-111 -83 -7 -69 c-13 -141
-67 -238 -240 -429 -116 -129 -282 -267 -310 -258 -6 2 -26 30 -44 63 -29 53
-32 66 -30 128 2 49 -1 70 -10 73 -19 7 -112 -90 -112 -116 0 -13 9 -25 21
-30 16 -5 32 -35 60 -111 22 -56 39 -107 39 -112 0 -23 -244 -440 -388 -663
-270 -419 -561 -776 -918 -1125 -187 -183 -326 -298 -484 -403 -117 -78 -278
-160 -357 -183 -29 -9 -53 -18 -53 -21 0 -3 48 -2 107 2 342 20 604 84 847
206 184 92 364 238 442 360 89 139 325 391 460 492 102 76 227 185 279 245
l30 34 -37 39 c-20 21 -43 57 -49 80 -41 136 119 399 369 607 l51 43 21 -33
c75 -121 56 -237 -49 -295 -28 -16 -55 -38 -60 -50 -9 -20 -7 -23 27 -28 20
-4 41 -8 45 -9 5 -1 -1 -14 -13 -28 -26 -34 -125 -83 -212 -104 -38 -9 -68
-20 -68 -25 0 -17 40 -29 99 -29 60 0 61 0 61 -29 0 -19 -23 -60 -70 -127 -38
-54 -68 -100 -66 -101 2 -2 30 5 64 15 88 28 163 83 208 155 52 81 143 99 269
53 l65 -24 0 24 c0 15 -23 49 -65 95 -55 60 -65 76 -65 107 0 83 68 142 163
142 97 0 146 -40 169 -139 9 -40 15 -50 27 -46 51 19 132 80 196 146 155 162
245 436 245 746 l0 92 139 158 c77 86 139 159 137 160 -1 2 -70 -37 -152 -87
-88 -53 -155 -88 -165 -85 -28 9 -180 8 -189 -1 -5 -5 -12 -21 -15 -37 -6 -23
-1 -34 36 -71 24 -24 50 -45 57 -47 11 -4 12 -30 4 -144 -8 -128 -12 -145 -41
-204 -61 -120 -165 -198 -296 -222 -67 -12 -154 -3 -162 17 -3 8 11 32 30 53
46 51 64 86 82 163 15 64 19 209 7 240 -5 12 -18 -14 -42 -84 -41 -119 -79
-168 -129 -168 -73 0 -141 55 -141 113 0 37 29 85 69 115 29 21 29 23 16 49
-35 66 -9 174 68 282 18 25 38 58 44 72 29 66 137 149 196 149 13 0 17 8 17
33 0 77 68 289 154 480 14 31 25 57 23 56 -1 0 -42 -42 -92 -93z"/>
<path d="M2682 4495 c-98 -74 -163 -176 -187 -294 -20 -96 -28 -285 -16 -365
l10 -70 -33 -45 c-35 -48 -61 -114 -52 -129 3 -5 29 -1 58 9 172 60 274 -36
183 -171 -20 -29 -33 -55 -31 -57 3 -3 31 2 64 10 63 16 105 13 123 -9 8 -9
10 -40 7 -91 -5 -65 -11 -88 -50 -163 l-46 -88 120 -168 c65 -93 123 -170 127
-172 7 -2 213 281 244 335 4 6 -8 38 -27 70 -52 87 -83 231 -58 270 17 27 59
32 122 16 34 -8 63 -13 66 -10 3 2 -9 26 -27 51 -17 26 -33 64 -36 85 -4 32
-1 43 24 71 38 43 101 50 191 22 l62 -20 0 22 c-1 29 -32 95 -62 131 -25 29
-25 34 -16 85 13 72 3 318 -17 395 -9 33 -27 84 -42 114 -28 59 -127 164 -183
196 l-35 19 38 -44 c44 -52 79 -123 98 -200 20 -79 17 -305 -4 -347 -25 -48
-40 -46 -70 8 -57 100 -159 176 -252 186 -90 11 -227 -84 -284 -195 -19 -37
-24 -41 -41 -32 -29 15 -40 72 -40 205 0 178 28 276 107 373 19 23 32 42 30
42 -3 0 -32 -20 -65 -45z m196 -781 l-3 -116 -47 36 c-63 48 -102 115 -102
175 0 59 62 179 113 222 l36 29 3 -115 c1 -63 1 -167 0 -231z m232 289 c40
-45 80 -130 87 -183 9 -66 -56 -167 -136 -210 l-21 -11 0 231 c0 222 1 230 19
221 10 -6 33 -27 51 -48z m-73 -772 c18 -51 39 -115 47 -141 l14 -47 -65 -76
c-35 -43 -68 -77 -73 -77 -13 0 -130 146 -130 162 0 11 61 202 85 266 3 9 19
12 47 10 l43 -3 32 -94z"/>
<path d="M3162 1935 l-133 -145 40 -49 c22 -26 69 -73 103 -103 274 -237 588
-403 890 -469 105 -23 340 -36 403 -22 l40 9 -55 18 c-165 53 -394 189 -600
356 -126 103 -404 376 -489 483 -30 37 -57 67 -60 67 -4 0 -66 -65 -139 -145z"/>
</g>
</svg>
