<?xml version="1.0" standalone="no"?>
<!DOCTYPE svg PUBLIC "-//W3C//DTD SVG 20010904//EN"
 "http://www.w3.org/TR/2001/REC-SVG-20010904/DTD/svg10.dtd">
<svg version="1.0" xmlns="http://www.w3.org/2000/svg"
 width="591.000000pt" height="591.000000pt" viewBox="0 0 591.000000 591.000000"
 preserveAspectRatio="xMidYMid meet">

<g transform="translate(0.000000,591.000000) scale(0.100000,-0.100000)"
fill="#CCA419" stroke="none">
<path d="M2698 5026 c-99 -111 -110 -106 252 -106 l310 0 0 27 c0 20 -16 43
-57 85 l-57 58 -196 0 -195 0 -57 -64z m212 -26 l0 -30 -75 0 c-41 0 -75 4
-75 8 0 5 9 18 20 30 17 17 32 22 75 22 54 0 55 0 55 -30z m212 13 c35 -41 33
-43 -46 -43 l-76 0 0 30 c0 30 1 30 53 30 39 0 58 -5 69 -17z"/>
<path d="M2595 4881 c-16 -10 -45 -35 -64 -54 -29 -31 -32 -39 -21 -52 11 -13
65 -15 449 -13 l436 3 0 24 c0 18 -15 37 -53 68 l-53 43 -332 0 c-307 0 -334
-1 -362 -19z"/>
<path d="M710 4749 c0 -47 10 -68 116 -254 63 -112 121 -210 127 -219 7 -9
229 -82 537 -176 289 -89 539 -165 557 -171 18 -6 35 -19 38 -29 8 -24 -9 -57
-34 -65 -10 -3 -224 50 -482 119 -255 69 -465 124 -467 121 -8 -7 68 -137 116
-199 26 -33 49 -63 52 -67 3 -5 129 -35 280 -69 377 -83 350 -75 350 -111 0
-18 -6 -32 -16 -36 -8 -3 -137 18 -286 46 -149 28 -273 49 -276 46 -10 -9 27
-108 58 -157 l30 -48 274 0 c221 0 275 3 279 13 3 8 47 70 98 138 61 81 154
185 271 301 164 164 178 181 178 213 0 31 -4 38 -32 50 -52 21 -1748 605
-1758 605 -6 0 -10 -23 -10 -51z"/>
<path d="M4283 4493 l-883 -306 0 -46 c0 -45 2 -47 91 -126 143 -127 314 -319
410 -461 l50 -74 274 0 274 0 29 53 c31 54 66 146 58 154 -2 2 -123 -18 -269
-46 -146 -28 -274 -51 -285 -51 -37 0 -45 66 -9 75 12 3 153 35 312 70 280 63
291 66 319 97 61 70 157 230 145 242 -2 2 -211 -52 -464 -120 -253 -68 -465
-124 -471 -124 -19 0 -44 35 -44 62 0 24 14 29 564 198 l564 173 126 222 c116
204 127 227 124 266 -2 30 -8 44 -18 46 -8 1 -412 -136 -897 -304z"/>
<path d="M2612 4708 c-9 -9 -12 -112 -12 -403 l0 -390 -91 -60 c-105 -69 -206
-172 -262 -266 -37 -64 -87 -201 -87 -241 0 -19 -4 -20 -56 -15 -31 3 -78 14
-106 24 -43 15 -50 15 -59 3 -15 -22 -6 -259 12 -295 13 -27 20 -30 66 -33 29
-2 68 1 86 6 l34 10 7 -76 c11 -137 10 -142 -24 -142 -37 0 -38 -13 -10 -96
22 -63 57 -122 98 -166 20 -22 35 -28 68 -28 39 0 47 -5 117 -78 42 -42 100
-93 131 -112 l55 -35 -6 -71 -6 -71 38 -7 c20 -4 38 -6 40 -4 1 2 6 28 11 58
6 38 14 56 25 58 21 4 28 -38 19 -109 -5 -40 -13 -57 -33 -74 -24 -18 -27 -28
-27 -78 l0 -57 130 0 130 0 0 93 c0 130 7 166 35 173 13 3 33 1 44 -6 20 -10
21 -19 21 -135 l0 -125 130 0 130 0 0 60 c0 49 -3 61 -20 70 -40 21 -55 181
-18 188 18 3 21 -4 33 -80 6 -40 16 -45 59 -28 25 9 26 11 20 77 l-5 68 42 25
c23 14 82 64 130 113 82 82 90 87 129 87 34 0 47 6 72 32 40 42 74 103 98 173
27 80 26 85 -16 85 -33 0 -36 2 -30 23 3 12 6 61 6 108 l0 87 38 -9 c59 -14
129 -11 146 6 8 8 18 37 23 63 12 70 9 240 -4 253 -9 9 -24 7 -60 -5 -26 -9
-71 -19 -99 -22 l-51 -6 -16 68 c-46 188 -196 381 -369 477 l-58 32 0 388 c0
248 -4 395 -10 408 -10 17 -22 19 -125 19 -103 0 -115 -2 -125 -19 -6 -12 -10
-115 -10 -265 l0 -246 -90 0 -90 0 0 253 c0 183 -3 256 -12 265 -8 8 -49 12
-118 12 -69 0 -110 -4 -118 -12z m520 -854 c120 -36 213 -99 375 -256 72 -70
126 -165 149 -264 21 -90 15 -359 -11 -449 -57 -203 -189 -368 -375 -464 -127
-66 -200 -86 -320 -86 -92 1 -116 4 -192 32 -343 121 -530 400 -528 788 1 146
38 276 109 379 39 56 212 209 290 257 64 39 143 67 224 80 70 11 213 2 279
-17z"/>
<path d="M2853 3733 c-9 -3 -13 -28 -13 -72 l0 -68 -39 -11 c-55 -17 -56 -17
-96 38 -20 28 -41 50 -47 50 -18 0 -168 -113 -168 -127 0 -8 16 -35 35 -60 19
-25 35 -49 35 -54 0 -18 -46 -78 -60 -78 -8 -1 -37 6 -65 14 -39 12 -51 13
-61 3 -16 -18 -58 -174 -51 -192 3 -8 33 -22 66 -32 46 -12 61 -21 61 -35 0
-13 -13 -21 -55 -30 -89 -20 -88 -19 -60 -128 13 -52 29 -97 35 -101 7 -4 35
-1 64 6 66 18 61 19 86 -16 l21 -30 -45 -54 c-25 -29 -46 -58 -46 -63 0 -9
119 -120 147 -136 6 -4 32 15 60 44 l49 51 67 -24 67 -23 0 -60 c0 -34 5 -66
12 -73 8 -8 45 -12 99 -12 109 0 119 8 119 90 l0 59 40 12 c22 7 41 10 43 8
33 -48 82 -99 93 -95 33 13 154 112 154 127 0 9 -15 36 -33 60 l-34 43 35 49
c25 34 39 46 51 42 32 -13 111 -28 116 -23 8 7 55 170 55 190 0 12 -16 21 -54
32 -30 9 -59 16 -65 16 -6 0 -11 9 -11 20 0 14 11 22 43 30 64 16 87 28 87 45
0 36 -43 184 -55 189 -7 2 -39 -2 -70 -10 -53 -14 -58 -14 -71 3 -19 26 -18
31 21 79 19 23 35 49 35 57 0 17 -131 137 -150 137 -7 0 -29 -18 -49 -40 l-36
-40 -72 27 -73 28 0 53 c0 88 -6 92 -113 91 -51 0 -98 -3 -104 -6z m228 -361
c62 -30 117 -86 147 -151 21 -46 24 -63 20 -135 -5 -98 -30 -150 -104 -215
-124 -109 -322 -89 -426 42 -130 165 -62 399 139 473 56 21 167 14 224 -14z"/>
<path d="M2884 3242 c-82 -39 -114 -147 -66 -224 24 -39 91 -78 133 -78 36 0
110 40 133 73 29 40 29 134 0 173 -51 69 -126 90 -200 56z"/>
<path d="M1581 3343 c36 -61 69 -105 115 -153 33 -35 46 -59 59 -110 24 -96
113 -273 184 -367 57 -76 204 -223 223 -223 4 0 -18 31 -49 69 -109 129 -202
314 -238 471 -18 77 -25 284 -11 328 l7 22 -156 0 -157 0 23 -37z"/>
<path d="M4044 3223 c0 -143 -3 -167 -27 -247 -49 -158 -135 -314 -246 -446
l-46 -55 41 32 c181 142 333 370 385 578 8 32 26 64 50 90 40 43 139 183 139
197 0 4 -66 8 -147 8 l-148 0 -1 -157z"/>
<path d="M1449 3216 c-53 -51 -99 -104 -102 -118 -4 -14 -2 -40 4 -57 12 -35
41 -47 93 -38 32 5 35 3 61 -45 22 -41 25 -52 14 -59 -8 -5 -40 -25 -71 -45
-32 -19 -58 -38 -58 -41 0 -8 71 -103 77 -103 3 0 28 8 55 18 l49 17 40 -42
c24 -27 39 -52 39 -68 0 -26 -10 -33 -83 -58 -16 -6 -14 -13 18 -77 19 -38 40
-70 46 -70 6 0 30 12 55 26 l44 26 42 -33 c24 -18 45 -34 47 -35 2 -2 -13 -23
-33 -47 -20 -24 -36 -47 -36 -51 0 -15 324 -346 334 -343 6 2 15 22 20 44 l8
41 52 -24 c28 -13 59 -24 69 -24 14 0 17 -9 17 -55 l0 -55 -112 1 c-62 0 -121
4 -131 7 -9 4 -30 35 -47 70 -27 57 -32 62 -61 62 -45 0 -102 -19 -133 -44
-24 -19 -25 -24 -16 -57 13 -48 -1 -86 -37 -101 -16 -6 -164 -74 -331 -151
l-303 -140 3 -31 c3 -30 4 -31 68 -38 80 -9 140 -34 140 -60 0 -36 74 -15 151
44 99 75 291 158 366 158 55 0 76 -19 117 -105 49 -105 196 -252 171 -172 -53
171 -60 315 -15 362 17 19 25 38 26 72 3 70 50 87 84 31 30 -50 26 -77 -11
-85 -28 -5 -30 -9 -25 -36 3 -16 6 -41 6 -55 0 -23 2 -24 43 -19 l44 6 161
-329 c167 -342 192 -380 192 -285 l0 45 54 0 53 0 18 -81 c9 -44 21 -96 26
-115 l10 -34 74 0 75 0 0 115 0 115 45 0 45 0 0 -115 0 -116 73 3 72 3 29 112
29 113 53 0 54 0 0 -45 c0 -31 4 -45 13 -45 8 0 83 142 175 330 l162 331 36
-7 c44 -8 54 4 54 64 0 34 -3 42 -19 42 -10 0 -24 6 -30 14 -18 21 14 94 45
102 31 8 57 -13 50 -39 -6 -22 16 -82 40 -108 34 -38 26 -192 -17 -316 -10
-29 -15 -53 -11 -53 3 0 23 12 44 27 47 32 94 95 142 190 40 81 55 90 134 80
82 -10 205 -68 372 -177 25 -16 59 -32 76 -36 26 -5 32 -2 37 15 7 28 63 50
143 58 l65 6 -3 35 -3 35 -245 114 c-135 63 -276 128 -315 145 -100 43 -107
51 -103 117 3 52 1 56 -30 77 -35 24 -111 40 -138 30 -9 -3 -28 -33 -42 -65
-17 -38 -34 -62 -47 -65 -11 -3 -68 -6 -127 -6 l-108 0 0 54 c0 53 1 55 33 61
17 4 46 15 64 25 36 21 38 20 48 -33 4 -20 10 -37 14 -37 6 0 224 219 304 306
l38 41 -35 42 c-20 24 -36 46 -36 50 0 4 19 21 43 38 l42 31 45 -24 c25 -13
50 -23 55 -24 13 0 78 128 71 139 -3 4 -23 13 -45 21 -22 7 -43 21 -46 31 -8
25 19 73 56 100 31 22 32 22 81 4 27 -9 50 -16 52 -14 1 2 19 26 40 54 l37 49
-71 44 c-38 24 -70 49 -70 56 0 6 11 29 24 50 23 39 25 40 74 37 42 -2 52 1
66 21 9 12 16 39 16 59 0 33 -9 45 -101 134 -56 53 -105 93 -109 88 -4 -4 -37
-49 -72 -99 -59 -81 -68 -101 -91 -192 -59 -235 -175 -427 -337 -559 -89 -73
-244 -149 -350 -171 l-85 -19 -3 -191 -2 -192 -460 0 -460 0 0 193 0 192 -67
13 c-159 30 -324 124 -451 256 -124 129 -206 286 -256 488 -18 75 -31 101 -91
187 -39 55 -72 100 -75 100 -3 0 -48 -42 -101 -93z m1975 -1518 c-10 -13 -30
-35 -43 -50 l-25 -28 -403 0 -403 0 -38 41 c-20 23 -38 45 -40 50 -2 5 208 9
484 9 l487 0 -19 -22z m-414 -383 l0 -195 -60 0 -60 0 0 195 0 195 60 0 60 0
0 -195z m-316 19 c3 -9 6 -60 6 -115 l0 -99 -57 0 c-84 0 -93 12 -93 125 0 50
3 95 7 98 3 4 34 7 69 7 47 0 63 -4 68 -16z m654 -89 c3 -117 -2 -125 -85
-125 l-53 0 0 108 c0 60 3 112 7 116 4 4 34 6 68 4 l60 -3 3 -100z"/>
</g>
</svg>
