<?xml version="1.0" standalone="no"?>
<!DOCTYPE svg PUBLIC "-//W3C//DTD SVG 20010904//EN"
 "http://www.w3.org/TR/2001/REC-SVG-20010904/DTD/svg10.dtd">
<svg version="1.0" xmlns="http://www.w3.org/2000/svg"
 width="591.000000pt" height="591.000000pt" viewBox="0 0 591.000000 591.000000"
 preserveAspectRatio="xMidYMid meet">

<g transform="translate(0.000000,591.000000) scale(0.100000,-0.100000)"
fill="#CCA419" stroke="none">
<path d="M2806 5489 c-81 -13 -129 -73 -134 -168 l-4 -69 -34 23 c-82 55 -175
35 -237 -51 -77 -105 -84 -199 -22 -261 43 -43 65 -43 65 0 0 39 32 94 64 108
29 14 70 -5 121 -56 76 -76 99 -171 93 -377 -4 -159 -23 -212 -97 -281 -78
-73 -199 -106 -388 -107 -198 0 -297 49 -355 175 -17 38 -22 69 -23 132 0 75
2 85 30 124 17 24 53 57 80 74 42 26 58 30 119 30 97 -1 155 -28 196 -91 58
-92 34 -170 -60 -199 l-25 -7 22 23 c34 37 38 70 12 103 -79 101 -229 40 -229
-94 0 -49 17 -85 62 -126 42 -40 85 -54 162 -54 94 0 134 16 193 74 86 86 102
187 51 325 -39 104 -123 166 -263 196 -110 23 -195 20 -273 -11 -145 -58 -270
-162 -323 -269 -32 -66 -69 -222 -69 -296 0 -53 17 -109 33 -110 7 0 53 0 104
1 158 3 245 -36 278 -124 13 -34 14 -48 6 -65 -16 -29 -25 -26 -39 13 -27 73
-125 127 -201 109 -51 -12 -51 -35 1 -66 52 -30 124 -101 145 -141 9 -17 13
-46 11 -72 -3 -37 -1 -43 12 -38 8 4 51 18 95 32 66 20 101 25 205 25 155 1
228 -16 368 -84 l103 -50 22 27 c117 144 222 323 253 430 l16 56 24 -72 c14
-39 35 -93 49 -120 28 -56 151 -240 192 -288 l28 -33 87 44 c164 84 337 112
505 83 50 -9 113 -24 140 -35 l48 -19 0 47 c0 75 36 120 181 227 39 30 22 47
-48 47 -72 1 -124 -25 -159 -81 -16 -25 -30 -50 -33 -56 -3 -7 -8 -6 -15 4
-34 47 14 136 91 171 46 21 70 24 173 26 113 1 120 2 135 24 33 50 1 279 -55
390 -52 102 -160 193 -305 256 -63 27 -87 33 -151 33 -82 0 -204 -27 -266 -59
-124 -63 -195 -247 -148 -382 37 -105 115 -160 235 -167 119 -7 188 26 230
109 25 48 25 82 1 136 -33 72 -102 98 -170 64 -64 -33 -78 -79 -40 -132 23
-33 20 -35 -21 -14 -39 20 -70 62 -70 94 1 34 32 99 64 133 53 55 194 72 272
31 55 -29 111 -94 120 -138 13 -70 -1 -168 -32 -225 -63 -115 -134 -145 -349
-145 -257 0 -376 51 -448 190 -49 95 -47 367 2 481 22 50 71 106 117 135 31
19 38 20 66 8 32 -13 67 -74 68 -116 0 -13 3 -23 6 -23 17 0 63 36 78 60 62
106 -63 320 -187 320 -13 0 -48 -12 -78 -27 l-54 -28 -1 61 c-2 69 -21 113
-63 143 -32 23 -98 38 -148 33 l-33 -3 40 -38 c36 -34 40 -43 40 -88 0 -27 -7
-72 -15 -99 -18 -59 -86 -196 -101 -201 -15 -5 -102 183 -114 246 -14 76 1
126 46 153 19 11 34 21 34 23 0 7 -79 10 -114 4z m335 -424 c-87 -90 -141
-224 -141 -348 0 -91 23 -227 51 -301 24 -66 120 -198 181 -250 87 -75 244
-130 407 -143 81 -6 84 -7 46 -16 -70 -16 -223 -1 -304 29 -96 36 -203 107
-268 178 -64 69 -140 217 -149 289 l-7 51 -19 -68 c-55 -200 -171 -336 -363
-427 -92 -43 -169 -60 -269 -58 -121 2 -143 14 -41 22 155 12 316 66 405 137
55 44 155 181 180 247 27 73 47 166 55 263 12 133 -34 269 -127 381 -39 47
-46 61 -33 65 8 4 22 0 31 -7 31 -25 118 -164 151 -239 18 -41 33 -66 33 -55
0 32 71 166 129 244 47 63 54 69 72 58 18 -11 17 -14 -20 -52z"/>
<path d="M1200 4225 c-109 -25 -205 -79 -290 -164 -158 -158 -260 -330 -300
-506 -21 -87 -22 -113 -17 -268 9 -249 51 -435 129 -564 49 -82 218 -249 326
-322 149 -101 310 -193 536 -308 278 -140 376 -201 414 -254 11 -16 6 -26 -35
-78 -163 -202 -239 -441 -193 -605 26 -93 109 -145 213 -132 67 7 108 34 135
86 33 67 30 145 -9 228 -28 57 -31 72 -26 125 11 121 134 314 262 411 l37 29
78 -42 c42 -22 84 -41 91 -41 28 0 145 85 214 155 78 79 134 168 166 263 l21
63 23 -64 c33 -95 80 -171 154 -250 64 -68 199 -167 228 -167 8 0 48 18 89 41
87 48 84 49 183 -50 102 -102 172 -225 193 -339 11 -59 10 -63 -21 -127 -41
-84 -47 -128 -27 -196 30 -106 121 -151 239 -118 98 27 144 118 134 264 -11
144 -69 285 -183 438 -35 48 -64 91 -64 96 0 17 83 82 168 132 46 28 168 92
270 143 416 208 648 366 781 532 121 150 169 297 193 589 28 342 -58 573 -306
821 -78 78 -116 108 -169 133 -87 41 -193 64 -283 59 -142 -7 -340 -135 -436
-282 -21 -33 -38 -66 -38 -75 0 -9 25 -52 57 -95 l56 -78 19 38 c23 48 49 76
116 126 80 60 127 78 203 78 129 0 271 -66 357 -166 50 -58 135 -225 157 -309
9 -33 19 -123 22 -200 9 -229 -28 -360 -146 -508 -107 -134 -296 -298 -446
-387 -119 -71 -222 -140 -290 -195 -62 -51 -70 -41 -24 28 21 32 55 62 106 94
218 139 497 355 589 457 62 68 125 188 151 286 11 43 17 101 16 175 -1 174
-47 334 -126 433 -45 58 -153 139 -215 162 -102 39 -237 19 -335 -49 -137 -94
-186 -220 -174 -446 5 -86 3 -125 -10 -177 -20 -77 -16 -85 53 -117 104 -50
299 -68 391 -37 72 24 134 82 169 158 25 54 29 75 29 150 0 80 -2 89 -30 129
-63 89 -191 119 -257 60 -30 -27 -33 -34 -32 -90 1 -75 14 -93 63 -85 28 5 40
1 54 -14 25 -28 18 -70 -15 -95 -26 -20 -28 -20 -75 -2 -64 24 -128 88 -143
144 -38 141 95 295 240 278 58 -7 89 -22 157 -76 75 -59 96 -109 101 -246 5
-122 -6 -194 -42 -270 -35 -75 -106 -164 -178 -221 -109 -89 -98 -88 -166 -13
-69 75 -132 112 -227 134 -71 17 -148 9 -206 -21 -54 -27 -109 -113 -109 -170
0 -6 -10 -19 -21 -30 -42 -37 -61 -124 -40 -177 6 -18 8 -18 21 -2 23 27 96
66 114 59 10 -4 16 -18 16 -35 0 -24 -7 -32 -48 -53 -26 -13 -58 -33 -72 -44
l-24 -20 12 -86 c8 -57 9 -92 3 -104 -5 -9 -59 -66 -120 -127 -105 -103 -111
-108 -125 -90 -12 17 -11 23 9 47 29 34 59 113 76 197 17 87 1 155 -50 213
-32 35 -59 52 -157 92 -66 27 -123 53 -128 58 -6 4 22 8 60 8 188 0 370 91
463 232 40 59 42 66 36 114 -6 48 -3 59 41 146 25 51 56 106 67 121 11 16 25
48 32 70 12 39 10 46 -16 96 -16 30 -29 63 -29 74 0 11 20 38 45 61 65 61 59
112 -18 146 -63 28 -148 33 -290 17 -107 -13 -139 -20 -201 -50 -129 -61 -278
-170 -475 -347 -58 -52 -102 -87 -99 -79 68 171 95 208 187 258 96 51 116 98
60 145 -35 29 -56 32 -102 12 -64 -27 -158 -159 -201 -285 l-12 -33 -29 68
c-59 142 -140 242 -208 259 -38 10 -85 -12 -103 -48 -15 -28 -14 -32 4 -56 10
-14 43 -40 73 -58 81 -48 125 -98 165 -193 39 -94 41 -94 -61 1 -92 86 -254
216 -341 274 -143 95 -193 114 -346 131 -224 25 -327 1 -353 -84 -6 -20 2 -32
45 -74 59 -56 60 -71 13 -143 -24 -36 -25 -43 -14 -82 6 -24 22 -61 35 -81 13
-21 44 -79 69 -129 41 -81 45 -94 37 -129 -12 -50 13 -103 81 -178 97 -106
227 -163 399 -174 l95 -7 -129 -54 c-143 -60 -183 -92 -211 -165 -33 -86 6
-279 69 -345 25 -26 26 -28 9 -43 -17 -15 -26 -9 -135 97 -130 124 -127 116
-107 234 9 59 8 65 -12 87 -12 12 -46 35 -75 51 -56 29 -70 57 -40 82 17 14
78 -13 110 -48 11 -12 23 -21 28 -21 4 0 8 30 8 68 0 49 -5 76 -20 100 -11 17
-24 32 -29 32 -5 0 -14 21 -20 48 -19 73 -52 116 -116 147 -134 66 -332 8
-434 -126 -20 -26 -41 -48 -47 -48 -19 -1 -139 95 -193 156 -75 83 -119 178
-132 283 -11 88 -6 187 14 254 25 88 169 196 261 196 46 0 119 -30 154 -63 41
-38 72 -111 72 -170 0 -42 -6 -63 -29 -99 -55 -86 -171 -129 -212 -79 -13 16
-17 31 -13 50 9 39 33 53 76 46 35 -6 39 -4 49 22 6 15 9 52 6 82 -3 44 -9 59
-31 78 -53 45 -176 23 -238 -43 -37 -40 -49 -78 -49 -155 0 -149 88 -275 215
-310 115 -32 366 12 425 75 l23 24 -20 66 c-17 57 -19 76 -10 148 12 100 -1
217 -33 303 -29 77 -101 150 -194 196 -64 31 -77 34 -160 34 -82 0 -97 -3
-155 -32 -192 -95 -293 -275 -307 -543 -5 -97 -2 -128 16 -200 48 -190 115
-284 320 -448 157 -127 275 -212 386 -281 86 -53 131 -95 156 -143 28 -55 23
-61 -18 -22 -44 41 -241 175 -334 227 -130 73 -380 302 -464 427 -91 132 -127
308 -105 517 27 267 150 473 338 566 83 41 89 42 181 42 80 0 104 -4 142 -23
61 -30 172 -132 194 -178 l17 -36 60 83 61 83 -26 51 c-58 109 -176 214 -314
277 -82 38 -190 46 -293 23z m813 -641 c18 -9 61 -40 97 -70 72 -59 299 -284
287 -284 -13 0 -125 67 -193 115 -65 47 -188 173 -217 224 -21 36 -18 37 26
15z m1917 7 c0 -17 -91 -130 -143 -177 -59 -53 -170 -130 -236 -164 l-44 -22
54 62 c94 109 329 310 361 310 5 0 8 -4 8 -9z m-1905 -233 c27 -39 79 -95 115
-125 74 -62 234 -144 330 -169 76 -21 79 -22 60 -34 -63 -40 -329 35 -458 129
-60 44 -122 143 -122 193 0 33 14 78 24 78 1 0 24 -32 51 -72z m1924 41 c6
-18 11 -41 11 -51 0 -57 -82 -160 -173 -219 -112 -73 -355 -132 -407 -99 -19
11 -23 9 98 49 56 19 136 54 178 78 91 53 198 153 239 222 17 28 33 51 37 51
3 0 11 -14 17 -31z m-959 -409 c20 -61 22 -84 17 -183 -3 -80 -11 -130 -27
-175 -26 -75 -34 -72 -61 25 -27 96 -34 188 -20 268 13 71 46 149 60 141 5 -3
19 -37 31 -76z m-190 -32 c0 -43 -37 -92 -98 -130 -34 -21 -49 -23 -177 -23
-137 0 -142 1 -207 32 -60 28 -175 119 -164 130 2 2 30 -7 62 -20 160 -67 309
-89 398 -58 51 18 108 71 131 121 l18 41 19 -28 c10 -16 18 -45 18 -65z m438
-39 c54 -34 139 -53 201 -44 74 10 187 43 256 74 56 26 64 27 55 11 -15 -28
-88 -85 -145 -113 -78 -40 -134 -50 -253 -46 -100 4 -113 7 -157 34 -26 17
-57 43 -69 58 -26 35 -27 92 -2 129 l18 28 26 -51 c17 -36 39 -60 70 -80z
m-1460 -102 c19 -22 24 -63 10 -75 -11 -8 -25 -7 -58 4 -65 23 -101 12 -150
-44 -23 -26 -51 -63 -61 -82 l-19 -35 6 40 c3 22 12 58 20 81 15 43 77 109
109 117 43 10 133 7 143 -6z m2499 2 c62 -23 109 -94 119 -176 l5 -48 -18 32
c-30 52 -99 122 -129 129 -18 5 -45 1 -73 -9 -51 -18 -71 -10 -71 29 0 38 26
54 85 54 30 0 66 -5 82 -11z m-2537 -188 c15 -29 12 -44 -7 -37 -24 10 -60
-29 -78 -85 -18 -53 -28 -60 -45 -30 -24 47 4 115 62 151 41 25 55 25 68 1z
m2501 -5 c60 -41 81 -107 50 -156 -13 -19 -24 -7 -46 52 -21 58 -46 82 -74 73
-25 -8 -27 3 -5 33 19 28 31 28 75 -2z m-1431 -6 c26 -14 40 -64 39 -144 l0
-71 -103 -84 c-114 -93 -140 -107 -173 -92 -30 14 -83 108 -83 149 0 28 10 43
68 96 163 152 200 174 252 146z m372 -6 c49 -25 227 -193 234 -220 9 -34 -49
-151 -82 -166 -34 -16 -58 -2 -174 94 -94 77 -99 83 -105 127 -7 58 7 136 30
161 22 24 55 25 97 4z m-1351 -134 c5 0 16 -11 24 -24 14 -21 14 -28 1 -65
-18 -53 -8 -101 41 -194 35 -67 157 -203 228 -256 24 -18 27 -24 15 -31 -28
-18 -42 -9 -139 88 -110 109 -165 196 -192 303 -10 36 -27 81 -38 100 -12 19
-21 37 -21 42 0 16 42 48 57 43 8 -3 19 -6 24 -6z m2297 -6 c27 -19 28 -55 2
-79 -11 -10 -20 -28 -20 -40 0 -37 -40 -141 -78 -204 -51 -84 -102 -143 -180
-207 -60 -49 -68 -53 -82 -38 -14 14 -13 17 10 35 61 49 166 159 202 212 22
32 49 86 60 119 19 54 20 67 9 109 -15 56 -9 82 22 97 29 14 29 14 55 -4z
m-2097 -866 c-41 -73 -71 -168 -71 -224 0 -26 10 -73 21 -105 25 -68 21 -89
-18 -89 -33 0 -46 8 -60 35 -25 47 -25 102 0 192 34 123 58 173 109 229 53 58
63 40 19 -38z m1862 42 c46 -50 68 -95 101 -201 49 -162 27 -259 -58 -259 -22
0 -26 5 -26 28 0 15 9 51 20 80 11 29 20 62 20 75 0 44 -31 143 -70 224 -22
45 -40 84 -40 87 0 16 21 2 53 -34z"/>
<path d="M2280 1705 c-8 -9 -16 -46 -18 -81 -4 -58 -6 -63 -22 -54 -26 14 -66
12 -79 -3 -26 -32 -24 -72 7 -123 52 -85 65 -138 69 -274 6 -192 -14 -261
-186 -624 -69 -145 -70 -144 55 -44 226 178 358 426 371 695 l6 112 40 -31
c84 -67 179 -225 217 -360 11 -40 25 -127 31 -193 15 -159 13 -155 54 -115 46
44 55 81 55 219 0 402 -149 776 -343 862 -71 31 -235 40 -257 14z m158 -75
c52 -32 168 -153 212 -222 39 -59 89 -193 77 -205 -3 -2 -16 15 -28 39 -29 58
-91 148 -118 172 -12 11 -40 22 -63 25 -49 7 -81 43 -82 95 -1 24 -11 45 -29
64 -48 50 -30 69 31 32z"/>
<path d="M3406 1703 c-73 -22 -129 -65 -181 -137 -117 -164 -184 -393 -201
-686 -8 -135 5 -209 47 -261 17 -22 36 -38 43 -36 7 2 14 48 18 118 9 143 36
249 92 364 44 89 141 211 188 236 19 10 20 9 14 -24 -10 -55 12 -209 44 -310
53 -165 153 -312 295 -437 61 -53 145 -115 145 -106 0 2 -40 90 -90 195 -99
213 -132 307 -150 430 -21 144 5 300 66 393 27 42 31 94 11 123 -11 14 -22 17
-54 12 l-40 -7 -7 56 c-11 91 -14 94 -109 93 -45 0 -104 -7 -131 -16z m124
-63 c0 -5 -13 -25 -30 -43 -21 -24 -30 -45 -30 -69 0 -52 -32 -88 -79 -88 -30
0 -44 -8 -78 -42 -23 -24 -63 -79 -89 -123 -45 -79 -46 -79 -40 -38 17 116
137 284 280 391 30 23 66 29 66 12z"/>
</g>
</svg>
