<?xml version="1.0" standalone="no"?>
<!DOCTYPE svg PUBLIC "-//W3C//DTD SVG 20010904//EN"
 "http://www.w3.org/TR/2001/REC-SVG-20010904/DTD/svg10.dtd">
<svg version="1.0" xmlns="http://www.w3.org/2000/svg"
 width="591.000000pt" height="591.000000pt" viewBox="0 0 591.000000 591.000000"
 preserveAspectRatio="xMidYMid meet">

<g transform="translate(0.000000,591.000000) scale(0.100000,-0.100000)"
fill="#CCA419" stroke="none">
<path d="M2700 4974 c-131 -10 -325 -35 -442 -58 -136 -26 -378 -88 -363 -92
6 -2 89 -8 185 -14 365 -23 620 -78 710 -155 8 -7 56 -18 105 -25 221 -30 452
-89 503 -128 20 -16 5 -14 -115 10 -180 37 -375 48 -423 24 -51 -25 -97 -29
-198 -17 -157 19 -318 -10 -362 -67 -20 -25 -20 -25 -41 -6 -26 24 -49 67 -49
93 0 21 48 66 82 76 32 10 58 35 58 56 0 21 -8 24 -120 43 -171 29 -320 40
-535 39 -317 0 -546 -34 -799 -117 -110 -37 -312 -124 -304 -132 2 -1 46 6 98
16 247 47 529 68 700 51 197 -20 309 -60 387 -137 65 -65 59 -96 -44 -232
-106 -139 -252 -409 -241 -443 2 -6 42 19 90 55 226 171 467 309 559 322 46 6
89 -7 89 -26 0 -6 -18 -37 -41 -70 -69 -101 -106 -239 -81 -302 6 -14 18 -8
77 37 133 104 270 153 359 131 40 -10 96 -64 96 -92 0 -44 -39 -104 -87 -134
-57 -36 -112 -45 -209 -33 l-77 9 -14 -34 c-8 -19 -13 -35 -11 -36 282 -138
457 -267 626 -460 106 -121 155 -194 212 -311 127 -265 195 -532 172 -676 -7
-47 -19 -70 -78 -147 -38 -49 -78 -93 -89 -96 -34 -10 -211 -7 -263 5 -93 19
-94 24 -28 122 31 48 66 93 77 101 25 17 24 84 -1 77 -8 -2 -64 -19 -125 -38
-60 -19 -143 -37 -182 -40 l-73 -6 -62 -79 c-35 -43 -84 -110 -110 -148 l-46
-69 -7 94 c-7 85 -1 187 12 221 3 8 -16 18 -54 29 -78 23 -218 96 -295 154
-234 178 -402 472 -469 824 -12 62 -24 119 -27 127 -11 35 -23 -66 -29 -240
-8 -266 23 -443 112 -636 111 -242 434 -593 726 -789 113 -77 304 -169 414
-200 154 -44 370 -68 443 -49 27 8 28 31 5 73 -24 41 -13 56 68 103 111 63
116 59 118 -97 1 -149 -35 -249 -121 -339 -45 -47 -48 -52 -31 -64 37 -28 94
-52 169 -73 65 -18 96 -21 189 -16 191 8 286 54 384 185 82 109 156 280 194
452 l15 65 -26 -35 c-117 -152 -228 -253 -337 -305 -92 -45 -151 -54 -170 -29
-36 48 0 124 58 124 15 0 27 5 27 11 0 14 -79 94 -98 100 -19 6 -34 94 -26
149 10 73 28 95 156 192 67 50 157 122 199 159 76 67 157 165 146 176 -3 3
-34 -13 -69 -34 -143 -91 -231 -123 -244 -89 -9 23 16 203 41 303 28 110 91
235 152 303 43 48 47 50 84 44 37 -6 42 -4 78 34 22 22 49 59 62 81 12 23 26
41 31 41 4 0 15 -11 24 -25 37 -57 -10 -299 -97 -502 l-20 -48 27 25 c96 89
201 331 238 550 38 229 29 372 -34 508 -29 62 -125 176 -141 167 -17 -11 -22
-97 -8 -138 19 -56 16 -166 -5 -222 -29 -75 -105 -125 -191 -125 -17 0 -36 5
-43 12 -19 19 -14 75 13 128 34 67 27 79 -45 77 -77 -3 -96 14 -94 82 3 79 70
201 111 201 23 0 14 40 -11 51 -49 23 -225 -53 -412 -178 -93 -62 -177 -145
-172 -171 4 -23 64 -51 138 -65 42 -8 62 -17 66 -29 11 -35 62 -51 136 -44
l67 6 -49 -65 c-28 -36 -53 -77 -56 -90 -8 -33 -36 -32 -94 1 -42 24 -45 24
-58 7 -17 -24 -8 -68 23 -108 18 -24 27 -54 35 -116 17 -138 17 -139 -29 -139
-31 0 -44 6 -63 28 -13 15 -98 178 -190 362 -92 184 -197 385 -233 445 -46 77
-67 120 -67 144 0 55 51 109 128 136 30 10 40 19 42 39 2 14 -1 26 -6 26 -15
0 -103 81 -134 124 -83 115 20 247 228 291 82 17 262 19 336 4 79 -17 158 -61
211 -118 l48 -51 24 29 c41 48 103 71 193 71 43 0 103 -7 133 -16 104 -31 284
-133 409 -233 244 -195 356 -304 471 -457 149 -199 263 -476 285 -691 9 -86
20 -59 29 69 13 170 -24 424 -91 627 -43 129 -152 354 -231 476 -175 267 -485
572 -795 783 -134 92 -554 207 -898 247 -132 15 -492 27 -600 19z m835 -2515
c-9 -27 -45 -69 -60 -69 -8 0 -19 10 -26 21 -10 19 -6 27 32 65 41 42 44 43
51 23 5 -12 6 -30 3 -40z"/>
<path d="M2708 2818 c-189 -270 -335 -566 -409 -832 -22 -80 -21 -79 58 31
135 190 406 489 473 523 60 30 95 33 142 12 41 -18 108 -82 108 -102 0 -21 18
-9 30 19 17 41 -2 129 -46 220 -27 54 -58 95 -113 150 -58 58 -79 87 -91 124
l-15 49 -137 -194z"/>
<path d="M4683 2963 c44 -161 -38 -350 -240 -550 -89 -88 -101 -109 -87 -147
5 -12 19 -5 65 34 76 63 117 86 132 71 22 -22 -65 -164 -157 -254 -71 -70
-120 -100 -211 -128 -148 -45 -275 -132 -376 -259 -65 -81 -76 -105 -60 -124
11 -13 20 -8 64 35 144 139 367 172 469 69 32 -32 38 -44 38 -81 0 -48 -33
-128 -76 -184 -25 -33 -25 -35 -6 -35 24 0 155 136 244 255 186 247 290 510
318 802 20 202 -12 421 -70 484 -31 32 -54 38 -47 12z"/>
</g>
</svg>
