<?xml version="1.0" standalone="no"?>
<!DOCTYPE svg PUBLIC "-//W3C//DTD SVG 20010904//EN"
 "http://www.w3.org/TR/2001/REC-SVG-20010904/DTD/svg10.dtd">
<svg version="1.0" xmlns="http://www.w3.org/2000/svg"
 width="591.000000pt" height="591.000000pt" viewBox="0 0 591.000000 591.000000"
 preserveAspectRatio="xMidYMid meet">

<g transform="translate(0.000000,591.000000) scale(0.100000,-0.100000)"
fill="#CCA419" stroke="none">
<path d="M2210 5554 c0 -9 40 -174 90 -368 l90 -351 -15 -49 c-8 -27 -15 -70
-15 -96 0 -43 2 -47 35 -63 43 -20 47 -53 9 -67 -14 -6 -32 -10 -40 -10 -21 0
-54 37 -54 61 0 11 -9 34 -21 50 -25 36 -60 38 -169 8 -81 -21 -131 -54 -171
-111 l-23 -31 46 6 c95 13 112 4 183 -98 36 -51 70 -97 77 -102 19 -16 52 1
83 41 44 58 117 57 195 -3 72 -56 129 -91 148 -91 28 0 49 29 55 77 7 59 60
168 91 188 20 13 43 16 103 13 l78 -3 -4 136 -3 136 62 45 c37 28 57 49 50 53
-6 4 -46 9 -88 12 -71 5 -84 3 -153 -26 -42 -17 -87 -43 -100 -57 -21 -23 -22
-27 -10 -67 25 -84 25 -93 -4 -116 -54 -42 -90 -19 -60 38 16 31 15 32 -21 76
-20 25 -51 57 -69 72 -27 23 -62 94 -185 371 -122 273 -156 342 -171 342 -11
0 -19 -7 -19 -16z"/>
<path d="M2945 4385 c-88 -90 -174 -140 -295 -172 -84 -22 -280 -22 -368 -1
l-63 16 -77 -58 c-286 -213 -472 -551 -517 -935 l-7 -60 -67 -32 c-37 -18
-177 -105 -311 -194 -331 -219 -433 -321 -447 -453 -7 -57 28 -139 71 -165 46
-28 128 -50 246 -66 127 -18 615 -21 625 -5 13 22 -19 39 -148 80 -212 67
-363 145 -392 201 -25 47 -19 109 16 163 54 86 181 196 336 290 l62 38 51 -28
c165 -90 219 -289 134 -500 l-26 -65 78 -117 c92 -139 278 -332 394 -409 146
-98 300 -162 480 -200 113 -24 372 -24 479 0 41 9 76 15 79 13 9 -10 -33 -57
-76 -85 -52 -33 -114 -50 -182 -51 l-45 0 -1 -50 c-1 -64 -18 -87 -99 -140
-63 -41 -66 -45 -49 -58 98 -75 249 -67 402 20 41 23 52 34 46 47 -20 46 -16
68 16 94 41 35 83 35 115 1 14 -15 25 -34 25 -43 0 -31 -48 -116 -84 -150 -59
-57 -52 -73 63 -131 l99 -49 32 -98 c29 -87 53 -131 222 -391 105 -161 192
-291 194 -289 3 2 -9 164 -25 359 l-29 355 -37 88 -36 87 46 94 c39 79 45 99
37 122 -8 24 -15 28 -71 35 -70 9 -135 37 -151 66 -5 11 -10 36 -10 55 0 42
28 65 89 73 33 5 41 2 55 -19 9 -14 15 -36 14 -49 -3 -23 -1 -24 47 -20 74 5
161 35 221 76 73 51 161 185 121 185 -7 0 -39 -5 -70 -11 -82 -17 -121 -6
-173 48 -35 36 -45 42 -50 29 -9 -24 -82 -63 -142 -75 -63 -13 -132 -14 -132
-2 0 4 35 29 78 54 252 147 481 446 580 757 53 165 84 388 68 491 -6 41 -10
46 -63 73 -119 63 -203 169 -218 277 -8 57 9 148 41 210 l23 46 137 6 c204 10
306 8 334 -6 37 -18 62 -74 56 -123 -3 -23 -53 -151 -111 -286 -58 -135 -105
-248 -105 -252 0 -12 63 25 140 83 80 60 291 265 405 394 59 68 70 86 81 137
17 83 3 141 -46 190 -61 61 -109 71 -365 77 -239 6 -406 -9 -525 -46 l-61 -19
-112 111 c-62 62 -148 138 -192 169 -221 156 -474 249 -740 272 -38 4 -43 0
-120 -79z m258 -250 c399 -69 730 -356 862 -745 61 -179 71 -440 25 -620 -77
-294 -277 -558 -530 -698 l-55 -31 -95 79 c-52 43 -96 77 -97 76 -2 -1 -7 -54
-12 -116 -6 -72 -14 -116 -22 -121 -60 -36 -406 -37 -546 0 -336 88 -623 337
-754 652 -90 220 -108 483 -48 713 25 96 100 259 159 346 160 236 433 413 717
464 104 19 291 19 396 1z"/>
<path d="M3295 3910 c-22 -23 -61 -55 -87 -73 -26 -18 -48 -36 -48 -41 0 -5
19 -27 41 -48 33 -32 43 -48 47 -84 5 -49 1 -52 -35 -24 -48 38 -134 62 -236
68 -93 4 -99 6 -110 30 -10 21 -8 27 11 42 22 19 30 72 14 97 -10 16 -177
-102 -232 -164 -76 -87 -114 -202 -93 -283 8 -29 14 -35 40 -38 26 -3 34 2 53
33 27 44 90 88 158 110 69 23 265 17 330 -10 37 -15 43 -21 40 -44 -2 -19 -15
-32 -50 -51 -63 -34 -88 -58 -109 -105 -28 -61 -24 -66 34 -34 28 15 76 33
104 39 43 9 60 19 94 58 53 61 82 112 109 192 18 54 21 80 17 155 -4 86 -32
215 -46 215 -4 0 -25 -18 -46 -40z"/>
<path d="M3472 3555 c-39 -17 -80 -59 -98 -101 -13 -31 -12 -33 22 -69 44 -47
88 -134 103 -203 14 -65 14 -225 1 -271 -5 -18 -16 -44 -25 -57 -15 -23 -17
-23 -44 -9 -30 15 -71 86 -71 121 0 49 -72 114 -127 114 -19 0 -19 -2 4 -49
13 -26 28 -78 34 -115 5 -37 16 -80 24 -95 46 -89 201 -144 447 -157 125 -7
178 3 178 35 0 9 -11 59 -25 111 -27 105 -41 122 -95 118 -37 -3 -42 -16 -26
-66 6 -19 2 -25 -28 -37 -19 -8 -61 -15 -92 -15 -50 0 -55 2 -49 18 4 9 23 60
41 112 49 138 47 198 -8 310 -43 85 -43 85 -43 197 0 104 -1 112 -20 117 -33
9 -68 6 -103 -9z"/>
<path d="M2142 3410 c-34 -14 -36 -34 -8 -77 13 -21 28 -59 31 -85 7 -48 7
-48 46 -48 34 0 39 3 39 24 0 13 10 36 22 51 20 26 25 27 87 22 71 -5 185 -45
220 -78 16 -15 21 -32 21 -72 0 -45 5 -59 38 -101 42 -56 91 -86 139 -86 18 0
33 2 33 3 0 2 -25 29 -55 59 -66 66 -73 105 -28 159 l27 32 -54 49 c-68 61
-193 124 -285 143 -77 16 -237 19 -273 5z"/>
<path d="M2300 3179 c-32 -13 -80 -59 -80 -76 0 -7 7 -13 16 -13 26 0 82 -63
92 -106 5 -21 19 -86 32 -144 15 -72 31 -120 52 -153 35 -55 108 -123 158
-145 19 -9 36 -17 38 -18 1 -1 -9 -37 -24 -80 -23 -68 -27 -93 -25 -179 3
-142 11 -179 39 -183 24 -4 45 13 181 142 l63 60 -28 22 c-62 49 -74 64 -74
93 0 17 6 31 16 35 72 28 304 -48 304 -99 0 -8 -8 -30 -17 -50 -9 -19 -13 -38
-10 -42 12 -12 129 15 186 44 64 31 140 103 169 159 33 66 47 147 33 195 -7
22 -18 42 -25 45 -7 3 -30 -12 -52 -32 -91 -86 -241 -126 -397 -105 -135 18
-164 49 -83 88 116 57 173 169 99 197 -18 7 -43 -16 -43 -41 0 -25 -62 -53
-117 -53 -52 0 -52 0 -79 -49 l-28 -49 -31 15 c-58 30 -113 83 -139 135 -25
49 -26 60 -26 203 0 188 0 189 -102 192 -40 2 -84 -2 -98 -8z"/>
</g>
</svg>
