<?xml version="1.0" standalone="no"?>
<!DOCTYPE svg PUBLIC "-//W3C//DTD SVG 20010904//EN"
 "http://www.w3.org/TR/2001/REC-SVG-20010904/DTD/svg10.dtd">
<svg version="1.0" xmlns="http://www.w3.org/2000/svg"
 width="591.000000pt" height="591.000000pt" viewBox="0 0 591.000000 591.000000"
 preserveAspectRatio="xMidYMid meet">

<g transform="translate(0.000000,591.000000) scale(0.100000,-0.100000)"
fill="#CCA419" stroke="none">
<path d="M4716 5186 l-579 -231 -149 -219 c-82 -120 -147 -221 -144 -223 2 -2
256 83 565 189 l562 193 169 258 c94 142 170 260 170 262 0 9 -10 5 -594 -229z"/>
<path d="M2531 4969 c-56 -4 -105 -10 -108 -13 -3 -3 3 -80 13 -171 l18 -167
31 6 c16 4 153 9 303 13 149 3 272 7 272 8 0 2 14 74 30 160 17 86 30 161 30
166 0 11 -440 10 -589 -2z"/>
<path d="M2155 4903 c-22 -8 -80 -31 -130 -50 -49 -20 -104 -44 -122 -55 l-32
-19 64 -141 c36 -77 66 -142 67 -143 2 -2 53 14 115 35 61 20 126 40 143 44
28 5 31 9 26 33 -3 16 -17 92 -32 171 -29 157 -27 154 -99 125z"/>
<path d="M1632 4665 c-115 -60 -202 -120 -202 -140 0 -10 153 -211 190 -248 4
-5 50 18 101 51 52 32 110 67 129 77 19 10 37 19 38 20 3 3 -142 280 -152 292
-1 1 -47 -22 -104 -52z"/>
<path d="M4229 4478 l-555 -191 -74 -108 c-41 -60 -79 -109 -84 -109 -6 0 -63
5 -125 10 -270 24 -592 -38 -857 -165 -278 -134 -476 -327 -607 -595 -42 -85
-369 -1053 -357 -1058 3 -1 88 42 188 95 167 90 182 100 186 128 3 17 10 75
16 130 23 192 88 397 170 537 83 138 186 224 382 318 283 135 569 150 783 43
76 -39 125 -75 247 -183 l112 -100 30 23 c17 13 106 79 199 147 l168 125 379
572 c208 315 374 573 367 572 -7 0 -262 -86 -568 -191z"/>
<path d="M2505 4475 c-757 -122 -1285 -652 -1431 -1437 -24 -129 -29 -409 -10
-554 54 -411 189 -689 471 -969 60 -60 150 -138 198 -172 169 -119 386 -214
582 -254 100 -20 100 -20 150 -120 l34 -66 -47 4 c-344 34 -688 197 -970 458
-69 64 -201 215 -305 349 -135 174 -218 422 -257 766 -10 83 -16 515 -8 551 2
10 -37 20 -147 40 -82 15 -151 26 -153 25 -1 -2 -7 -52 -13 -112 -16 -153 -5
-505 20 -669 76 -503 181 -725 486 -1030 192 -193 400 -343 665 -483 160 -84
264 -125 410 -161 360 -88 792 -136 1320 -147 l295 -7 -31 34 c-142 155 -861
938 -873 952 -16 16 -30 14 -286 -54 l-270 -71 -80 26 c-322 108 -631 356
-779 627 -42 77 -68 148 -101 279 -125 501 -59 968 191 1347 145 219 484 449
804 546 165 50 281 68 476 74 l171 6 17 109 c10 61 15 113 11 116 -14 14 -448
11 -540 -3z"/>
<path d="M1254 4358 c-82 -84 -154 -174 -153 -191 0 -7 47 -53 103 -104 l103
-92 112 102 c62 56 112 106 113 110 1 10 -193 247 -202 247 -3 0 -37 -33 -76
-72z"/>
<path d="M939 3972 c-73 -99 -126 -184 -131 -206 -2 -13 32 -36 140 -96 l143
-78 42 91 c24 51 56 111 71 135 15 24 26 47 24 52 -4 10 -219 180 -227 180 -3
-1 -31 -35 -62 -78z"/>
<path d="M4518 3536 l-456 -183 -211 -156 c-116 -87 -216 -157 -221 -157 -6 0
-10 4 -10 9 0 20 -196 214 -260 256 -139 92 -297 127 -484 105 -240 -28 -419
-113 -572 -271 -160 -166 -230 -343 -241 -612 l-6 -138 -49 -25 c-26 -13 -48
-28 -48 -33 0 -24 60 -173 93 -234 121 -215 365 -448 544 -518 109 -42 142
-37 545 97 l358 119 -71 110 c-39 61 -74 114 -79 118 -4 5 -20 -4 -36 -18 -98
-91 -354 -145 -525 -111 -125 25 -219 75 -311 166 -84 83 -133 169 -163 285
-21 82 -19 222 5 321 32 136 60 186 153 277 141 139 276 201 437 201 100 0
170 -19 290 -77 154 -74 284 -228 324 -384 48 -184 19 -422 -65 -555 l-30 -47
125 -171 c119 -162 125 -171 103 -179 -12 -5 -167 -52 -344 -106 l-321 -98 60
-83 c71 -97 41 -88 334 -105 l191 -11 89 45 90 45 17 171 17 171 95 172 c52
94 95 173 95 174 0 3 -64 64 -128 120 l-32 29 32 231 33 231 540 488 c625 564
572 515 560 514 -6 -1 -215 -83 -467 -183z"/>
<path d="M736 3611 c-22 -42 -83 -231 -94 -289 -7 -39 -6 -55 2 -58 6 -2 76
-21 156 -42 l145 -39 48 149 c27 83 47 151 45 152 -2 2 -67 37 -146 79 l-142
75 -14 -27z"/>
<path d="M2833 3030 c-76 -14 -155 -46 -223 -91 -237 -159 -307 -497 -152
-734 193 -297 595 -342 842 -95 247 246 202 649 -94 842 -103 67 -255 98 -373
78z m326 -191 c54 -24 49 -31 -59 -84 -68 -33 -83 -37 -90 -25 -11 17 -14 153
-4 163 6 6 64 -14 153 -54z m-160 -179 c118 -60 143 -208 51 -300 -77 -77
-189 -75 -267 6 -46 47 -59 89 -50 155 16 122 157 195 266 139z"/>
<path d="M3890 1598 c0 -47 -3 -133 -6 -191 l-7 -106 -144 -62 c-79 -35 -140
-66 -136 -70 17 -16 727 -559 728 -556 1 1 106 150 234 330 128 180 234 334
237 340 3 9 -137 74 -432 201 -240 104 -445 191 -455 193 -18 5 -19 -1 -19
-79z"/>
</g>
</svg>
