<?xml version="1.0" standalone="no"?>
<!DOCTYPE svg PUBLIC "-//W3C//DTD SVG 20010904//EN"
 "http://www.w3.org/TR/2001/REC-SVG-20010904/DTD/svg10.dtd">
<svg version="1.0" xmlns="http://www.w3.org/2000/svg"
 width="591.000000pt" height="591.000000pt" viewBox="0 0 591.000000 591.000000"
 preserveAspectRatio="xMidYMid meet">

<g transform="translate(0.000000,591.000000) scale(0.100000,-0.100000)"
fill="#CCA419" stroke="none">
<path d="M2715 5366 c-71 -19 -154 -43 -184 -55 -106 -43 -171 -104 -171 -161
0 -27 102 -135 228 -241 l93 -79 98 0 c98 0 121 8 121 39 0 9 -50 70 -110 136
-103 114 -108 121 -91 138 39 40 273 61 406 36 62 -11 115 -33 115 -48 0 -4
-49 -64 -110 -131 -60 -68 -110 -129 -110 -137 0 -23 38 -33 132 -33 l94 0
114 99 c164 140 200 181 200 229 0 81 -114 149 -349 208 -186 46 -292 46 -476
0z"/>
<path d="M2090 5086 c-578 -181 -1032 -599 -1260 -1158 l-23 -56 138 -154 c76
-84 141 -156 145 -160 3 -5 25 49 49 120 24 70 64 175 90 234 47 105 140 256
179 292 21 18 21 18 -29 86 -27 37 -49 79 -49 92 0 17 30 55 105 131 127 129
134 131 210 52 l53 -56 80 65 c204 164 394 265 568 301 43 9 80 18 82 20 7 6
-210 225 -222 225 -6 -1 -58 -16 -116 -34z"/>
<path d="M3577 5005 l-108 -112 79 -16 c189 -38 393 -147 606 -325 l50 -41 57
54 c35 33 66 55 80 55 27 0 239 -211 239 -238 0 -10 -19 -45 -43 -77 -24 -33
-47 -66 -51 -73 -5 -8 6 -28 32 -55 81 -88 182 -293 252 -510 19 -59 39 -106
43 -104 5 1 71 71 147 156 l138 153 -25 61 c-103 253 -258 482 -459 678 -223
216 -464 363 -749 458 -186 61 -163 66 -288 -64z"/>
<path d="M2777 4700 c-476 -50 -912 -293 -1209 -675 -562 -720 -462 -1770 226
-2377 230 -203 509 -342 821 -408 128 -27 402 -38 542 -21 804 98 1436 730
1534 1534 17 140 6 414 -21 542 -48 229 -139 447 -260 628 -320 479 -834 764
-1410 782 -74 2 -175 0 -223 -5z m484 -219 c501 -107 917 -445 1119 -909 128
-296 161 -646 88 -957 -188 -809 -961 -1326 -1778 -1189 -492 83 -923 410
-1139 864 -97 205 -139 376 -148 610 -11 310 59 588 216 852 237 398 636 666
1106 743 127 21 407 13 536 -14z"/>
<path d="M1796 3934 c-23 -22 -20 -41 19 -159 48 -144 81 -212 132 -266 50
-53 50 -55 2 -170 -70 -172 -186 -287 -306 -306 -50 -8 -63 -19 -63 -57 0 -43
28 -84 95 -142 108 -92 112 -97 125 -160 7 -34 10 -92 7 -136 -4 -68 -9 -83
-37 -118 -18 -22 -45 -47 -61 -56 -38 -19 -37 -39 5 -79 50 -46 127 -65 272
-65 105 0 125 -3 171 -24 55 -26 121 -86 172 -156 39 -54 41 -97 6 -138 l-25
-30 29 -7 c44 -9 106 11 134 45 44 52 44 139 0 224 -27 53 -97 118 -194 182
-116 77 -131 93 -261 287 -97 144 -102 155 -106 212 -5 78 17 161 77 295 27
58 54 121 60 142 16 49 80 119 135 149 73 38 60 81 -41 133 -86 43 -144 112
-158 187 l-7 36 70 6 c59 6 77 4 118 -15 60 -26 183 -36 251 -19 26 7 83 28
125 47 138 62 240 56 353 -21 62 -43 63 -43 81 -24 10 11 47 34 83 52 58 28
75 32 146 32 73 -1 88 -4 175 -45 86 -40 104 -44 185 -48 78 -3 99 -1 158 22
57 21 77 24 132 19 64 -6 65 -7 65 -35 0 -67 -61 -140 -165 -198 -55 -31 -91
-71 -82 -93 3 -8 30 -28 60 -45 67 -38 99 -77 132 -166 14 -37 38 -93 54 -124
49 -98 74 -190 74 -269 l0 -73 -97 -146 c-122 -183 -165 -229 -288 -311 -171
-112 -243 -249 -194 -368 21 -49 91 -81 154 -69 l33 6 -24 27 c-53 56 -45 92
46 194 45 51 78 78 122 99 56 26 69 28 181 28 150 0 213 17 266 70 44 44 47
57 15 69 -13 5 -43 31 -66 58 l-43 48 4 120 c3 70 10 131 17 147 8 14 38 43
68 64 30 20 72 57 93 82 66 74 64 152 -3 152 -43 0 -126 40 -176 85 -67 61
-148 205 -179 317 -9 34 -8 38 14 53 43 28 95 121 140 250 65 188 58 232 -34
206 -103 -30 -186 -41 -382 -52 -231 -13 -325 -9 -361 14 -13 9 -45 21 -71 27
-38 10 -56 9 -104 -5 -61 -18 -134 -56 -155 -81 -10 -12 -16 -11 -45 11 -106
81 -210 98 -313 51 l-64 -29 -201 7 c-222 8 -387 26 -456 50 -57 20 -75 20
-94 0z"/>
<path d="M2668 3697 c-64 -15 -151 -69 -260 -164 -136 -118 -229 -257 -247
-370 -4 -30 -20 -69 -35 -90 -86 -122 -106 -158 -106 -189 0 -47 34 -54 117
-26 71 25 96 27 110 10 6 -7 13 -62 15 -123 4 -67 12 -125 21 -147 16 -39 60
-69 76 -52 5 5 21 78 35 163 19 105 33 163 47 183 27 37 63 37 86 1 9 -16 38
-55 64 -89 60 -76 54 -97 -17 -61 l-49 25 -38 -19 c-20 -11 -37 -24 -37 -30 0
-20 49 -58 83 -64 24 -5 61 -30 118 -81 91 -80 113 -88 172 -57 50 26 199 28
255 3 72 -32 86 -28 176 54 59 54 91 75 119 80 43 8 77 37 77 64 0 11 -14 25
-36 35 -35 17 -37 17 -82 -8 -62 -35 -76 -19 -33 37 18 24 46 64 63 91 36 55
62 60 99 21 20 -21 28 -52 50 -185 15 -88 30 -163 34 -167 11 -12 60 23 75 53
9 19 16 74 20 148 6 149 13 156 123 117 67 -24 87 -25 112 -6 17 12 18 18 7
53 -6 22 -38 76 -71 121 -48 66 -61 94 -69 142 -6 33 -28 93 -49 133 -67 128
-309 347 -428 388 -49 16 -190 17 -265 1 -37 -8 -66 -9 -88 -3 -58 17 -184 21
-244 8z m221 -102 c60 -14 73 -14 126 0 34 8 75 12 95 9 40 -7 110 -44 131
-70 13 -16 12 -17 -6 -10 -77 30 -211 10 -232 -35 -7 -14 -21 -33 -32 -44 -18
-15 -23 -16 -37 -4 -10 8 -23 28 -30 45 -11 27 -22 34 -65 44 -49 12 -123 10
-164 -5 -12 -4 -6 7 18 28 32 29 77 50 120 56 4 1 38 -6 76 -14z m-455 -230
l-6 -45 65 0 c85 0 161 -28 222 -82 46 -40 48 -41 74 -27 28 16 31 41 16 143
-8 47 -7 48 14 36 52 -27 76 -118 50 -187 -6 -15 -33 -49 -61 -75 -49 -45 -51
-48 -46 -91 4 -35 17 -59 62 -115 61 -75 77 -83 162 -74 33 4 46 13 87 63 71
87 82 112 68 160 -8 27 -23 47 -47 62 -62 40 -91 135 -60 195 18 35 64 78 73
68 4 -3 2 -27 -5 -51 -7 -25 -12 -63 -12 -85 0 -34 4 -42 26 -50 22 -9 31 -6
60 20 63 55 131 83 216 88 l77 5 3 41 3 41 43 -45 c24 -24 57 -74 75 -109 30
-62 32 -72 32 -176 l0 -110 -41 1 c-28 0 -58 12 -102 39 -43 26 -77 39 -110
42 -46 4 -48 2 -108 -56 -45 -43 -66 -73 -78 -108 -16 -48 -17 -49 -51 -45
-50 6 -85 -19 -85 -62 0 -40 -36 -96 -73 -114 -51 -25 -117 35 -117 106 0 46
-21 66 -76 68 l-48 2 -19 51 c-13 34 -38 68 -77 106 -80 76 -98 74 -260 -16
-40 -22 -83 -25 -98 -6 -5 6 -10 38 -11 70 -1 127 36 228 115 316 25 28 48 51
51 51 2 0 1 -20 -3 -45z"/>
<path d="M2510 3224 c0 -58 114 -127 172 -105 31 11 54 39 42 50 -11 10 -190
81 -204 81 -6 0 -10 -12 -10 -26z"/>
<path d="M3280 3212 c-106 -42 -121 -61 -69 -88 27 -14 38 -14 72 -4 22 6 52
19 65 28 38 25 64 103 34 102 -4 0 -50 -17 -102 -38z"/>
<path d="M2380 3170 c-15 -29 11 -87 43 -95 33 -9 67 10 67 36 0 27 -52 79
-79 79 -11 0 -25 -9 -31 -20z"/>
<path d="M3457 3170 c-15 -12 -32 -31 -38 -43 -10 -17 -8 -24 11 -39 31 -25
55 -23 80 9 27 35 24 87 -6 91 -11 2 -32 -7 -47 -18z"/>
<path d="M2479 2563 c-10 -11 -14 -43 -13 -98 0 -131 52 -218 138 -232 43 -7
45 -2 47 149 l1 122 -58 38 c-65 41 -94 47 -115 21z"/>
<path d="M3310 2539 l-63 -40 7 -127 c4 -69 9 -129 12 -134 16 -26 91 6 128
54 32 43 46 98 46 181 0 119 -27 133 -130 66z"/>
<path d="M2750 2445 c-26 -31 5 -185 36 -185 8 0 27 27 44 60 34 67 63 87 127
88 54 1 90 -28 123 -97 37 -80 71 -56 85 60 11 89 10 89 -214 89 -156 0 -191
-3 -201 -15z"/>
<path d="M2816 2172 c-55 -11 -46 -169 14 -235 27 -31 32 -32 112 -35 97 -3
134 13 161 71 22 45 23 169 3 186 -13 11 -246 21 -290 13z"/>
<path d="M2647 2103 c-17 -27 -17 -125 -2 -188 13 -50 16 -93 13 -157 l-5 -88
96 -51 c67 -35 110 -66 142 -101 38 -43 49 -50 71 -45 14 4 36 23 49 42 17 25
57 54 132 96 l109 61 -7 91 c-5 73 -3 100 9 129 18 41 22 183 6 208 -11 18
-11 17 -43 -45 -14 -28 -46 -74 -71 -102 -44 -49 -46 -53 -46 -112 0 -62 0
-62 -37 -77 -27 -12 -62 -15 -129 -12 -117 4 -137 18 -128 89 6 46 5 48 -49
114 -31 38 -64 88 -74 111 -17 43 -27 52 -36 37z"/>
<path d="M744 3602 c-6 -4 -42 -63 -80 -132 l-69 -125 -2 -380 -3 -380 73
-140 c53 -104 77 -141 93 -143 15 -2 59 43 191 201 l172 205 -5 93 c-9 159 2
156 -133 30 -122 -114 -155 -132 -166 -88 -3 12 -4 119 -3 237 l3 215 31 3
c32 3 33 3 257 -186 16 -14 17 -9 17 99 l0 114 -166 185 c-156 173 -181 200
-194 200 -3 0 -10 -4 -16 -8z"/>
<path d="M5133 3603 c-6 -2 -86 -87 -177 -188 l-166 -183 0 -117 0 -117 93 79
c132 113 146 123 179 123 l28 0 -2 -237 -3 -238 -23 -3 c-17 -3 -49 23 -137
109 -63 62 -117 110 -119 108 -2 -2 -7 -56 -11 -119 l-7 -115 169 -200 c111
-132 176 -201 191 -203 19 -3 31 15 97 149 l76 153 -3 365 -3 366 -71 129
c-70 126 -87 148 -111 139z"/>
<path d="M964 2228 c-71 -79 -135 -151 -142 -160 -12 -15 -8 -30 24 -105 116
-276 323 -555 553 -748 209 -174 481 -318 729 -386 l83 -22 110 109 c60 60
109 111 109 115 0 3 -30 11 -66 18 -179 33 -404 150 -586 304 -36 31 -70 57
-74 57 -4 0 -31 -22 -60 -50 -77 -73 -85 -71 -210 55 -76 77 -104 112 -104
131 0 14 21 54 49 92 l49 67 -34 38 c-83 91 -172 266 -248 487 -26 74 -48 136
-50 137 -2 2 -61 -61 -132 -139z"/>
<path d="M4787 2307 c-56 -191 -175 -443 -258 -545 l-48 -60 50 -70 c27 -38
49 -78 49 -89 0 -10 -48 -67 -106 -126 -129 -130 -136 -131 -213 -53 l-54 54
-81 -66 c-210 -170 -436 -285 -606 -308 l-50 -7 107 -114 c123 -132 101 -126
273 -71 416 133 786 415 1035 788 64 96 157 271 193 365 l20 50 -140 155 c-77
85 -143 156 -147 157 -3 2 -14 -25 -24 -60z"/>
<path d="M2585 1004 c-176 -150 -225 -205 -225 -253 0 -34 68 -99 138 -132 95
-46 355 -109 448 -109 182 0 502 103 570 182 43 52 34 89 -38 165 -35 36 -104
101 -155 144 l-92 80 -107 -3 c-154 -4 -155 -6 -14 -163 l114 -128 -22 -18
c-35 -27 -125 -43 -252 -43 -125 0 -217 16 -250 42 -21 17 -20 19 90 141 145
161 145 165 -5 169 l-110 3 -90 -77z"/>
</g>
</svg>
