<?xml version="1.0" standalone="no"?>
<!DOCTYPE svg PUBLIC "-//W3C//DTD SVG 20010904//EN"
 "http://www.w3.org/TR/2001/REC-SVG-20010904/DTD/svg10.dtd">
<svg version="1.0" xmlns="http://www.w3.org/2000/svg"
 width="591.000000pt" height="591.000000pt" viewBox="0 0 591.000000 591.000000"
 preserveAspectRatio="xMidYMid meet">

<g transform="translate(0.000000,591.000000) scale(0.100000,-0.100000)"
fill="#CCA419" stroke="none">
<path d="M2906 4971 c-51 -69 -86 -152 -93 -216 -5 -45 -1 -69 20 -123 19 -49
28 -101 36 -196 l11 -128 -70 -74 c-38 -41 -70 -81 -70 -89 0 -8 25 -42 55
-76 62 -69 64 -80 39 -188 -18 -81 -61 -153 -106 -181 -82 -50 -191 0 -229
105 -15 42 -22 43 -55 10 -45 -45 -58 -91 -59 -203 0 -98 -1 -104 -25 -122
-14 -11 -40 -22 -58 -26 -39 -8 -52 -33 -52 -102 0 -91 55 -151 115 -124 33
15 32 36 -2 51 l-28 13 42 39 c37 34 48 39 90 39 78 0 150 -66 222 -203 73
-138 40 -226 -91 -243 -27 -4 -48 -8 -48 -9 0 -1 25 -65 55 -141 72 -179 140
-391 160 -495 17 -92 19 -270 5 -374 -14 -96 -45 -186 -87 -248 l-35 -51 91
-242 c92 -245 171 -434 196 -468 8 -10 19 -15 26 -11 24 15 124 252 239 569
l59 159 -29 36 c-59 73 -92 190 -105 366 -14 198 35 407 180 770 l52 130 -58
12 c-102 20 -126 50 -116 139 9 82 110 242 180 284 59 36 134 22 186 -34 l24
-26 -32 -11 c-39 -14 -38 -38 2 -52 64 -21 110 32 111 127 1 70 -10 91 -53 99
-15 3 -42 17 -58 31 -31 26 -31 26 -26 109 4 63 1 97 -11 134 -16 48 -75 118
-82 98 -2 -5 -18 -34 -34 -62 -35 -61 -87 -93 -151 -93 -38 0 -48 6 -90 49
-52 54 -76 112 -87 213 l-8 63 53 58 c30 33 53 68 53 80 0 13 -26 47 -67 89
l-67 67 13 147 c8 101 18 159 30 183 39 77 34 156 -16 256 -27 56 -87 135
-103 135 -5 0 -24 -22 -44 -49z m114 -1261 c33 -66 60 -127 60 -135 0 -9 -13
-42 -30 -75 l-30 -59 0 -453 0 -453 -34 -54 -34 -54 -31 49 -31 49 0 451 0
451 -35 76 -35 77 51 102 c51 101 78 148 85 148 2 0 31 -54 64 -120z"/>
<path d="M2044 4774 c3 -9 6 -21 6 -28 0 -7 16 -18 36 -25 92 -33 144 -134
124 -240 -32 -171 -158 -245 -440 -260 l-125 -7 106 -52 c124 -61 198 -78 270
-63 64 14 122 14 152 0 63 -28 69 -143 10 -189 -35 -27 -88 -25 -142 5 -23 14
-56 25 -72 25 -28 0 -29 -1 -29 -53 0 -93 -25 -153 -88 -217 l-57 -57 40 9
c62 15 166 4 220 -22 42 -20 81 -64 110 -124 3 -7 7 -6 12 4 3 8 26 35 50 62
25 26 42 51 39 56 -3 5 -6 40 -8 79 -2 63 1 76 25 112 25 38 83 75 150 95 26
8 21 66 -10 122 -25 43 -28 59 -27 134 0 81 2 87 37 138 20 29 41 70 47 90 13
47 13 137 0 184 -13 47 -98 124 -189 172 -107 56 -261 87 -247 50z"/>
<path d="M3714 4766 c-90 -29 -175 -81 -237 -143 -41 -42 -49 -58 -59 -111
-15 -81 1 -154 50 -225 33 -47 36 -59 40 -135 4 -73 1 -88 -22 -136 -31 -63
-35 -124 -8 -132 79 -26 131 -64 159 -117 12 -24 14 -47 8 -109 l-6 -79 45
-49 c25 -27 46 -55 46 -62 1 -7 10 5 22 27 27 54 55 83 103 108 33 18 57 22
141 22 l102 0 -37 31 c-20 17 -46 52 -59 77 -26 52 -46 149 -38 183 6 22 3 24
-26 24 -18 0 -51 -12 -73 -25 -59 -37 -108 -34 -151 9 -39 39 -45 86 -19 136
26 51 73 61 186 40 71 -14 138 0 254 51 139 61 138 65 -12 72 -135 6 -199 20
-273 57 -95 47 -146 119 -156 218 -11 102 27 172 117 218 39 19 49 30 49 49 0
22 -4 25 -37 25 -21 -1 -70 -11 -109 -24z"/>
<path d="M1735 3374 c53 -126 37 -222 -60 -358 -61 -84 -86 -220 -55 -298 7
-18 28 -54 47 -79 47 -67 73 -128 73 -177 0 -70 -41 -102 -163 -127 -23 -5
-28 -10 -25 -32 3 -21 16 -31 88 -64 154 -69 249 -92 385 -92 66 -1 149 1 185
3 174 10 297 -97 308 -266 6 -90 -9 -148 -54 -211 -18 -26 -32 -49 -30 -51 11
-10 76 31 112 70 62 68 86 140 92 280 4 107 3 120 -17 152 -28 45 -82 92 -137
119 -75 36 -67 95 19 138 23 12 45 27 49 33 15 21 8 53 -16 75 -13 13 -39 53
-57 89 -30 61 -34 77 -37 174 l-4 107 -36 -15 c-97 -40 -168 -138 -182 -251
-5 -38 -17 -77 -27 -92 -42 -56 -139 -47 -205 19 -33 33 -38 44 -38 85 0 30 8
61 21 85 25 44 20 70 -13 70 -41 0 -97 20 -128 46 -37 32 -41 87 -9 128 52 67
68 225 31 309 -25 57 -65 110 -99 132 -25 17 -26 17 -18 -1z"/>
<path d="M4130 3354 c-109 -98 -130 -295 -46 -419 58 -85 12 -154 -112 -171
-28 -3 -53 -12 -56 -19 -2 -7 6 -33 20 -58 13 -26 24 -60 24 -77 0 -87 -96
-159 -192 -144 -48 8 -73 47 -81 125 -11 115 -90 216 -199 258 -23 9 -23 8
-23 -88 -1 -111 -21 -174 -82 -256 -48 -63 -46 -88 8 -116 56 -28 79 -54 79
-88 0 -25 -8 -34 -53 -59 -69 -39 -144 -122 -153 -169 -18 -98 21 -286 75
-361 28 -38 104 -92 129 -92 7 0 -3 21 -22 47 -48 67 -70 141 -63 212 15 170
139 280 307 271 276 -14 368 0 562 83 89 38 98 44 98 69 0 17 -6 28 -17 31
-10 3 -39 10 -65 17 -26 7 -58 24 -74 41 -50 52 -31 150 47 251 92 115 76 258
-46 431 -58 82 -71 175 -36 267 11 27 17 50 15 50 -2 0 -22 -16 -44 -36z"/>
</g>
</svg>
