<?xml version="1.0" standalone="no"?>
<!DOCTYPE svg PUBLIC "-//W3C//DTD SVG 20010904//EN"
 "http://www.w3.org/TR/2001/REC-SVG-20010904/DTD/svg10.dtd">
<svg version="1.0" xmlns="http://www.w3.org/2000/svg"
 width="591.000000pt" height="591.000000pt" viewBox="0 0 591.000000 591.000000"
 preserveAspectRatio="xMidYMid meet">

<g transform="translate(0.000000,591.000000) scale(0.100000,-0.100000)"
fill="#CCA419" stroke="none">
<path d="M4770 5599 c-190 -27 -682 -138 -773 -175 -97 -39 -216 -127 -381
-281 -166 -154 -202 -201 -212 -276 -8 -56 6 -61 64 -22 20 14 58 32 85 41 45
15 52 15 91 0 57 -22 105 -74 127 -138 16 -47 16 -56 3 -88 -8 -19 -26 -46
-41 -58 -32 -29 -74 -26 -179 12 -99 36 -244 52 -331 36 -118 -20 -204 -70
-315 -180 -79 -79 -100 -95 -109 -84 -6 8 -19 14 -29 14 -16 0 -17 5 -9 43 5
23 27 79 49 125 49 103 121 181 204 222 108 54 171 52 254 -5 l50 -34 12 29
c16 39 8 65 -40 138 -171 256 -505 323 -630 125 -37 -58 -85 -173 -105 -249
-12 -50 -23 -67 -69 -110 -102 -97 -233 -138 -418 -132 -99 3 -109 5 -150 33
-86 60 -112 171 -53 222 21 19 38 23 89 23 105 0 123 -35 68 -133 -17 -30 -28
-58 -25 -61 15 -15 101 -5 143 17 63 31 93 84 86 155 -13 144 -111 222 -261
209 -142 -12 -267 -98 -299 -206 -20 -69 -20 -153 -1 -220 19 -61 65 -110 152
-158 l58 -33 -467 0 -467 0 -28 -24 -28 -24 -3 -1362 c-2 -1489 -5 -1412 54
-1439 16 -7 93 -11 212 -11 l187 0 -87 -90 c-113 -117 -141 -172 -146 -293 -6
-112 8 -178 60 -284 123 -255 303 -421 568 -526 184 -73 389 -47 499 63 69 69
95 128 95 220 1 144 -71 234 -196 247 -59 5 -108 -9 -108 -31 0 -8 19 -27 42
-43 57 -38 104 -124 94 -174 -10 -57 -38 -79 -100 -79 -78 0 -153 17 -221 49
-82 38 -125 78 -166 153 -30 57 -34 72 -37 164 -5 122 11 192 72 319 91 192
245 277 446 247 94 -13 200 -62 200 -92 0 -4 -28 -10 -63 -13 -90 -8 -214 -50
-288 -98 -97 -62 -186 -153 -205 -212 -35 -105 18 -230 124 -298 79 -50 106
-33 54 31 -40 49 -52 74 -52 110 0 43 30 69 145 126 l98 49 126 -1 c106 0 135
-4 181 -22 30 -12 65 -22 78 -22 34 0 393 179 497 248 240 159 428 371 554
627 188 380 170 633 -51 717 -28 10 -96 22 -157 27 -60 5 -120 15 -137 24 -47
25 -105 74 -138 119 -29 39 -31 48 -31 123 1 131 35 177 330 445 145 132 229
242 284 372 23 55 26 77 26 168 0 121 -12 169 -58 236 -23 36 -48 57 -91 79
-52 26 -70 30 -140 29 -173 -1 -285 -102 -302 -272 -10 -93 1 -127 55 -182 82
-82 176 -89 235 -19 44 52 25 142 -32 155 -49 10 -52 13 -52 39 0 79 100 122
177 75 43 -26 53 -47 60 -138 5 -65 2 -86 -15 -124 -49 -111 -165 -188 -281
-188 -118 1 -226 60 -277 152 -26 48 -29 62 -29 148 1 192 85 342 233 415 67
34 192 45 283 26 228 -48 362 -243 329 -481 -14 -104 -34 -170 -78 -255 -30
-59 -64 -99 -212 -245 -191 -189 -228 -242 -250 -359 -19 -100 13 -218 57
-209 8 2 25 34 38 72 35 100 41 104 107 74 51 -24 183 -123 222 -166 11 -12
23 -22 29 -22 15 0 1 64 -28 127 -35 77 -42 128 -21 152 9 10 48 31 86 46 62
25 74 27 107 17 93 -28 275 -167 320 -244 19 -31 38 -36 47 -12 8 20 -18 178
-42 264 -38 129 -112 289 -159 341 -8 10 -17 41 -19 70 -7 70 23 131 84 173
37 27 50 30 111 29 64 -1 166 -30 298 -84 18 -7 35 -10 38 -7 9 8 -12 47 -41
78 -38 42 -92 139 -115 209 -31 92 -31 208 1 274 54 113 220 197 496 252 64
13 118 26 121 29 16 16 -25 28 -192 56 -208 36 -277 63 -354 140 -74 74 -101
137 -101 232 0 130 49 304 110 393 66 96 217 190 375 233 89 25 145 48 145 61
0 30 -94 38 -230 20z m-3320 -1355 c0 -5 -403 -627 -417 -643 -1 -2 -3 143 -3
322 l0 327 210 0 c116 0 210 -3 210 -6z m823 -6 c-6 -7 -103 -156 -218 -331
l-207 -318 -185 318 c-102 175 -187 324 -190 331 -4 9 80 12 402 12 324 0 405
-3 398 -12z m417 -1268 l0 -1280 -201 0 c-160 0 -199 3 -192 13 16 19 373 595
373 600 0 2 -85 152 -190 331 -104 180 -190 329 -190 332 0 3 86 142 190 310
105 167 190 306 190 309 0 3 -85 152 -190 331 -104 180 -190 328 -190 330 0 2
90 4 200 4 l200 0 0 -1280z m-627 286 l205 -308 -200 -307 c-111 -168 -206
-311 -212 -318 -17 -18 -392 630 -380 657 25 53 370 597 376 592 3 -4 98 -146
211 -316z m-623 -308 c0 -6 -393 -614 -406 -627 -2 -2 -4 279 -4 625 l0 629
205 -310 c113 -170 205 -313 205 -317z m1515 -321 c33 -44 127 -105 214 -139
44 -17 80 -22 164 -23 93 -1 111 -4 128 -22 45 -44 44 -244 -1 -411 -64 -235
-264 -479 -479 -585 -59 -29 -72 -31 -165 -32 -116 0 -168 19 -199 73 l-19 32
34 -15 c86 -35 207 -27 304 20 68 33 177 135 203 188 24 49 29 173 10 240 -13
49 -68 110 -123 136 -115 56 -198 -15 -89 -77 76 -42 83 -133 17 -211 -34 -39
-80 -71 -104 -71 -7 0 -10 95 -10 292 l0 292 28 -26 c39 -37 64 -47 149 -64
132 -25 183 -73 183 -172 0 -47 5 -61 37 -104 l37 -51 17 22 c59 73 88 263 51
331 -25 46 -92 97 -145 110 -23 6 -61 15 -84 21 -64 17 -157 84 -218 157 l-55
66 0 95 0 95 43 -63 c23 -35 56 -82 72 -104z m-903 -635 l198 -297 -195 -3
c-107 -1 -282 -1 -389 0 l-195 3 186 298 c102 163 188 297 192 297 3 0 95
-134 203 -298z m-813 -14 l191 -288 -200 0 -200 0 0 297 c0 171 4 293 9 288 5
-6 95 -139 200 -297z"/>
<path d="M4120 2265 l-285 -113 -27 -101 c-14 -55 -35 -128 -47 -162 -11 -34
-18 -66 -15 -70 3 -5 135 -9 294 -9 278 0 290 1 300 20 22 40 79 289 91 393 9
80 9 114 1 132 -7 14 -15 25 -19 24 -5 0 -136 -52 -293 -114z"/>
<path d="M3673 1663 c-6 -5 -28 -33 -49 -63 -20 -30 -61 -83 -90 -117 -30 -33
-54 -67 -54 -75 0 -7 87 -58 194 -113 l193 -99 50 41 c141 119 323 337 323
388 0 23 -1 23 -187 29 -104 3 -228 8 -278 11 -49 3 -95 2 -102 -2z"/>
<path d="M3323 1267 c-11 -7 -52 -34 -89 -60 -38 -27 -124 -84 -191 -128 -68
-43 -123 -83 -123 -88 0 -5 52 -57 115 -115 l114 -106 53 21 c129 50 462 247
466 275 2 15 -26 36 -124 94 -70 41 -143 85 -163 97 -30 19 -40 20 -58 10z"/>
</g>
</svg>
