<?xml version="1.0" standalone="no"?>
<!DOCTYPE svg PUBLIC "-//W3C//DTD SVG 20010904//EN"
 "http://www.w3.org/TR/2001/REC-SVG-20010904/DTD/svg10.dtd">
<svg version="1.0" xmlns="http://www.w3.org/2000/svg"
 width="591.000000pt" height="591.000000pt" viewBox="0 0 591.000000 591.000000"
 preserveAspectRatio="xMidYMid meet">

<g transform="translate(0.000000,591.000000) scale(0.100000,-0.100000)"
fill="#CCA419" stroke="none">
<path d="M950 4785 c-27 -33 -41 -117 -50 -300 -5 -104 -12 -219 -15 -255 -9
-83 10 -251 34 -305 23 -51 74 -111 114 -131 16 -9 53 -23 81 -31 106 -32 146
-61 290 -209 102 -107 144 -144 162 -144 l24 0 -31 61 c-39 79 -69 196 -69
274 0 55 3 64 29 89 l29 28 24 -38 c13 -22 120 -197 236 -390 l212 -352 0
-121 c0 -142 -8 -136 122 -95 184 58 324 159 375 271 14 30 21 58 17 62 -5 4
-52 25 -104 46 l-95 38 -380 464 c-209 255 -386 473 -394 484 -12 17 -12 25 1
58 l15 38 -113 102 -113 102 -68 -42 c-38 -23 -72 -46 -77 -50 -5 -5 16 -62
49 -133 53 -111 62 -125 88 -130 17 -3 36 -11 44 -17 35 -30 -7 -65 -64 -54
-49 9 -188 148 -232 233 -40 78 -90 270 -98 380 -6 83 -16 99 -43 67z"/>
<path d="M4912 4703 c-18 -144 -56 -283 -99 -365 -49 -95 -162 -211 -223 -229
-49 -15 -75 -4 -75 31 0 18 8 25 39 34 37 11 41 16 97 134 l58 123 -76 49 -75
50 -47 -40 c-25 -21 -77 -67 -114 -102 l-69 -63 17 -38 16 -38 -396 -483 -396
-484 -104 -42 c-103 -41 -104 -42 -94 -68 50 -132 179 -236 375 -301 140 -47
131 -53 136 92 l4 122 234 388 c129 213 239 386 245 384 5 -2 21 -19 33 -38
21 -30 23 -41 17 -99 -8 -90 -31 -173 -66 -241 -16 -32 -29 -61 -29 -64 0 -3
10 -5 23 -5 15 0 60 40 151 136 71 75 146 146 167 159 20 13 78 38 128 56 190
66 240 168 227 463 -17 413 -23 481 -44 529 -33 73 -46 62 -60 -50z"/>
<path d="M2430 4411 l-555 -188 -3 -157 -3 -157 257 -307 256 -307 91 -36 92
-37 0 -73 c0 -41 4 -80 8 -86 10 -16 -5 -17 -21 -1 -9 9 -30 -7 -89 -66 -106
-107 -212 -169 -342 -203 -8 -2 -10 -9 -5 -21 4 -9 9 -38 12 -64 5 -60 -20
-117 -83 -186 -26 -29 -45 -56 -41 -59 4 -4 46 -9 94 -11 78 -4 98 -1 182 27
52 18 119 45 147 62 29 16 57 29 62 29 5 0 85 -107 177 -237 92 -131 170 -242
174 -246 10 -11 93 131 86 148 -2 7 -68 108 -146 224 l-140 211 65 61 c81 77
139 162 165 246 29 94 29 94 -27 77 -27 -8 -86 -17 -133 -19 -77 -4 -81 -3
-40 6 25 6 71 20 103 30 81 27 135 22 159 -14 4 -8 15 -7 32 1 l26 12 0 656 0
656 28 -7 c15 -3 209 -61 432 -128 l405 -122 6 -165 c3 -91 7 -178 8 -195 2
-29 5 -27 96 70 l95 99 0 152 0 152 -32 12 c-168 60 -1023 350 -1032 349 -6 0
-261 -85 -566 -188z m187 -1367 c-3 -3 -12 -4 -19 -1 -8 3 -5 6 6 6 11 1 17
-2 13 -5z"/>
<path d="M1243 3628 c-16 -19 -91 -171 -130 -262 l-34 -80 87 -87 c48 -49 90
-86 93 -84 4 2 32 41 63 87 l57 83 -20 135 -19 135 -43 43 c-34 34 -46 40 -54
30z"/>
<path d="M4603 3596 c-38 -43 -39 -47 -57 -179 l-18 -135 58 -86 c33 -47 62
-86 65 -86 4 0 44 39 89 86 70 75 81 90 75 113 -10 40 -154 331 -164 331 -5 0
-27 -20 -48 -44z"/>
<path d="M1055 3218 c-17 -48 -35 -140 -34 -178 0 -44 1 -46 124 -163 69 -65
128 -116 133 -113 4 3 43 55 86 116 l77 110 -22 105 c-12 58 -25 105 -28 105
-3 -1 -33 -39 -65 -85 -32 -47 -62 -85 -66 -85 -4 0 -46 45 -94 100 -85 99
-102 112 -111 88z"/>
<path d="M4779 3173 c-30 -32 -72 -79 -94 -105 l-40 -47 -64 90 c-35 50 -65
88 -68 85 -3 -2 -15 -50 -27 -105 l-23 -100 81 -116 c45 -63 86 -115 91 -115
6 0 66 56 134 124 l124 124 -7 54 c-9 66 -36 168 -46 168 -4 0 -31 -26 -61
-57z"/>
<path d="M3342 3053 c-34 -24 -152 -28 -241 -9 -41 9 -77 13 -80 11 -11 -11
41 -145 78 -201 41 -63 74 -99 134 -152 l38 -32 -291 -448 -291 -447 -42 -5
c-38 -4 -42 -8 -39 -30 3 -35 52 -102 86 -118 18 -9 43 -11 77 -7 l51 7 -4 52
-3 51 298 423 c164 232 301 422 305 422 4 0 37 -15 72 -34 36 -19 101 -47 145
-61 69 -24 92 -27 172 -23 51 2 95 7 99 11 4 4 -13 29 -39 55 -66 71 -90 123
-85 186 3 28 8 58 12 68 6 13 -3 19 -50 33 -32 9 -79 27 -105 40 -63 32 -187
132 -228 184 -37 46 -37 46 -69 24z"/>
<path d="M2906 2933 c-53 -106 -135 -224 -176 -255 -17 -12 -30 -25 -30 -30 0
-4 54 -94 119 -200 86 -140 125 -194 140 -196 l21 -3 -2 382 c-2 287 -6 383
-15 386 -7 3 -31 -33 -57 -84z"/>
<path d="M1405 2829 c-25 -39 -60 -96 -77 -125 l-30 -54 -120 103 c-65 56
-131 111 -145 121 l-25 19 7 -69 c15 -163 27 -260 35 -273 7 -13 329 -171 348
-171 4 0 37 60 74 134 l67 134 -41 123 c-22 68 -41 125 -43 127 -2 2 -24 -29
-50 -69z"/>
<path d="M4440 2888 c0 -7 -16 -65 -36 -129 l-36 -116 67 -131 c36 -73 70
-132 75 -132 7 0 341 157 348 164 7 8 33 262 30 301 l-3 42 -139 -119 -139
-118 -27 47 c-42 78 -124 203 -132 203 -5 0 -8 -6 -8 -12z"/>
<path d="M1521 2463 c-22 -65 -44 -133 -47 -150 -4 -18 -12 -33 -18 -33 -6 0
-92 32 -190 70 -99 38 -181 68 -184 66 -10 -10 98 -306 112 -306 3 0 91 -18
196 -40 105 -22 197 -40 204 -40 8 0 33 68 66 181 l52 181 -21 27 c-12 14 -43
56 -69 93 -26 37 -50 67 -53 68 -4 0 -25 -53 -48 -117z"/>
<path d="M4320 2561 c-5 -11 -36 -53 -69 -93 l-58 -74 52 -179 c28 -98 56
-180 62 -182 8 -3 277 48 380 72 13 3 30 16 39 30 17 26 106 276 100 282 -2 2
-85 -28 -186 -67 -100 -38 -185 -70 -189 -70 -3 0 -28 65 -55 145 -27 80 -52
148 -57 151 -4 2 -13 -4 -19 -15z"/>
<path d="M2475 2510 c-11 -18 -101 -59 -143 -66 -72 -11 -72 -15 -7 -110 67
-99 195 -233 308 -322 119 -94 110 -94 146 -7 l31 74 -49 62 c-27 34 -98 132
-158 220 -59 87 -111 158 -115 158 -4 1 -10 -4 -13 -9z"/>
<path d="M3440 2429 c-25 -40 -162 -178 -280 -282 l-65 -56 38 -76 c35 -72 38
-75 60 -64 61 32 153 107 231 190 86 92 233 276 225 283 -6 6 -158 46 -172 46
-6 0 -23 -19 -37 -41z"/>
<path d="M1730 2135 c-27 -168 -36 -205 -49 -205 -9 0 -84 13 -166 30 -205 40
-271 47 -260 29 13 -22 203 -302 219 -321 7 -10 22 -18 32 -18 10 0 119 17
242 37 l222 38 0 221 0 220 -70 49 c-39 26 -86 65 -104 87 l-33 39 -33 -206z"/>
<path d="M4092 2288 c-24 -26 -71 -64 -103 -85 l-59 -38 2 -220 3 -219 238
-41 238 -41 24 27 c12 16 69 96 124 179 94 139 100 150 77 150 -14 0 -113 -16
-221 -36 -108 -20 -199 -33 -202 -30 -3 3 -20 93 -37 200 -17 107 -33 196 -36
198 -3 2 -25 -17 -48 -44z"/>
<path d="M2066 1944 c5 -93 9 -198 9 -233 l0 -65 -237 -40 c-130 -23 -240 -44
-243 -47 -7 -8 286 -154 387 -193 l67 -26 189 100 189 99 117 -20 c65 -11 149
-32 188 -48 l71 -28 -84 -46 c-126 -68 -169 -121 -169 -207 0 -30 6 -43 26
-59 42 -33 59 -26 119 49 54 68 126 125 214 170 52 26 57 25 176 -55 56 -38
95 -73 129 -119 56 -74 80 -83 121 -41 31 30 32 74 4 132 -24 51 -62 84 -138
123 -102 52 -102 52 -24 83 37 14 120 35 184 46 l117 21 187 -99 188 -99 56
19 c80 28 413 192 404 199 -5 4 -113 24 -241 46 -128 21 -237 41 -241 44 -5 3
-2 95 5 205 7 110 13 212 14 226 l0 27 -97 -38 c-54 -21 -123 -46 -154 -55
l-57 -18 -38 -131 c-20 -72 -41 -136 -46 -142 -5 -6 -29 -14 -55 -17 -43 -5
-53 -11 -108 -73 l-61 -67 -87 6 c-81 7 -90 5 -143 -20 l-56 -28 -48 27 c-47
26 -54 27 -142 22 l-93 -6 -53 65 c-49 60 -57 66 -100 72 -26 4 -51 8 -57 9
-5 1 -28 65 -51 142 l-40 139 -130 46 c-71 25 -140 51 -153 58 l-24 13 9 -168z"/>
<path d="M3016 1950 l-38 -60 60 -83 c58 -82 59 -85 52 -131 -7 -44 -6 -47 19
-53 52 -14 108 -9 131 12 22 20 52 71 64 113 7 20 4 22 -36 22 l-43 0 -79 120
c-43 66 -81 120 -85 120 -3 0 -23 -27 -45 -60z"/>
</g>
</svg>
