<?xml version="1.0" standalone="no"?>
<!DOCTYPE svg PUBLIC "-//W3C//DTD SVG 20010904//EN"
 "http://www.w3.org/TR/2001/REC-SVG-20010904/DTD/svg10.dtd">
<svg version="1.0" xmlns="http://www.w3.org/2000/svg"
 width="591.000000pt" height="591.000000pt" viewBox="0 0 591.000000 591.000000"
 preserveAspectRatio="xMidYMid meet">

<g transform="translate(0.000000,591.000000) scale(0.100000,-0.100000)"
fill="#CCA419" stroke="none">
<path d="M2740 5313 c-965 -99 -1756 -738 -2044 -1653 -78 -245 -101 -411
-101 -710 1 -274 16 -389 80 -624 318 -1161 1482 -1902 2670 -1700 369 63 725
215 1027 441 132 99 372 339 471 471 515 690 618 1598 269 2381 -141 316 -354
603 -614 826 -443 381 -984 579 -1563 573 -88 0 -176 -3 -195 -5z m395 -244
c404 -34 788 -185 1120 -438 89 -68 278 -254 355 -351 224 -281 370 -607 435
-970 26 -148 31 -454 10 -620 -98 -774 -610 -1427 -1344 -1715 -132 -51 -331
-100 -491 -120 -166 -21 -472 -16 -620 10 -363 65 -689 211 -970 435 -97 77
-283 266 -351 355 -132 172 -263 412 -327 595 -289 829 -36 1764 628 2323 437
367 993 545 1555 496z"/>
<path d="M2334 4941 c-91 -55 -109 -168 -40 -248 l24 -27 -87 -37 c-136 -57
-313 -164 -420 -253 l-45 -38 -9 24 c-21 59 -83 98 -154 98 -113 0 -189 -110
-148 -215 17 -45 65 -95 91 -95 21 0 17 -24 -7 -46 -36 -32 -173 -244 -219
-339 l-44 -90 -48 24 c-39 19 -56 22 -94 16 -93 -14 -159 -112 -135 -201 18
-65 92 -124 158 -124 21 0 24 -4 20 -23 -45 -178 -56 -512 -24 -699 9 -54 17
-100 17 -102 0 -2 -18 -6 -40 -10 -54 -9 -116 -65 -131 -119 -35 -130 104
-247 223 -188 24 11 44 17 46 11 26 -78 156 -301 238 -408 l33 -44 -38 -36
c-114 -109 -47 -282 109 -282 51 0 91 20 123 61 l24 31 82 -64 c96 -77 261
-176 364 -221 l74 -32 -19 -35 c-14 -26 -18 -49 -16 -91 5 -66 31 -109 84
-134 47 -22 130 -17 167 11 36 26 67 85 67 126 l0 35 72 -14 c204 -38 513 -33
704 13 19 5 22 0 26 -44 9 -94 76 -148 173 -140 97 8 151 74 143 175 -3 37
-11 61 -26 75 l-21 21 110 53 c129 63 255 142 357 226 40 33 74 59 75 57 2 -2
9 -17 17 -32 23 -45 67 -70 129 -75 46 -3 62 0 91 20 109 74 108 205 -2 277
l-37 24 28 36 c60 76 144 215 198 326 l55 116 22 -20 c11 -11 42 -25 67 -32
41 -11 53 -10 93 5 70 27 101 73 101 151 0 52 -4 67 -27 97 -32 42 -102 73
-148 66 -16 -3 -30 -4 -30 -4 0 1 7 37 15 81 43 218 32 580 -21 747 -5 17 -1
18 34 12 52 -8 121 22 153 67 34 48 34 140 0 188 -54 76 -167 90 -236 29 l-35
-30 -30 67 c-44 98 -132 244 -205 340 l-63 83 27 5 c35 7 87 50 106 88 33 62
8 159 -52 203 -15 11 -49 21 -78 24 -85 7 -146 -33 -171 -111 l-9 -28 -65 52
c-106 85 -237 168 -362 228 l-116 56 28 32 c76 85 57 208 -41 258 -41 22 -117
19 -157 -5 -60 -37 -94 -121 -73 -181 11 -31 10 -31 -17 -25 -243 52 -582 56
-769 9 -22 -5 -23 -3 -17 38 7 56 -26 124 -75 156 -44 29 -123 31 -167 4z
m771 -281 c421 -40 790 -219 1082 -523 233 -243 381 -530 450 -875 13 -66 18
-138 18 -302 0 -185 -3 -231 -23 -328 -139 -688 -666 -1215 -1354 -1354 -97
-20 -143 -23 -328 -23 -164 0 -236 5 -302 18 -345 69 -632 217 -875 450 -604
579 -703 1492 -238 2187 346 517 955 808 1570 750z"/>
<path d="M3373 4365 c-67 -41 -97 -113 -101 -245 -4 -93 -1 -115 22 -184 34
-100 85 -177 150 -226 63 -47 75 -53 155 -79 89 -29 111 -45 111 -81 0 -20 -5
-30 -15 -30 -21 0 -78 -53 -116 -110 -19 -27 -39 -50 -45 -50 -6 0 -48 34 -93
75 -44 41 -85 75 -91 75 -14 0 -40 -42 -40 -67 0 -14 36 -64 98 -134 53 -61
103 -121 109 -134 21 -39 43 -146 43 -209 0 -58 0 -58 -60 -117 -63 -62 -63
-63 3 -73 58 -8 125 -52 158 -104 27 -43 29 -52 29 -150 0 -91 -3 -109 -27
-157 -43 -89 -125 -163 -209 -189 -22 -7 -22 -7 3 54 102 254 43 519 -166 742
-66 71 -189 159 -248 179 -18 6 -33 16 -33 22 0 56 -62 480 -72 497 -27 43
-116 89 -175 90 -23 0 -13 -26 23 -61 57 -54 76 -106 58 -153 -9 -24 -59 -19
-93 9 -37 32 -89 161 -98 245 -5 56 -16 80 -30 67 -10 -11 -32 -132 -33 -179
0 -68 18 -142 45 -183 24 -34 24 -35 4 -35 -11 0 -33 7 -48 15 -43 22 -138
131 -168 194 -26 52 -27 61 -24 190 2 104 6 145 20 177 24 54 74 109 128 141
62 36 158 36 237 0 60 -28 140 -96 162 -138 20 -40 17 -110 -7 -177 -32 -87
-33 -92 -17 -92 27 0 87 62 115 118 54 109 27 247 -70 358 -42 48 -132 98
-205 113 -87 18 -251 14 -321 -8 -150 -47 -329 -253 -370 -426 -9 -34 -10 -95
-6 -195 12 -258 42 -346 168 -496 81 -97 136 -146 212 -191 85 -50 85 -83 -1
-83 -30 0 -52 8 -82 29 -22 16 -43 34 -47 40 -3 6 -10 11 -16 11 -16 0 -10
-35 15 -85 l25 -48 -55 7 c-93 11 -128 31 -223 132 -116 122 -164 211 -167
307 -2 37 -6 67 -11 68 -16 2 -34 -86 -29 -141 13 -134 99 -288 248 -446 99
-103 147 -138 237 -169 58 -19 82 -22 153 -18 l85 6 -7 37 c-12 65 -1 100 47
147 91 92 228 123 333 76 95 -43 206 -144 262 -240 34 -57 32 -177 -5 -253
-50 -105 -155 -200 -220 -200 l-30 0 40 43 c59 64 76 118 71 224 -7 144 -56
227 -148 254 -56 17 -125 -10 -147 -57 -9 -19 -14 -37 -10 -40 3 -4 26 -1 51
5 75 19 126 -17 126 -88 0 -119 -135 -166 -366 -126 -275 48 -516 167 -689
341 -132 133 -153 192 -174 489 -10 140 -3 297 14 325 3 6 0 10 -8 10 -7 0
-23 -21 -35 -47 -101 -220 -107 -710 -11 -1009 98 -307 313 -570 566 -689 252
-120 237 -110 345 -218 134 -134 144 -138 351 -130 95 4 162 11 178 19 39 19
138 112 154 145 20 37 20 109 1 109 -8 0 -31 -20 -51 -44 -35 -43 -112 -86
-152 -86 -10 0 -42 11 -71 25 -64 30 -80 58 -63 114 14 47 55 85 131 120 46
21 69 25 145 25 90 -1 200 -23 240 -48 28 -18 138 -36 221 -36 111 0 139 12
224 99 123 124 170 237 170 409 0 97 -19 214 -46 278 -23 55 -135 222 -187
280 l-47 52 0 105 c0 137 7 157 57 157 41 0 61 -19 131 -122 37 -54 40 -88 12
-141 -43 -80 -11 -157 66 -157 33 0 36 2 29 23 -15 45 -17 98 -5 112 18 21 54
19 75 -5 23 -26 34 -133 15 -155 -10 -13 -9 -15 9 -15 51 0 83 39 96 116 7 46
-9 120 -32 145 -13 15 -12 19 6 31 11 8 27 28 36 44 19 37 20 144 1 189 -22
52 -100 130 -191 190 -275 183 -345 314 -222 421 19 18 41 34 47 36 19 6 3 46
-26 65 -22 14 -28 14 -69 -2 -28 -10 -56 -31 -73 -53 -36 -50 -40 -52 -96 -52
-132 0 -213 69 -252 215 -28 104 -10 180 51 216 20 12 34 27 32 33 -7 21 -61
17 -104 -9z m807 -1114 c12 -23 5 -47 -16 -55 -22 -8 -54 11 -54 32 0 41 51
57 70 23z m-2227 -672 c132 -93 284 -160 415 -182 74 -13 76 -14 52 -28 -38
-21 -162 -17 -245 9 -147 45 -358 199 -404 296 -39 78 -26 83 44 17 36 -33 98
-84 138 -112z m449 -374 c57 -13 145 -29 197 -35 85 -9 120 -8 189 6 22 4 22
4 7 -25 -54 -105 -215 -130 -345 -53 -57 34 -173 131 -158 132 3 0 53 -11 110
-25z"/>
</g>
</svg>
