<?xml version="1.0" standalone="no"?>
<!DOCTYPE svg PUBLIC "-//W3C//DTD SVG 20010904//EN"
 "http://www.w3.org/TR/2001/REC-SVG-20010904/DTD/svg10.dtd">
<svg version="1.0" xmlns="http://www.w3.org/2000/svg"
 width="591.000000pt" height="591.000000pt" viewBox="0 0 591.000000 591.000000"
 preserveAspectRatio="xMidYMid meet">

<g transform="translate(0.000000,591.000000) scale(0.100000,-0.100000)"
fill="#CCA419" stroke="none">
<path d="M2009 5638 c-46 -23 -90 -58 -159 -128 -224 -227 -356 -458 -410
-720 -20 -96 -22 -124 -16 -320 8 -291 29 -423 87 -545 41 -88 498 -673 795
-1020 149 -173 343 -376 428 -447 64 -54 56 -53 164 -22 40 12 56 22 68 46 8
16 13 36 11 43 -3 7 -250 297 -549 646 -299 348 -558 654 -576 678 -167 230
-181 568 -36 912 65 155 69 159 78 63 17 -185 80 -347 191 -488 15 -19 16 -19
55 19 22 21 41 37 43 34 2 -2 9 -40 16 -83 17 -105 47 -220 72 -270 11 -22 15
-44 10 -49 -4 -4 -32 -7 -62 -5 l-54 3 4 86 c3 80 1 89 -20 110 l-24 24 -5
-63 c-3 -41 -10 -66 -20 -72 -12 -8 -16 0 -22 45 -9 67 -37 124 -79 159 -39
33 -73 31 -78 -4 -2 -14 5 -69 14 -122 l18 -97 -31 -36 c-27 -30 -32 -43 -32
-88 0 -63 28 -129 65 -153 74 -48 194 17 140 76 -22 24 -33 25 -56 4 -22 -20
-39 -10 -39 22 0 81 72 87 119 10 17 -27 22 -56 27 -157 3 -68 13 -146 21
-172 28 -89 88 -138 174 -141 42 -1 53 3 80 31 40 39 43 82 9 118 -35 37 -65
30 -66 -15 0 -29 -4 -34 -20 -32 -10 2 -32 17 -49 33 l-30 29 -3 141 c-3 122
-1 143 14 160 32 35 47 23 83 -64 45 -110 119 -247 178 -329 414 -579 566
-758 625 -735 9 3 19 22 22 42 7 33 3 42 -34 88 -97 123 -213 280 -264 360
-129 197 -174 350 -183 612 -5 176 5 253 50 365 25 61 25 61 3 54 -39 -12
-151 -74 -188 -104 -41 -34 -75 -118 -85 -212 -5 -52 -7 -56 -24 -47 -11 5
-26 20 -34 33 -18 27 -125 505 -125 557 0 19 7 59 16 88 8 29 13 56 9 59 -14
14 -63 -17 -95 -60 l-35 -47 -28 27 c-39 37 -103 170 -128 267 -16 60 -22 122
-26 245 -5 160 -4 169 26 287 33 132 70 237 96 277 l17 26 -39 0 c-25 0 -65
-12 -104 -32z m-149 -419 c-6 -19 -10 -54 -9 -79 1 -38 -5 -55 -43 -111 -109
-161 -177 -424 -179 -699 l-1 -105 -18 40 c-31 67 -43 193 -30 314 16 147 72
358 121 451 36 70 156 236 165 227 2 -2 -1 -19 -6 -38z m34 -1579 c81 -119 98
-160 67 -160 -8 0 -151 191 -185 248 -10 17 3 52 18 46 7 -3 52 -63 100 -134z
m582 -696 c214 -242 395 -447 402 -456 11 -13 8 -16 -19 -20 -29 -5 -44 11
-425 446 -354 404 -393 452 -377 464 9 7 20 11 24 10 4 -2 182 -201 395 -444z"/>
<path d="M4314 4936 c-306 -256 -355 -301 -500 -462 -395 -439 -660 -758 -867
-1047 l-78 -107 42 -58 c23 -31 45 -61 49 -65 4 -4 74 77 156 180 396 500 747
897 892 1011 51 41 54 29 16 -61 -41 -99 -120 -229 -229 -381 -132 -185 -623
-891 -627 -902 -2 -5 5 -20 14 -33 l17 -24 67 29 c36 15 77 37 91 47 25 20
429 582 716 997 86 124 210 315 276 425 116 193 123 209 216 463 53 145 95
265 93 268 -3 2 -157 -124 -344 -280z"/>
<path d="M4150 4047 c-14 -7 -134 -163 -272 -352 -269 -370 -260 -353 -233
-458 31 -119 112 -231 216 -298 42 -27 62 -33 108 -33 31 -1 67 1 81 4 24 5
25 3 24 -45 -1 -91 -8 -103 -136 -227 l-122 -116 47 -23 c41 -20 50 -21 86
-10 51 15 178 115 230 181 49 62 71 131 71 221 0 55 3 68 18 72 9 2 25 8 35
12 13 6 20 -1 32 -29 25 -59 19 -119 -20 -203 -67 -145 -145 -234 -277 -319
l-71 -46 52 -51 51 -52 66 34 c101 52 168 107 228 185 131 173 208 310 228
408 10 48 9 68 -2 115 -15 56 -14 59 10 107 15 31 26 72 28 110 5 82 -31 153
-108 215 l-55 45 3 65 c6 124 -52 188 -181 198 -116 10 -185 -26 -207 -106 -9
-35 -15 -42 -49 -51 -21 -5 -44 -17 -51 -25 -7 -9 -17 -58 -23 -109 -9 -89 -9
-95 16 -149 32 -70 109 -154 152 -166 41 -11 132 3 156 25 39 35 51 143 21
180 -29 37 -75 55 -112 44 -52 -15 -70 -37 -70 -87 0 -36 4 -46 20 -50 11 -3
20 -12 20 -19 0 -25 -38 -15 -64 17 -54 64 -25 168 60 209 50 25 68 25 120 1
83 -38 132 -151 105 -243 -35 -117 -191 -185 -290 -126 -57 34 -130 109 -159
163 -25 47 -27 58 -27 180 0 124 1 133 29 185 37 72 107 137 196 183 58 30 83
37 129 37 146 -1 271 -131 271 -281 0 -48 2 -53 50 -96 28 -25 63 -66 78 -92
24 -40 27 -56 27 -131 0 -71 -4 -94 -26 -140 -26 -56 -26 -56 -7 -90 23 -45
23 -123 -1 -176 -31 -69 -151 -262 -213 -344 -98 -132 -226 -236 -320 -264
-13 -4 -18 -15 -18 -38 1 -37 13 -57 53 -83 28 -18 28 -18 110 23 97 48 199
131 245 198 93 136 200 338 238 451 27 81 28 109 4 216 -12 53 -11 63 11 135
18 58 24 100 24 172 0 121 -25 179 -98 225 l-47 30 8 50 c30 206 -57 345 -260
417 -88 31 -193 38 -238 15z m-322 -597 c-2 -19 -10 -26 -30 -28 -22 -3 -30
-11 -36 -35 -12 -42 -2 -68 35 -92 19 -13 36 -37 47 -66 19 -56 93 -141 155
-181 l45 -28 -57 0 c-101 0 -172 54 -197 150 -7 24 -21 51 -31 58 -46 32 -62
112 -35 176 7 18 28 49 47 70 31 36 34 37 46 20 8 -11 13 -30 11 -44z"/>
<path d="M1669 3495 c-85 -17 -155 -53 -216 -111 -26 -25 -68 -62 -92 -82 -70
-58 -159 -171 -196 -247 -70 -144 -95 -387 -55 -519 18 -57 28 -72 81 -118 93
-81 107 -123 69 -207 -11 -24 -20 -54 -20 -68 0 -25 2 -25 54 -21 109 9 177
88 180 208 l1 58 36 6 c41 6 89 40 89 62 0 10 13 14 45 14 132 0 204 84 205
238 0 82 0 83 -35 115 -41 38 -55 73 -55 133 0 87 48 156 156 224 35 22 64 47
64 54 0 16 -58 68 -71 64 -4 -2 -53 -41 -109 -87 -121 -102 -155 -158 -154
-256 0 -64 12 -95 70 -185 40 -63 39 -83 -6 -145 -28 -39 -29 -40 -89 -39 -34
0 -61 -2 -61 -6 0 -3 -15 -23 -34 -43 -40 -44 -73 -48 -113 -12 l-28 25 41 -6
c37 -5 43 -3 67 26 15 17 27 40 27 51 0 16 7 19 51 19 66 0 86 12 100 59 10
35 9 45 -11 86 -25 52 -52 73 -104 82 -45 7 -82 -23 -92 -74 -4 -23 -12 -33
-25 -33 -16 0 -19 7 -19 43 0 71 42 122 114 136 25 6 33 16 56 71 47 118 133
220 243 287 61 38 65 46 41 81 -29 42 -125 19 -269 -65 -108 -62 -158 -105
-211 -179 -77 -108 -114 -212 -140 -398 -19 -135 -5 -183 79 -272 25 -28 27
-35 17 -54 l-12 -22 -30 28 c-16 16 -46 62 -66 103 -33 68 -37 83 -40 176 -9
245 51 385 239 552 81 72 199 141 307 179 52 18 60 30 46 68 -7 19 -34 19
-125 1z"/>
<path d="M3375 3040 c-11 -4 -31 -20 -44 -34 -14 -14 -34 -26 -46 -26 -26 0
-65 -27 -65 -46 0 -8 7 -14 16 -14 25 0 74 -56 74 -84 0 -23 -4 -26 -32 -26
-37 -1 -59 -14 -76 -47 -16 -30 -17 -30 29 -36 80 -11 108 -67 72 -142 -17
-35 -17 -37 7 -82 29 -54 39 -166 20 -212 -35 -86 -226 -55 -291 47 -16 25
-32 60 -35 79 -8 42 -18 42 -58 -2 -18 -19 -40 -35 -49 -35 -13 0 -17 -9 -17
-42 0 -72 47 -126 182 -212 70 -44 80 -59 122 -176 18 -50 42 -100 54 -112 19
-20 22 -20 45 -5 l24 16 7 -46 c5 -38 13 -52 47 -81 66 -57 83 -116 55 -194
-12 -34 -12 -38 3 -38 31 0 85 37 103 71 10 19 18 54 18 81 0 59 7 78 31 78
26 0 39 -30 39 -92 1 -29 7 -66 14 -83 l12 -30 77 4 c47 2 77 -1 77 -7 0 -6
28 -34 62 -62 49 -41 68 -51 90 -48 15 3 28 3 28 2 0 -2 -5 -26 -11 -55 -6
-29 -8 -78 -4 -113 l6 -62 58 4 c56 4 58 3 84 -32 52 -68 129 -136 166 -146
101 -28 280 9 342 71 29 29 24 36 -38 42 -83 7 -109 23 -158 96 -62 93 -141
178 -186 202 -53 26 -75 62 -61 94 8 17 20 25 36 25 13 0 37 3 54 6 28 6 31 9
26 38 -3 17 -17 54 -30 83 -21 44 -35 57 -90 90 l-66 38 51 3 c74 4 153 -40
241 -136 l68 -74 52 11 c94 20 334 102 390 133 175 97 300 245 300 354 l0 26
-35 -30 c-165 -146 -356 -218 -555 -210 -119 5 -167 23 -214 80 -15 18 -37 45
-49 60 -19 25 -31 29 -97 34 -41 4 -93 14 -116 24 -71 31 -94 66 -118 182 -10
46 -252 284 -358 352 -26 17 -29 17 -61 -3 -19 -12 -38 -21 -42 -21 -8 0 -2
35 17 99 12 41 11 44 -10 61 -20 17 -22 27 -22 122 0 116 -12 173 -40 188 -22
12 -97 12 -125 0z m35 -60 c11 -21 4 -70 -11 -70 -5 0 -9 20 -9 45 0 50 4 55
20 25z m294 -627 c-38 -59 -88 -70 -129 -28 -46 45 -35 55 61 55 l86 0 -18
-27z m-703 -55 c25 -24 71 -56 104 -73 43 -20 90 -59 163 -133 84 -85 105
-102 117 -92 12 10 24 2 65 -43 58 -64 78 -71 119 -46 31 19 52 50 86 133 23
56 48 77 67 58 10 -10 1 -35 -42 -123 -62 -125 -102 -169 -153 -169 -45 0 -72
22 -108 86 -29 51 -33 54 -71 54 -51 0 -100 46 -119 110 -17 61 -32 76 -164
159 -63 40 -117 77 -121 82 -5 9 1 39 9 39 2 0 23 -19 48 -42z m803 -422 c62
-58 38 -98 -49 -82 -39 8 -59 36 -49 69 17 57 48 61 98 13z"/>
<path d="M2198 2807 c-43 -138 -46 -183 -18 -244 23 -52 40 -55 40 -9 0 46 38
100 74 104 34 4 46 -10 46 -54 0 -33 1 -32 -200 -224 -106 -101 -208 -155
-280 -148 -35 3 -35 3 -38 56 -4 66 -16 67 -81 3 -66 -64 -86 -129 -77 -248 5
-75 4 -83 -13 -93 -39 -21 -76 -11 -125 31 -41 36 -47 39 -53 22 -13 -30 -9
-166 5 -199 9 -21 27 -38 53 -50 83 -37 123 -115 99 -191 -69 -212 -304 -471
-444 -489 l-50 -7 34 -28 c54 -46 112 -61 250 -66 l125 -5 125 170 c78 106
136 175 155 185 31 16 130 37 173 37 15 0 36 -13 57 -35 38 -42 81 -57 128
-44 32 9 97 62 97 80 0 5 -20 9 -44 9 -57 0 -72 17 -57 63 l12 34 77 5 c43 3
91 12 108 21 46 24 187 162 182 178 -2 7 -19 16 -37 20 -131 27 -96 223 79
444 33 41 70 81 83 89 28 19 64 11 72 -16 8 -23 -17 -64 -43 -72 -18 -6 -89
-136 -74 -136 4 0 68 18 142 40 130 39 170 61 170 94 0 15 -77 89 -108 105
-32 17 -62 69 -62 108 0 25 -9 39 -44 67 -23 20 -49 36 -56 36 -36 0 -179
-196 -292 -400 l-63 -115 1 -137 c1 -152 3 -148 -74 -148 -73 0 -106 48 -100
145 4 59 6 65 64 131 58 66 62 74 86 172 l26 103 -22 -7 c-11 -3 -58 -21 -102
-39 -72 -29 -90 -41 -160 -115 l-79 -82 -49 5 c-67 6 -96 38 -96 106 l0 48 49
7 c70 9 153 40 223 82 144 88 409 331 424 389 5 19 -1 35 -22 63 -37 50 -41
52 -100 52 -27 0 -58 6 -68 13 -17 12 -17 14 -2 30 10 9 25 21 34 26 15 8 8
19 -48 79 -36 38 -67 70 -70 71 -3 0 -22 -54 -42 -122z m-388 -931 c0 -2 -6
-16 -14 -31 -13 -25 -13 -32 0 -57 27 -51 54 -55 134 -20 38 17 70 28 70 25 0
-2 -10 -37 -22 -76 l-21 -71 38 -33 c44 -38 79 -42 110 -13 19 17 24 18 34 7
8 -11 6 -20 -14 -41 -13 -14 -33 -26 -45 -26 -30 0 -80 23 -116 53 l-31 26
-89 -63 c-49 -35 -90 -63 -92 -61 -1 1 13 44 33 94 19 51 35 101 35 111 0 10
-13 28 -29 39 -43 31 -56 71 -37 110 10 19 24 31 36 31 11 0 20 -2 20 -4z"/>
<path d="M3142 2593 c-46 -42 -88 -87 -93 -101 -12 -32 5 -54 37 -46 32 8 40
-15 20 -55 -22 -42 -20 -49 17 -53 22 -2 35 -10 42 -26 9 -21 14 -23 55 -17
76 11 86 32 67 144 -11 63 -15 71 -26 57 -15 -18 -41 -22 -41 -6 0 6 9 28 20
50 11 22 20 51 20 65 0 28 -16 65 -28 65 -4 0 -45 -34 -90 -77z"/>
<path d="M3157 1776 c-7 -68 -63 -257 -95 -321 -39 -78 -69 -112 -125 -140
-59 -29 -138 -33 -202 -10 -22 8 -40 15 -41 15 0 0 2 -14 4 -32 7 -44 75 -110
132 -127 63 -19 153 -15 235 10 102 31 278 124 314 165 36 41 36 42 11 73
l-20 24 -25 -27 c-39 -42 -46 -30 -14 27 44 80 37 187 -17 253 -21 27 -23 27
-24 8 0 -29 -65 -156 -91 -180 -22 -19 -22 -19 -10 3 24 46 51 188 42 220 -13
44 -29 71 -50 82 -16 9 -19 5 -24 -43z"/>
<path d="M1449 1694 c-7 -9 -56 -48 -109 -87 -351 -260 -456 -369 -556 -581
-80 -171 -96 -299 -47 -371 27 -38 28 -39 31 -15 13 128 49 217 123 309 53 64
177 160 250 192 211 93 356 207 419 328 12 23 6 91 -8 91 -3 0 -40 -33 -82
-74 -67 -65 -87 -78 -194 -125 -65 -28 -121 -50 -123 -48 -8 9 273 246 335
283 18 10 32 27 32 37 0 47 -48 88 -71 61z"/>
<path d="M3556 1495 c-18 -73 -89 -143 -235 -236 l-83 -52 -50 -101 c-54 -112
-93 -228 -84 -252 10 -26 49 -12 75 28 23 36 25 36 145 58 149 27 184 42 214
97 l23 42 -28 6 c-44 9 -78 29 -81 49 -3 12 21 42 69 89 75 75 99 115 99 167
0 33 -19 83 -42 114 -14 18 -15 18 -22 -9z"/>
<path d="M2365 1347 c-151 -50 -265 -170 -265 -280 0 -35 -3 -39 -47 -58 l-47
-20 52 -52 c65 -66 70 -106 21 -162 l-31 -35 29 -11 c27 -10 72 -8 120 6 16 5
22 2 25 -11 3 -15 12 -18 53 -16 68 4 90 -13 81 -60 -9 -51 -45 -98 -91 -122
-32 -16 -65 -22 -167 -26 -107 -4 -131 -8 -155 -26 -31 -23 -100 -150 -110
-203 -6 -33 -5 -33 18 -20 13 7 49 36 80 66 31 29 64 53 74 53 15 0 17 -6 11
-40 -5 -35 -4 -40 13 -40 33 0 68 18 110 55 30 27 47 36 68 33 25 -3 28 -7 27
-40 -2 -46 9 -48 92 -17 101 38 175 124 209 242 10 35 22 57 31 57 22 0 17
-48 -11 -109 l-25 -53 27 6 c89 21 163 88 163 148 0 67 -62 167 -128 205 -37
22 -57 26 -127 27 -95 1 -120 15 -131 74 -12 64 56 152 118 152 23 0 39 -9 62
-36 103 -118 123 -136 180 -164 75 -37 181 -54 256 -41 30 5 57 7 59 5 9 -8
76 104 103 171 25 65 35 115 23 115 -3 0 -29 -12 -58 -27 -45 -24 -63 -28
-137 -28 -109 1 -179 30 -228 96 -18 24 -47 64 -65 89 -67 91 -180 130 -282
97z"/>
</g>
</svg>
