<?xml version="1.0" standalone="no"?>
<!DOCTYPE svg PUBLIC "-//W3C//DTD SVG 20010904//EN"
 "http://www.w3.org/TR/2001/REC-SVG-20010904/DTD/svg10.dtd">
<svg version="1.0" xmlns="http://www.w3.org/2000/svg"
 width="591.000000pt" height="591.000000pt" viewBox="0 0 591.000000 591.000000"
 preserveAspectRatio="xMidYMid meet">

<g transform="translate(0.000000,591.000000) scale(0.100000,-0.100000)"
fill="#CCA419" stroke="none">
<path d="M2906 5038 c-25 -22 -27 -31 -61 -373 l-35 -350 -37 -75 c-28 -58
-57 -96 -128 -167 l-93 -92 79 -83 c94 -98 119 -153 119 -256 0 -82 -28 -152
-60 -152 -24 0 -94 35 -159 79 l-44 29 -67 -68 c-37 -37 -101 -87 -143 -112
l-77 -45 82 -40 83 -40 50 37 c132 98 238 111 288 35 12 -19 30 -35 39 -35 24
0 48 39 48 77 0 41 21 53 95 53 l57 0 -5 33 c-22 121 -13 904 12 1112 12 104
26 -277 26 -733 l0 -412 57 0 c65 0 88 -16 88 -61 0 -70 41 -90 79 -38 29 39
79 61 123 53 51 -10 129 -50 175 -89 l42 -35 85 42 85 42 -72 40 c-43 23 -101
68 -145 112 l-73 73 -79 -51 c-97 -61 -135 -67 -161 -23 -31 52 -35 133 -9
216 20 66 29 80 105 157 l83 85 -31 25 c-98 79 -194 205 -221 290 -8 26 -29
198 -47 382 -31 311 -35 337 -56 358 -12 12 -33 22 -47 22 -14 0 -36 -10 -50
-22z"/>
<path d="M210 4517 c0 -2 92 -88 204 -190 l203 -185 154 -11 c480 -35 778 -71
1010 -122 l96 -22 64 26 c35 15 117 39 181 54 65 15 118 32 118 36 0 4 -24 19
-52 32 -116 53 -352 107 -733 170 -258 42 -1190 202 -1222 210 -13 3 -23 4
-23 2z"/>
<path d="M5320 4454 c-201 -35 -550 -95 -776 -133 -402 -68 -605 -110 -734
-153 -77 -25 -140 -55 -140 -67 0 -5 27 -14 60 -20 75 -15 203 -53 255 -76 22
-10 45 -17 50 -16 216 56 574 103 1035 136 176 13 219 19 235 34 24 21 364
328 385 347 18 17 56 23 -370 -52z"/>
<path d="M2300 4151 c12 -23 13 -81 2 -98 -4 -6 -59 -21 -122 -33 -63 -12
-155 -35 -204 -51 -177 -59 -419 -198 -655 -379 -121 -92 -163 -130 -142 -130
6 0 32 -19 56 -41 56 -52 60 -91 16 -161 -62 -98 -253 -222 -406 -263 -79 -22
-272 -30 -361 -16 -104 16 -236 56 -328 101 -45 21 -82 37 -84 35 -8 -7 106
-160 174 -234 88 -94 132 -119 268 -151 373 -87 826 -25 1096 152 l46 30 0 71
c-1 101 36 164 126 220 33 20 62 62 54 76 -4 5 -52 -9 -113 -34 -97 -39 -111
-47 -138 -87 -82 -122 -170 -200 -297 -264 -87 -44 -214 -80 -303 -87 -38 -3
-59 -4 -45 -1 156 30 276 78 375 148 76 55 172 157 207 223 l27 49 -26 56
c-14 32 -23 64 -20 71 3 8 54 51 113 95 120 90 318 197 437 236 220 72 420 48
542 -65 l47 -43 -7 39 c-35 192 -140 387 -273 505 -59 53 -80 63 -62 31z"/>
<path d="M3529 4104 c-118 -114 -196 -247 -238 -409 -29 -108 -27 -113 16 -75
92 81 241 119 387 100 220 -30 443 -144 714 -365 2 -1 -9 -32 -24 -68 l-27
-65 26 -45 c69 -118 177 -217 309 -283 69 -35 220 -83 267 -85 23 -2 23 -2 4
-6 -36 -7 -191 26 -276 59 -143 55 -305 186 -368 297 -20 37 -32 44 -133 85
-84 33 -112 41 -114 30 -6 -23 13 -46 69 -83 74 -50 109 -118 109 -211 l0 -68
48 -32 c215 -143 571 -214 902 -181 129 13 171 22 281 57 73 24 81 29 173 124
84 87 176 208 176 232 0 4 -30 -7 -67 -26 -257 -128 -561 -151 -789 -60 -184
73 -354 226 -354 317 0 23 81 117 101 117 24 0 0 25 -103 106 -234 182 -513
346 -688 404 -36 12 -123 34 -195 49 -123 25 -130 27 -139 54 -7 19 -6 37 2
59 6 18 10 34 7 36 -2 3 -36 -26 -76 -64z"/>
<path d="M740 4078 c0 -3 49 -37 109 -77 60 -39 117 -81 126 -91 16 -18 32
-20 124 -20 159 0 374 -18 425 -35 l44 -15 119 62 118 63 -80 12 c-314 48
-985 117 -985 101z"/>
<path d="M4955 4068 c-154 -12 -425 -43 -654 -75 -221 -30 -217 -22 -59 -104
l98 -50 45 15 c51 18 261 36 414 36 98 0 105 1 140 28 20 16 78 57 129 91 50
34 92 64 92 66 0 7 -70 4 -205 -7z"/>
<path d="M1180 3827 c0 -2 26 -24 58 -48 31 -23 71 -53 87 -65 l31 -23 74 49
74 49 -39 18 c-29 12 -76 18 -162 21 -68 2 -123 2 -123 -1z"/>
<path d="M4495 3823 c-46 -10 -85 -25 -85 -32 0 -5 32 -29 70 -55 l70 -46 85
62 c46 35 84 66 85 71 0 7 -190 8 -225 0z"/>
<path d="M1728 3450 c-114 -86 -178 -142 -178 -156 0 -5 4 -16 10 -24 8 -12
15 -11 48 8 22 12 54 22 72 22 23 0 40 9 64 35 19 19 42 35 54 35 65 0 256
-91 366 -175 41 -31 62 -30 88 6 14 18 17 33 12 53 -6 24 -30 39 -185 114
-112 55 -178 93 -178 102 -1 24 -30 60 -49 60 -10 0 -65 -36 -124 -80z"/>
<path d="M4028 3513 c-9 -10 -18 -27 -22 -38 -4 -14 -60 -47 -181 -107 -142
-71 -176 -92 -181 -112 -8 -35 4 -65 31 -78 20 -9 35 -3 110 47 106 70 236
132 292 141 39 6 45 4 79 -30 26 -26 45 -36 68 -36 17 0 46 -9 65 -21 38 -23
61 -19 61 10 0 30 -257 241 -295 241 -6 0 -19 -8 -27 -17z"/>
<path d="M2865 3310 c5 -46 4 -61 -7 -63 -7 -2 -40 -13 -74 -23 l-61 -20 -32
48 -31 48 -31 -16 c-17 -8 -51 -34 -75 -56 l-44 -40 40 -48 c22 -26 40 -51 40
-54 0 -4 -12 -25 -27 -49 -15 -23 -28 -43 -29 -45 -1 -2 -26 4 -55 12 -42 13
-54 13 -61 4 -13 -21 -31 -90 -32 -127 -1 -34 0 -35 57 -49 l57 -14 0 -49 c0
-43 -3 -51 -26 -61 -25 -12 -54 -54 -54 -81 0 -8 9 -26 21 -41 16 -20 29 -26
58 -26 34 0 42 -5 65 -40 14 -22 26 -42 26 -44 0 -3 -19 -26 -41 -52 l-42 -48
34 -29 c38 -32 118 -82 123 -76 1 2 17 25 35 50 l32 46 64 -26 c57 -23 64 -29
70 -61 10 -53 31 -86 64 -100 26 -11 35 -10 57 5 27 17 54 70 54 105 0 15 14
27 56 45 31 14 62 25 70 25 7 0 27 -20 45 -45 18 -25 35 -45 37 -45 12 0 100
62 122 85 l23 25 -40 47 -39 48 25 42 c24 39 30 42 67 43 50 0 74 23 74 72 0
35 -32 78 -58 78 -8 0 -12 19 -12 54 l0 54 58 14 c54 14 57 16 55 44 -3 40
-34 144 -44 144 -4 0 -18 -4 -31 -9 -69 -25 -73 -24 -106 29 l-30 49 39 44
c21 25 39 49 39 54 0 18 -118 113 -141 113 -4 0 -21 -22 -38 -50 l-30 -49 -43
19 c-24 11 -55 20 -70 20 -28 0 -28 1 -28 65 l0 65 -91 0 -91 0 7 -60z m212
-269 c109 -55 168 -149 168 -266 -1 -92 -31 -160 -97 -220 -116 -104 -293
-100 -403 10 -63 63 -80 108 -80 210 0 80 3 95 27 137 37 61 110 125 167 143
63 20 164 14 218 -14z"/>
<path d="M2892 2986 c-96 -31 -152 -107 -152 -206 0 -104 65 -185 168 -210 67
-16 129 1 186 51 91 81 100 210 20 299 -60 66 -143 91 -222 66z m113 -156 c42
-46 10 -120 -51 -120 -64 0 -98 76 -54 120 26 26 81 26 105 0z"/>
<path d="M3850 3205 c-13 -14 -61 -44 -107 -68 -79 -40 -83 -44 -83 -76 0 -23
-7 -39 -24 -52 -36 -28 -68 -102 -65 -148 4 -48 -14 -71 -55 -71 -37 0 -56
-15 -56 -45 0 -27 18 -45 47 -45 19 0 23 -5 23 -34 0 -18 -7 -39 -15 -46 -14
-12 -13 -16 6 -37 l23 -23 23 22 c31 29 38 76 19 121 l-15 37 37 30 36 30 34
-20 c47 -28 78 -26 99 8 10 15 30 39 45 54 36 34 35 45 -6 62 -94 39 -84 146
14 146 34 0 42 4 50 26 12 30 13 124 2 142 -6 9 -14 6 -32 -13z"/>
<path d="M2014 3175 c-4 -30 -2 -58 8 -83 12 -33 18 -37 57 -42 60 -7 90 -44
71 -89 -13 -32 -49 -61 -75 -61 -25 0 -17 -37 14 -62 16 -14 32 -34 35 -46 11
-33 53 -39 99 -14 l40 22 33 -28 c24 -19 32 -33 28 -47 -21 -74 -17 -107 17
-143 20 -22 22 -22 40 -6 23 21 24 37 3 54 -21 18 -14 62 11 66 31 4 56 41 46
67 -6 16 -18 23 -42 25 -50 5 -67 25 -67 81 0 53 -17 94 -56 130 -19 18 -26
35 -26 61 0 35 -3 38 -44 54 -23 9 -73 37 -110 61 -36 25 -68 45 -71 45 -2 0
-7 -20 -11 -45z"/>
<path d="M2767 2233 c-12 -11 -8 -51 10 -87 l16 -35 -42 -55 c-23 -31 -75 -83
-115 -117 l-74 -62 62 -58 c34 -32 82 -85 106 -118 25 -34 47 -61 51 -61 13 0
47 48 59 84 9 28 15 35 21 25 23 -37 2 -93 -55 -148 -43 -42 -44 -57 -16 -205
29 -147 139 -508 163 -532 7 -8 114 322 141 435 14 57 30 139 36 182 l11 78
-44 44 c-57 56 -74 105 -53 144 l15 28 1 -25 c0 -32 41 -104 60 -108 9 -1 28
18 45 45 16 26 63 80 104 121 l74 73 -24 17 c-41 28 -130 115 -170 165 l-39
48 21 40 c26 52 22 83 -11 87 -21 2 -28 -4 -42 -37 -16 -40 -67 -81 -100 -81
-15 0 -16 -22 -11 -267 6 -297 -6 -684 -18 -598 -4 28 -8 232 -7 455 l0 404
-27 8 c-36 9 -74 45 -91 86 -13 30 -40 42 -57 25z"/>
</g>
</svg>
