<?xml version="1.0" standalone="no"?>
<!DOCTYPE svg PUBLIC "-//W3C//DTD SVG 20010904//EN"
 "http://www.w3.org/TR/2001/REC-SVG-20010904/DTD/svg10.dtd">
<svg version="1.0" xmlns="http://www.w3.org/2000/svg"
 width="591.000000pt" height="591.000000pt" viewBox="0 0 591.000000 591.000000"
 preserveAspectRatio="xMidYMid meet">

<g transform="translate(0.000000,591.000000) scale(0.100000,-0.100000)"
fill="#CCA419" stroke="none">
<path d="M2855 5023 c-27 -2 -53 -8 -58 -12 -4 -4 11 -35 33 -70 22 -34 40
-66 40 -70 0 -16 -31 -21 -131 -21 l-99 0 0 -110 0 -110 43 0 c38 0 49 7 114
66 40 36 77 63 83 59 14 -9 13 -58 -2 -73 -7 -7 -25 -12 -41 -12 -26 0 -28 -3
-25 -32 3 -30 6 -33 33 -29 53 6 179 4 213 -4 32 -7 32 -7 32 29 0 33 -2 36
-30 36 -23 0 -33 6 -40 24 -10 28 -3 66 14 66 6 0 41 -29 76 -65 62 -62 67
-65 113 -65 l48 0 -3 108 -3 107 -107 5 c-58 3 -110 9 -115 13 -4 5 -1 20 8
35 8 15 26 46 40 69 13 23 21 44 19 46 -8 7 -199 15 -255 10z"/>
<path d="M2042 4893 c40 -79 51 -115 55 -187 9 -143 -26 -211 -137 -260 -108
-49 -138 -51 -456 -33 -323 18 -425 37 -562 102 -41 19 -76 35 -78 35 -2 0 -4
-16 -4 -36 0 -31 14 -52 111 -162 61 -70 122 -133 136 -141 14 -7 67 -22 117
-34 80 -17 128 -20 386 -21 l295 -1 0 -25 0 -25 -290 1 c-289 0 -291 1 -402
30 -112 30 -113 30 -113 9 0 -14 39 -59 109 -128 l108 -107 106 0 c113 0 290
27 397 60 36 11 75 20 88 20 36 0 25 -27 -20 -49 -85 -40 -216 -63 -440 -77
-72 -4 -108 -10 -108 -17 1 -19 216 -187 239 -187 34 0 178 49 261 90 76 36
125 43 118 16 -6 -20 -206 -113 -295 -137 -47 -13 -88 -30 -91 -37 -7 -19 11
-33 121 -90 l97 -51 111 97 c61 53 116 97 123 97 33 0 -3 -45 -127 -160 -76
-70 -136 -129 -135 -131 2 -1 53 -15 113 -29 127 -30 105 -40 185 88 27 42 54
77 60 77 28 0 4 -61 -71 -178 -53 -83 -78 -131 -73 -139 11 -15 484 -453 490
-453 2 0 4 132 4 293 l0 292 -53 29 c-83 47 -176 148 -225 246 -61 124 -82
218 -89 391 -5 121 -3 154 11 197 22 67 64 123 120 162 l46 31 0 69 c0 63 -7
87 -67 237 -69 175 -108 233 -153 233 -12 0 -20 -3 -18 -7z"/>
<path d="M3808 4884 c-34 -18 -49 -48 -122 -232 -51 -130 -56 -151 -56 -221 0
-74 1 -77 28 -94 48 -28 93 -79 121 -137 25 -52 26 -63 24 -195 -2 -154 -20
-262 -60 -362 -52 -129 -148 -247 -250 -305 l-53 -30 0 -296 0 -296 43 40 c23
22 135 127 249 233 l208 192 -37 57 c-106 166 -134 215 -131 229 7 37 29 19
83 -69 32 -51 58 -94 60 -96 2 -2 228 48 232 51 1 2 -63 63 -143 136 -80 73
-143 138 -141 144 8 26 31 12 138 -82 l114 -100 110 59 c135 71 140 85 42 112
-143 39 -317 120 -317 147 0 24 39 18 114 -18 93 -45 223 -91 259 -91 24 0
247 172 247 191 0 5 -10 9 -22 9 -85 1 -321 22 -385 36 -95 19 -183 57 -183
78 0 22 11 20 142 -13 143 -37 244 -51 366 -51 l96 0 113 113 c62 62 113 120
113 130 0 15 -4 15 -47 2 -142 -44 -248 -55 -507 -55 -228 0 -255 2 -260 17
-14 35 9 38 297 39 287 0 375 9 482 46 54 20 275 268 275 309 0 38 -15 44 -53
21 -53 -32 -157 -69 -242 -87 -75 -15 -471 -44 -616 -45 -129 0 -271 65 -310
142 -18 35 -20 55 -17 147 2 90 7 114 29 159 29 57 21 66 -33 36z"/>
<path d="M2858 4579 c-14 -8 -18 -24 -18 -74 l0 -65 115 0 115 0 0 63 c0 59
-2 65 -25 75 -32 15 -163 15 -187 1z"/>
<path d="M2840 4380 l0 -40 115 0 115 0 0 40 0 40 -115 0 -115 0 0 -40z"/>
<path d="M2840 4290 l0 -30 115 0 115 0 0 30 0 30 -115 0 -115 0 0 -30z"/>
<path d="M2840 4175 l0 -65 -29 0 c-41 0 -78 -50 -59 -80 10 -16 23 -20 65
-20 l53 0 0 -110 0 -110 -41 -20 -40 -21 -197 113 -197 113 -3 42 c-3 45 -19
58 -56 44 -24 -10 -49 -79 -62 -171 -11 -82 58 -210 113 -210 23 0 72 -38 88
-70 10 -20 15 -60 15 -127 0 -54 3 -108 6 -120 6 -21 7 -21 82 15 43 19 81 39
86 43 5 5 -3 55 -20 119 l-29 111 -102 57 c-150 84 -130 98 24 17 70 -36 129
-68 131 -69 1 -2 9 -43 18 -92 20 -120 18 -116 69 -152 25 -17 45 -38 45 -47
0 -23 -40 -18 -67 7 l-24 22 -99 -49 -99 -50 49 -63 c27 -35 47 -69 44 -77 -3
-7 -23 -16 -44 -20 -59 -10 -62 -20 -50 -122 11 -83 52 -203 71 -203 4 0 27
22 51 50 24 27 46 50 51 50 4 0 7 -289 7 -643 l0 -643 129 -363 c72 -200 131
-365 133 -366 2 -2 63 165 136 370 l132 374 0 638 0 638 52 -54 51 -53 17 22
c27 36 52 127 57 211 l6 78 -48 13 c-26 7 -50 19 -52 26 -3 7 16 40 42 73 26
33 46 62 44 63 -2 2 -46 25 -98 51 l-93 46 -22 -20 c-12 -12 -34 -21 -48 -21
-39 0 -25 34 28 67 41 26 43 30 54 98 25 152 11 132 150 207 69 37 128 67 132
68 4 0 5 -7 2 -15 -3 -8 -43 -35 -87 -59 -45 -25 -90 -51 -100 -58 -15 -11
-82 -226 -74 -235 2 -1 41 -20 88 -42 l84 -39 10 132 c6 72 16 141 23 153 6
12 41 35 76 52 58 27 67 35 91 86 25 50 27 63 22 128 -3 40 -12 89 -19 111
-22 69 -88 86 -88 22 0 -17 -4 -36 -8 -43 -4 -6 -95 -62 -202 -123 l-194 -111
-38 17 -38 17 0 113 0 113 51 3 c65 4 82 24 57 65 -11 19 -26 29 -47 31 -30 3
-30 4 -33 65 l-3 62 -112 3 -113 3 0 -66z m149 -604 c36 -46 38 -56 11 -73
-18 -12 -20 -24 -20 -131 0 -65 5 -127 10 -138 8 -14 21 -19 56 -19 25 0 54 5
65 10 14 8 25 6 44 -6 24 -15 24 -17 7 -40 -20 -27 -35 -30 -52 -9 -8 9 -30
15 -59 15 -87 0 -81 82 -81 -1057 0 -549 -3 -1015 -7 -1036 -4 -26 -9 -34 -14
-25 -5 7 -9 474 -9 1036 0 1019 0 1024 -21 1053 -17 25 -27 29 -66 29 -30 0
-53 -6 -65 -17 -18 -16 -20 -15 -41 6 l-22 22 23 19 c18 15 28 17 42 10 10 -6
39 -10 64 -10 67 0 76 18 76 156 0 110 -1 113 -26 133 l-26 21 33 45 c19 24
37 45 41 45 3 0 20 -18 37 -39z"/>
</g>
</svg>
