<?xml version="1.0" encoding="UTF-8"?>
<!DOCTYPE svg PUBLIC "-//W3C//DTD SVG 1.1//EN" "http://www.w3.org/Graphics/SVG/1.1/DTD/svg11.dtd">
<svg xmlns="http://www.w3.org/2000/svg" version="1.1" width="46px" height="46px" style="shape-rendering:geometricPrecision; text-rendering:geometricPrecision; image-rendering:optimizeQuality; fill-rule:evenodd; clip-rule:evenodd" xmlns:xlink="http://www.w3.org/1999/xlink">
<g><path style="opacity:0.608" fill="#CCA419" d="M 20.5,-0.5 C 21.5,-0.5 22.5,-0.5 23.5,-0.5C 26.5302,3.27031 28.1969,7.60364 28.5,12.5C 27.5116,13.795 26.5116,15.1283 25.5,16.5C 24.5,16.5 23.5,16.5 22.5,16.5C 22.1583,15.6618 21.4916,15.3284 20.5,15.5C 18.935,11.0832 19.6017,6.91656 22.5,3C 21.695,1.88732 21.0283,0.72065 20.5,-0.5 Z M 22.5,7.5 C 23.3764,7.36912 24.0431,7.70245 24.5,8.5C 22.1916,9.87342 21.5249,9.54009 22.5,7.5 Z"/></g>
<g><path style="opacity:0.577" fill="#CCA419" d="M 11.5,16.5 C 9.01811,11.6827 9.51811,7.01604 13,2.5C 14.6401,5.63528 16.4735,8.63528 18.5,11.5C 17.7703,15.3334 15.437,17 11.5,16.5 Z M 12.5,9.5 C 15.6741,9.95221 16.0075,10.9522 13.5,12.5C 12.6143,11.675 12.281,10.675 12.5,9.5 Z"/></g>
<g><path style="opacity:0.558" fill="#CCA419" d="M 28.5,16.5 C 28.5,15.1667 28.5,13.8333 28.5,12.5C 31.9353,10.5793 33.2686,7.91259 32.5,4.5C 36.5912,7.83449 38.0912,12.1678 37,17.5C 36.2613,18.5742 35.2613,19.2409 34,19.5C 32.016,18.6607 30.1826,17.6607 28.5,16.5 Z M 32.5,14.5 C 35.0009,14.5109 35.1676,15.1776 33,16.5C 32.5357,15.9056 32.369,15.2389 32.5,14.5 Z"/></g>
<g><path style="opacity:0.65" fill="#CCA419" d="M 11.5,16.5 C 12.2564,18.7634 12.4231,21.0967 12,23.5C 13.128,21.6547 13.628,19.6547 13.5,17.5C 16.1085,17.5997 18.4418,16.9331 20.5,15.5C 20.8417,16.3382 21.5084,16.6716 22.5,16.5C 23.5,17.8333 24.5,17.8333 25.5,16.5C 26.5,16.5 27.5,16.5 28.5,16.5C 28.7619,18.5638 29.9286,19.8971 32,20.5C 32.6667,22.5 33.3333,24.5 34,26.5C 36.9598,23.0289 40.1265,22.6956 43.5,25.5C 39.9441,26.1763 38.9441,28.0096 40.5,31C 40.0664,33.6342 39.233,36.1342 38,38.5C 34.9555,40.3008 32.4555,42.6342 30.5,45.5C 28.1667,45.5 25.8333,45.5 23.5,45.5C 21.0558,44.1288 19.7225,41.9621 19.5,39C 21.4291,35.072 23.7624,31.4053 26.5,28C 26.0442,24.8915 25.8776,21.7249 26,18.5C 24.117,19.6526 23.2837,21.3193 23.5,23.5C 19.551,23.6932 19.551,24.1932 23.5,25C 24.8331,26.8402 24.6665,27.3402 23,26.5C 20.1203,29.1107 17.9536,28.7774 16.5,25.5C 15.2798,26.7111 14.1131,26.7111 13,25.5C 13.3073,29.3026 15.474,31.3026 19.5,31.5C 19.528,33.5824 18.8613,35.4157 17.5,37C 18.6787,39.7957 18.6787,42.6291 17.5,45.5C 17.1667,45.5 16.8333,45.5 16.5,45.5C 16.1667,44.1667 15.8333,44.1667 15.5,45.5C 14.1667,45.5 12.8333,45.5 11.5,45.5C 11.6107,44.8826 11.944,44.3826 12.5,44C 10.4233,43.8078 8.4233,43.3078 6.5,42.5C 7.37598,41.7492 8.37598,41.2492 9.5,41C 5.5791,40.881 2.91244,39.0476 1.5,35.5C 1.83333,35.1667 2.16667,34.8333 2.5,34.5C 7.60026,37.0361 7.76692,36.3695 3,32.5C 2.3025,23.5918 3.63584,23.2585 7,31.5C 8.51221,32.2567 9.84555,33.2567 11,34.5C 10.1852,32.5685 9.68517,30.4019 9.5,28C 9.55887,26.5643 9.89221,25.231 10.5,24C 6.70609,24.0372 4.70609,22.2038 4.5,18.5C 4.72358,15.5949 5.55692,12.9282 7,10.5C 7.33175,13.5433 8.83175,15.5433 11.5,16.5 Z M 7.5,18.5 C 10.2933,18.74 10.7933,19.74 9,21.5C 7.96141,20.7562 7.46141,19.7562 7.5,18.5 Z M 18.5,18.5 C 20.6246,19.3676 20.7913,20.3676 19,21.5C 17.3167,20.8235 17.1501,19.8235 18.5,18.5 Z M 34.5,32.5 C 37.1113,34.682 36.6113,36.3487 33,37.5C 30.3756,35.3011 27.5422,34.9678 24.5,36.5C 25.8857,34.2101 27.7191,33.5434 30,34.5C 31.4064,33.5862 32.9064,32.9195 34.5,32.5 Z M 24.5,36.5 C 24.3253,38.6208 24.6586,40.6208 25.5,42.5C 21.8917,41.0879 21.5583,39.0879 24.5,36.5 Z M 27.5,38.5 C 29.3442,39.2039 29.8442,40.5372 29,42.5C 28.2086,41.255 27.7086,39.9217 27.5,38.5 Z"/></g>
</svg>
