<?xml version="1.0" encoding="UTF-8" standalone="no"?>
<svg
   xmlns:dc="http://purl.org/dc/elements/1.1/"
   xmlns:cc="http://creativecommons.org/ns#"
   xmlns:rdf="http://www.w3.org/1999/02/22-rdf-syntax-ns#"
   xmlns:svg="http://www.w3.org/2000/svg"
   xmlns="http://www.w3.org/2000/svg"
   viewBox="0 0 188.976 188.976"
   height="188.976"
   width="188.976"
   xml:space="preserve"
   id="svg2"
   version="1.1"><metadata
     id="metadata8"><rdf:RDF><cc:Work
         rdf:about=""><dc:format>image/svg+xml</dc:format><dc:type
           rdf:resource="http://purl.org/dc/dcmitype/StillImage" /></cc:Work></rdf:RDF></metadata><defs
     id="defs6"><clipPath
       id="clipPath18"
       clipPathUnits="userSpaceOnUse"><path
         id="path16"
         d="M 0,141.732 H 141.732 V 0 H 0 Z" /></clipPath></defs><g
     transform="matrix(1.3333333,0,0,-1.3333333,0,188.976)"
     id="g10"><g
       id="g12"><g
         clip-path="url(#clipPath18)"
         id="g14"><g
           transform="translate(59.9014,70.7303)"
           id="g20"><path
             id="path22"
             style="fill:#CCA419;fill-opacity:1;fill-rule:nonzero;stroke:none"
             d="m 0,0 c -0.91,0.69 -7.55,6.132 0.083,12.67 0.011,0.01 0.017,0.015 0.028,0.024 0.145,0.115 1.667,1.317 2.721,1.929 0.41,0.238 0.933,0.029 1.055,-0.43 C 4.536,11.751 6.594,4.321 8.137,2.257 8.367,1.948 8.324,1.515 8.026,1.271 6.897,0.347 4.144,-1.35 0.222,-0.113 0.142,-0.088 0.067,-0.051 0,0 m 37.661,-0.727 c 0,0 -1.821,5.42 -7.042,7.311 0,0 -4.183,1.83 -3.529,6.075 0,0 0.26,3.635 -6.092,1.383 -0.026,-0.009 -0.051,-0.019 -0.075,-0.031 -0.554,-0.276 -8.138,-3.918 -13.677,0.765 0,0 -4.128,3.976 -6.194,2.831 C 0.986,17.57 0.929,17.522 0.876,17.468 0.327,16.906 -2.987,13.516 -4.435,12.035 -4.868,11.591 -5.462,11.347 -6.082,11.355 l -4.276,0.054 c -0.19,0.002 -0.371,0.079 -0.506,0.213 l -0.52,0.52 c -0.411,0.412 -1.125,0.205 -1.232,-0.367 -0.081,-0.436 -0.058,-1.111 0.182,-2.153 0.018,-0.075 0.025,-0.153 0.017,-0.229 -0.076,-0.774 -0.53,-5.381 -0.75,-7.613 -0.079,-0.802 -0.394,-1.56 -0.912,-2.178 -1.515,-1.81 -4.805,-5.531 -6.327,-5.637 0,0 -1.882,-0.087 -2.763,-2.579 0,0 -3.032,-11.173 2.057,-16.628 l 3.518,-3.826 c 1.45,-1.578 3.178,-2.873 5.104,-3.814 3.043,-1.488 7.613,-3.635 9.575,-4.106 0.375,-0.09 0.746,0.151 0.835,0.528 0.363,1.545 1.57,5.563 4.527,7.027 0.258,0.127 0.433,0.372 0.433,0.659 v 1.102 c 0,0.577 -0.399,0.922 -0.842,0.846 -2.622,-0.455 -10.877,-0.86 -17.7,9.981 -1.325,2.106 -1.989,4.599 -1.713,7.072 0.13,1.161 0.462,2.203 1.187,2.593 0.098,0.052 0.207,0.069 0.318,0.066 0.344,-0.009 1.135,-0.092 1.908,-0.609 0.66,-0.441 1.444,-0.657 2.237,-0.629 2.593,0.089 7.907,0.603 11.095,3.202 1.315,1.072 2.802,1.905 4.409,2.45 2.466,0.836 5.814,1.653 8.123,0.971 0.492,-0.145 0.967,0.245 0.917,0.756 -0.278,2.881 -0.172,9.934 6.964,12.622 0.042,0.016 0.081,0.028 0.126,0.037 0.404,0.08 2.736,0.543 4.031,0.8 0.45,0.09 0.867,-0.256 0.867,-0.715 V -0.741 c 0,-0.087 -0.015,-0.168 -0.044,-0.249 -0.213,-0.596 -1.279,-3.049 -4.632,-3.875 -0.539,-0.133 -0.707,-0.826 -0.306,-1.21 1.888,-1.809 5.531,-5.786 4.99,-9.088 -0.006,-0.034 -0.013,-0.065 -0.023,-0.098 -0.148,-0.477 -1.354,-4.299 -2.697,-6.511 -0.311,-0.513 0.105,-1.161 0.701,-1.092 2.82,0.325 8.652,1.585 12.582,6.476 0,0 6.527,5.874 2.283,15.661" /></g><g
           transform="translate(58.3891,57.3796)"
           id="g24"><path
             id="path26"
             style="fill:#CCA419;fill-opacity:1;fill-rule:nonzero;stroke:none"
             d="m 0,0 c 0,0 2.285,6.136 11.645,5.478 0,0 4.913,-0.839 5.948,-3.537 0,0 -9.322,3.469 -12.052,-1.064 0,0 -1.691,-4.383 -4.539,-2.787 0,0 -1.346,0.627 -1.002,1.91" /></g><g
           transform="translate(40.1132,78.9422)"
           id="g28"><path
             id="path30"
             style="fill:#CCA419;fill-opacity:1;fill-rule:nonzero;stroke:none"
             d="m 0,0 c 0,0 -5.304,6.991 -10.426,4.339 0,0 -4.182,-2.724 -1.405,-7.574 0,0 1.907,-4.725 7.959,-2.777 0,0 2.072,1.368 2.238,2.446 v -5.192 c 0,0 -7.376,-3.969 -11.149,1.503 0,0 -8.83,8.538 -5.431,15.461 0,0 3.648,5.264 3.648,5.43 0,0.165 0.994,8.663 0.994,8.663 l 0.995,-1.493 0.72,-4.867 c 0.218,-1.474 0.853,-2.852 1.834,-3.974 1.339,-1.533 3.273,-3.523 4.56,-3.873 0.541,-0.148 1.056,-0.35 1.537,-0.639 C -2.148,6.382 1.046,3.861 0,0" /></g><g
           transform="translate(53.4729,91.584)"
           id="g32"><path
             id="path34"
             style="fill:#CCA419;fill-opacity:1;fill-rule:nonzero;stroke:none"
             d="m 0,0 c 0,0 -1.791,-3.157 -3.11,-3.628 0,0 -11.168,0.094 -12.817,8.199 0,0 -1.985,9.489 1.88,14.873 0.761,1.061 1.283,2.268 1.484,3.558 0.448,2.871 1.411,7.639 2.997,8.805 h 0.801 L -8.4,26.403 c 0.114,-1.69 0.992,-3.234 2.383,-4.199 1.515,-1.052 3.384,-2.394 4.132,-3.12 0,0 7.445,-5.796 6.22,-11.026 0,0 -2.167,-5.749 -7.728,-4.006 0,0 -2.262,1.226 -1.885,2.404 0,0 3.723,-0.048 4.147,1.743 0,0 0.99,3.524 -1.64,5.418 -0.605,0.436 -1.191,0.896 -1.681,1.458 -0.318,0.365 -0.669,0.774 -0.958,1.127 -0.403,0.49 -0.988,0.789 -1.621,0.832 l -1.019,0.067 c -1.015,0.068 -1.861,-0.315 -2.364,-1.025 -1.17,-1.652 -2.921,-4.894 -1.602,-8.16 0,0 1.156,-2.931 3.226,-5.095 1.145,-1.197 2.673,-1.959 4.313,-2.19 z" /></g><g
           transform="translate(66.5248,134.6457)"
           id="g36"><path
             id="path38"
             style="fill:#CCA419;fill-opacity:1;fill-rule:nonzero;stroke:none"
             d="m 0,0 h 2.287 c 0.518,0 1.014,-0.209 1.374,-0.582 2.581,-2.679 13.084,-14.061 13.814,-22.658 0,0 4.101,-19.971 -8.738,-21.814 0,0 -7.603,-1.284 -9.771,6.846 -0.337,1.265 -0.233,2.619 0.32,3.805 1.191,2.553 3.911,6.751 8.441,5.1 0,0 -6.053,-2.343 -5.242,-6.587 0.183,-0.953 0.917,-1.722 1.84,-2.019 1.693,-0.546 4.631,-0.627 6.79,3.97 0,0 3.863,9.153 -1.962,13.255 0,0 -5.171,3.388 -9.51,-6.895 0,0 -0.356,7.311 2.972,10.639 l 1.666,2.142 c 0.539,0.693 0.837,1.543 0.849,2.42 l 0.067,5.02 C 5.221,-5.601 4.618,-3.889 3.476,-2.553 2.416,-1.312 1.067,-0.031 0,0" /></g><g
           transform="translate(91.0726,87.9556)"
           id="g40"><path
             id="path42"
             style="fill:#CCA419;fill-opacity:1;fill-rule:nonzero;stroke:none"
             d="m 0,0 c 0,0 -3.388,6.688 -1.01,8.709 0,0 6.101,7.328 10.122,9.066 0,0 1.936,0.645 2.035,3.127 0,0 0.347,6.998 -3.921,10.175 l 0.701,0.943 c 0,0 6.532,-3.761 10.207,-12.007 0.359,-0.805 0.558,-1.676 0.558,-2.557 V 8.308 c 0,-1.422 0.195,-2.843 0.646,-4.191 0.458,-1.368 0.833,-3.357 -0.15,-4.757 0,0 -4.914,-9.232 -12.21,-4.666 0,0 -3.72,2.844 -2.907,7.064 0.262,1.361 1.028,2.568 2.03,3.526 1.262,1.207 3.242,2.635 4.599,1.372 0,0 -5.261,-3.276 -2.978,-6.949 0,0 3.532,-5.679 7.928,3.741 0.208,0.445 0.347,0.921 0.415,1.408 0.278,1.988 0.411,6.896 -4.918,7.409 0,0 -5.112,0.844 -7.793,-4.765 C 3.354,7.5 0.369,2.973 0,0" /></g><g
           transform="translate(18.2936,58.7988)"
           id="g44"><path
             id="path46"
             style="fill:#CCA419;fill-opacity:1;fill-rule:nonzero;stroke:none"
             d="m 0,0 c 1.815,-4.039 7.867,-16.086 17.348,-20.821 0.784,-0.391 1.602,-0.692 2.449,-0.916 2.804,-0.74 11.325,-3.274 16.536,-7.906 0,0 7.58,-5.797 4.331,-13.059 l -4.331,-6.179 c 0,0 0.663,5.418 0.084,8.013 -0.032,0.145 -0.237,0.149 -0.274,0.006 -0.653,-2.472 -3.982,-12.865 -13.316,-10.504 l -0.7,0.319 c 0,0 8.345,5.224 9.746,11.021 0,0 0.446,1.911 -3.057,-0.574 0,0 -7.922,-10.244 -18.697,-2.686 -0.392,0.275 -0.231,0.897 0.247,0.939 3.742,0.326 14.053,1.591 16.31,5.752 0.068,0.126 0.076,0.277 0.033,0.414 l -0.549,1.731 c -0.104,0.329 -0.485,0.472 -0.776,0.289 -0.811,-0.509 -2.458,-1.433 -4.72,-2.153 -6.823,-2.168 -14.289,-0.352 -19.591,4.458 -2.412,2.189 -5.187,5.048 -6.146,7.361 -0.262,0.632 0.488,1.206 1.043,0.805 3.695,-2.67 14.495,-9.241 27.303,-5.762 l -0.215,0.775 c -0.06,0.218 -0.249,0.372 -0.475,0.38 -2.441,0.09 -16.284,1.179 -23.202,14.342 -0.562,1.07 -0.86,2.259 -0.903,3.467 -0.096,2.674 -0.186,7.723 0.366,10.349 C -1.033,0.446 -0.245,0.545 0,0" /></g><g
           transform="translate(109.4435,32.8564)"
           id="g48"><path
             id="path50"
             style="fill:#CCA419;fill-opacity:1;fill-rule:nonzero;stroke:none"
             d="m 0,0 c -2.431,-2.468 -7.065,-5.915 -12.901,-4.267 0,0 -6.841,8.68 -14.24,2.772 0,0 -6.704,-3.07 -3.886,-10.095 0.491,-1.222 1.523,-2.147 2.774,-2.561 1.844,-0.612 4.529,-1.167 5.531,0.324 0.076,0.115 -6.846,2.054 -3.747,6.354 1.032,1.434 2.689,2.298 4.451,2.424 1.876,0.133 4.22,-0.278 4.952,-2.921 0,0 4.68,-6.214 -3.085,-10.999 0,0 -4.53,-3.691 -9.944,-2.772 -3.989,0.678 -7.06,3.858 -8.044,7.783 -0.936,3.735 -1.316,9.496 2.623,14.981 0,0 8.994,10.842 14.955,6.066 0,0 3.87,-1.104 7.623,2.028 0.615,0.512 1.275,0.968 1.984,1.341 1.859,0.98 5.573,3.525 6.555,8.593 0.155,0.799 0.477,1.551 0.888,2.253 0.916,1.566 2.564,3.759 4.421,3.323 0.376,-0.089 0.667,-0.392 0.776,-0.763 0.244,-0.828 0.472,-2.411 -0.922,-3.363 0,0 -2.361,-0.664 -1.652,-6.143 0.09,-0.696 0.074,-1.402 -0.013,-2.098 -0.139,-1.118 -0.879,-2.783 -1.033,-0.755 0,0 -0.439,-3.754 2.132,-0.102 0,0 1.438,2.98 1.673,0.104 V 4.66 C 1.871,2.923 1.219,1.237 0,0 m 13.618,33.978 c -3.372,0.387 -10.308,0.517 -15.076,-3.925 0,0 -3.731,-3.677 -6.857,-10.298 -0.452,-0.958 -1.095,-1.813 -1.881,-2.524 -2.6,-2.353 -8.59,-7.18 -13.084,-6.264 0,0 -8.496,0.691 -14.458,-5.089 -0.968,-0.938 -1.589,-2.181 -1.785,-3.515 l -0.429,-2.908 c 0,0 -2.353,1.734 -3.712,0.923 0,0 -2.048,-11.216 0.619,-16.601 0,0 5.019,-8.802 15.364,-8.428 0,0 12.018,0.314 15.12,5.325 l 0.863,0.628 -3.529,0.183 c 0,0 4.714,3.529 3.529,9.168 0,0 5.081,-0.061 5.891,1.49 v -3.103 c 0,0 -3.163,-1.298 -3.721,-3.215 0,0 12.21,3.773 15.556,14.37 0,0 4.959,11.591 2.728,20.637 L 7.64,20.144 c 0,0 -1.871,7.988 6.047,9.628 1.675,0.347 3.451,-0.205 4.516,-1.545 0.402,-0.507 0.638,-1.031 0.409,-1.443 0.096,0.165 1.397,2.384 -0.573,4.846 -1.082,1.35 -2.702,2.151 -4.421,2.348" /></g></g></g></g></svg>